<svg xmlns="http://www.w3.org/2000/svg" xmlns:xlink="http://www.w3.org/1999/xlink" width="40" zoomAndPan="magnify" viewBox="0 0 30 30.000001" height="40" preserveAspectRatio="xMidYMid meet" version="1.0"><defs><clipPath id="876295054a"><path d="M 0.484375 0 L 29.515625 0 L 29.515625 28.742188 L 0.484375 28.742188 Z M 0.484375 0 " clip-rule="nonzero"/></clipPath><clipPath id="d4f9a38ee5"><path d="M 15 -0.289062 C 6.984375 -0.289062 0.484375 6.207031 0.484375 14.226562 C 0.484375 22.242188 6.984375 28.742188 15 28.742188 C 23.015625 28.742188 29.515625 22.242188 29.515625 14.226562 C 29.515625 6.207031 23.015625 -0.289062 15 -0.289062 " clip-rule="nonzero"/></clipPath><clipPath id="867456ccc6"><path d="M 12 2.902344 L 15 2.902344 L 15 14 L 12 14 Z M 12 2.902344 " clip-rule="nonzero"/></clipPath></defs><g clip-path="url(#876295054a)"><g clip-path="url(#d4f9a38ee5)"><path fill="#e9ecef" d="M 0.484375 -0.289062 L 29.515625 -0.289062 L 29.515625 28.742188 L 0.484375 28.742188 Z M 0.484375 -0.289062 " fill-opacity="1" fill-rule="nonzero"/></g></g><path stroke-linecap="butt" transform="matrix(0.0121978, 0, 0, 0.0120929, 27.892025, 18.355661)" fill-opacity="1" fill="#6c757d" fill-rule="evenodd" stroke-linejoin="miter" d="M -1158.431475 132.099442 C -1004.074644 138.236829 -839.790299 8.382624 -645.403169 -393.131749 C -1214.153651 -211.917297 -1656.728631 -329.496727 -1612.214939 -407.021626 C -1581.47167 -460.643015 -1340.969637 -540.106036 -684.792983 -433.18628 C -684.792983 -433.18628 -889.107627 -449.660321 -1111.035602 -463.227178 C -1368.19024 -478.732158 -1558.414218 -456.76677 -1572.825126 -396.038932 C -1578.589489 -319.806115 -942.908348 -302.363013 -645.082927 -394.42383 C -720.660131 -134.392398 -892.310051 198.964667 -1180.5282 181.198544 C -1363.066361 166.985646 -1522.867313 -75.925704 -1632.710452 -294.610523 C -1454.335442 -18.42807 -1318.232427 123.37789 -1158.431475 132.099442 Z M -1158.431475 132.099442 " stroke="#000000" stroke-width="1" stroke-opacity="1" stroke-miterlimit="4"/><path stroke-linecap="butt" transform="matrix(0.0121978, 0, 0, 0.0120929, 27.892025, 18.355661)" fill-opacity="1" fill="#6c757d" fill-rule="evenodd" stroke-linejoin="miter" d="M -673.264257 -282.658768 C -673.264257 -282.658768 -599.608508 -416.712239 -483.040279 -404.437463 C -310.429631 -385.702279 -608.575295 15.166052 -835.94739 12.258869 C -798.799273 1.276175 -754.926066 -13.582764 -683.512014 -66.881132 C -596.406084 -131.808235 -395.293864 -324.651421 -533.318334 -356.307422 C -584.557116 -367.936156 -673.264257 -282.658768 -673.264257 -282.658768 Z M -673.264257 -282.658768 " stroke="#000000" stroke-width="1" stroke-opacity="1" stroke-miterlimit="4"/><path stroke-linecap="butt" transform="matrix(0.0088427, 0, 0, 0.00960888, 23.661636, 17.767325)" fill-opacity="1" fill="#6c757d" fill-rule="evenodd" stroke-linejoin="miter" d="M -1486.208843 150.237212 C -1486.208843 150.237212 -2494.278594 266.503305 -1589.577959 460.415634 C -389.347672 718.152357 13.085081 354.719186 14.410326 305.529686 C 19.711306 101.860761 -682.226833 132.756646 -682.226833 132.756646 C -477.255595 157.554658 -466.653635 137.228418 -230.318264 186.824444 C 6.017107 236.42047 -319.109684 524.646553 -816.518334 503.100738 C -1696.922809 465.293932 -2299.909317 308.375359 -1486.208843 150.237212 Z M -1486.208843 150.237212 " stroke="#000000" stroke-width="1.132" stroke-opacity="1" stroke-miterlimit="4"/><g clip-path="url(#867456ccc6)"><path stroke-linecap="butt" transform="matrix(0.00766064, 0, 0, 0.00721877, 22.032956, 16.821598)" fill-opacity="1" fill="#6c757d" fill-rule="evenodd" stroke-linejoin="miter" d="M -1154.662405 -1926.578892 C -1213.812144 -1794.544674 -1232.678871 -1446.602044 -1012.397085 -1279.394777 C -792.1153 -1112.187509 -1159.76152 -395.739542 -1176.588601 -396.280666 C -1192.905771 -396.82179 -938.459912 -1028.854438 -1040.44222 -1179.286866 C -1142.93444 -1330.260418 -1154.662405 -1926.578892 -1154.662405 -1926.578892 Z M -1154.662405 -1926.578892 " stroke="#000000" stroke-width="1" stroke-opacity="1" stroke-miterlimit="4"/></g><path stroke-linecap="butt" transform="matrix(0.00766064, 0, 0, 0.00721877, 22.032956, 16.821598)" fill-opacity="1" fill="#6c757d" fill-rule="evenodd" stroke-linejoin="miter" d="M -1290.298875 -1751.795891 C -1349.448613 -1637.61876 -1368.31534 -1335.671656 -1148.033555 -1190.650466 C -927.75177 -1045.629277 -1359.646844 -395.739542 -1375.964014 -395.739542 C -1392.791094 -396.82179 -1074.096382 -973.118682 -1176.07869 -1103.529528 C -1278.570909 -1234.481498 -1290.298875 -1751.795891 -1290.298875 -1751.795891 Z M -1290.298875 -1751.795891 " stroke="#000000" stroke-width="0.932" stroke-opacity="1" stroke-miterlimit="4"/><path stroke-linecap="butt" transform="matrix(0.00766064, 0, 0, 0.00721877, 22.032956, 16.821598)" fill-opacity="1" fill="#6c757d" fill-rule="evenodd" stroke-linejoin="miter" d="M -878.29035 -1703.635869 C -937.95 -1593.787729 -1020.55567 -1296.710739 -800.273884 -1157.641912 C -579.992099 -1018.573085 -1011.377262 -395.739542 -1028.204343 -396.280666 C -1045.031424 -396.82179 -726.336711 -948.768109 -828.319019 -1074.30884 C -930.811239 -1199.308448 -878.800262 -1703.635869 -878.29035 -1703.635869 Z M -878.29035 -1703.635869 " stroke="#000000" stroke-width="0.912" stroke-opacity="1" stroke-miterlimit="4"/></svg>