<svg xmlns="http://www.w3.org/2000/svg" xmlns:xlink="http://www.w3.org/1999/xlink" width="40" zoomAndPan="magnify" viewBox="0 0 30 30.000001" height="40" preserveAspectRatio="xMidYMid meet" version="1.0"><defs><clipPath id="6f6a3fa97e"><path d="M 0.484375 0 L 29.515625 0 L 29.515625 29.03125 L 0.484375 29.03125 Z M 0.484375 0 " clip-rule="nonzero"/></clipPath><clipPath id="e646e6daf6"><path d="M 15 0 C 6.984375 0 0.484375 6.5 0.484375 14.515625 C 0.484375 22.53125 6.984375 29.03125 15 29.03125 C 23.015625 29.03125 29.515625 22.53125 29.515625 14.515625 C 29.515625 6.5 23.015625 0 15 0 " clip-rule="nonzero"/></clipPath><clipPath id="6ad7733e35"><path d="M 1.320312 4.480469 L 28.902344 4.480469 L 28.902344 24.800781 L 1.320312 24.800781 Z M 1.320312 4.480469 " clip-rule="nonzero"/></clipPath></defs><g clip-path="url(#6f6a3fa97e)"><g clip-path="url(#e646e6daf6)"><path fill="#e9ecef" d="M 0.484375 0 L 29.515625 0 L 29.515625 29.03125 L 0.484375 29.03125 Z M 0.484375 0 " fill-opacity="1" fill-rule="nonzero"/></g></g><g clip-path="url(#6ad7733e35)"><path fill="#343a40" d="M 28.6875 21.230469 L 27.742188 20.769531 L 27.160156 19.355469 L 26.976562 19.296875 L 23.308594 18.34375 C 24.957031 17.605469 26.488281 17.269531 26.519531 17.269531 L 27.585938 17.023438 L 18.964844 14.132812 L 18.875 14.164062 C 18.691406 14.226562 14.195312 15.855469 12.972656 18.589844 C 7.894531 16.375 3.769531 16.992188 2.972656 17.113281 C 2.820312 17.144531 2.699219 17.269531 2.699219 17.421875 C 2.667969 17.574219 2.757812 17.730469 2.910156 17.789062 L 4.289062 18.375 C 3.003906 18.621094 2.421875 19.140625 2.421875 19.140625 L 2.453125 19.324219 C 2.515625 19.785156 2.515625 20.1875 2.484375 20.371094 L 1.660156 20.460938 C 1.503906 20.492188 1.382812 20.585938 1.351562 20.738281 C 1.320312 20.894531 1.382812 21.046875 1.535156 21.109375 L 8.8125 24.792969 C 8.8125 24.792969 17.160156 23.226562 17.804688 23.195312 C 17.832031 23.226562 17.894531 23.257812 17.957031 23.289062 C 18.230469 23.472656 18.660156 23.78125 19.148438 23.6875 C 19.667969 23.597656 19.914062 23.289062 20.066406 23.105469 C 20.1875 22.949219 20.21875 22.921875 20.28125 22.921875 C 20.769531 22.921875 28.261719 21.90625 28.566406 21.875 C 28.566406 21.875 28.8125 21.785156 28.839844 21.597656 C 28.902344 21.414062 28.8125 21.292969 28.6875 21.230469 Z M 26.730469 19.910156 L 27.097656 20.800781 C 25.753906 20.800781 21.929688 20.953125 20.21875 22.03125 C 20.15625 22 19.882812 21.875 19.851562 21.875 C 21.535156 20.0625 25.785156 19.910156 26.730469 19.910156 Z M 27.191406 21.414062 C 25.109375 21.691406 22.664062 22.03125 21.320312 22.183594 C 23.125 21.507812 26.152344 21.414062 27.191406 21.414062 Z M 24.925781 19.386719 C 23.214844 19.570312 20.890625 20.03125 19.546875 21.292969 C 20.097656 20.21875 21.257812 19.386719 22.449219 18.742188 Z M 3.125 20.460938 C 3.125 20.433594 3.09375 20.433594 3.09375 20.402344 C 3.125 20.21875 3.125 20 3.09375 19.726562 L 8.996094 22.214844 C 8.996094 22.214844 14.46875 20.863281 17.804688 22.121094 C 17.804688 22.121094 17.804688 22.121094 17.773438 22.121094 C 14.988281 21.691406 9.945312 23.011719 9.121094 23.257812 C 8.386719 22.921875 4.320312 21.015625 3.125 20.460938 Z M 19.027344 14.78125 L 25.417969 16.929688 C 23.519531 17.484375 19.605469 18.925781 18.78125 21.597656 C 18.691406 21.539062 18.535156 21.445312 18.351562 21.324219 C 17.464844 20.738281 15.691406 19.664062 13.582031 18.804688 C 14.59375 16.53125 18.351562 15.023438 19.027344 14.78125 Z M 13.0625 19.296875 C 13.582031 19.511719 14.074219 19.726562 14.5625 19.941406 C 14.46875 19.910156 14.378906 19.910156 14.285156 19.878906 C 12.878906 19.664062 11.71875 19.601562 10.863281 19.601562 C 9.945312 19.601562 9.363281 19.664062 9.148438 19.695312 L 4.074219 17.605469 C 5.753906 17.453125 9.121094 17.511719 13.0625 19.296875 Z M 9.058594 20.308594 L 9.148438 20.308594 C 9.179688 20.308594 11.105469 20 14.195312 20.492188 C 15.171875 20.648438 16 20.921875 16.671875 21.199219 C 13.523438 20.585938 9.699219 21.414062 9.027344 21.570312 L 3.433594 19.234375 C 3.921875 19.019531 4.683594 18.835938 5.726562 18.957031 Z M 8.90625 24.148438 L 2.636719 20.953125 L 2.699219 20.953125 C 3.617188 21.351562 8.90625 23.84375 8.9375 23.871094 L 9.027344 23.933594 L 9.148438 23.902344 C 9.210938 23.902344 13.949219 22.550781 16.917969 22.675781 C 15.847656 22.828125 13.613281 23.226562 8.90625 24.148438 Z M 19.605469 22.707031 C 19.453125 22.890625 19.332031 23.011719 19.058594 23.074219 C 18.8125 23.105469 18.535156 22.921875 18.324219 22.765625 C 18.261719 22.707031 18.199219 22.675781 18.140625 22.644531 C 18.171875 22.613281 18.230469 22.582031 18.261719 22.550781 C 18.351562 22.488281 18.660156 22.273438 18.996094 22.273438 C 19.421875 22.273438 19.761719 22.488281 19.789062 22.488281 C 19.730469 22.550781 19.667969 22.644531 19.605469 22.707031 Z M 5.449219 13.273438 L 6.765625 12.566406 L 8.078125 13.273438 L 7.835938 11.800781 L 8.90625 10.753906 L 7.4375 10.539062 L 6.796875 9.21875 L 6.152344 10.539062 L 4.683594 10.753906 L 5.753906 11.800781 Z M 6.519531 11.125 L 6.765625 10.632812 L 7.007812 11.125 L 7.558594 11.214844 L 7.164062 11.617188 L 7.253906 12.167969 L 6.765625 11.890625 L 6.246094 12.167969 L 6.335938 11.617188 L 5.9375 11.214844 Z M 9.609375 15.578125 L 9.882812 17.023438 L 10.863281 15.917969 L 12.328125 16.101562 L 11.566406 14.808594 L 12.175781 13.457031 L 10.738281 13.796875 L 9.667969 12.78125 L 9.515625 14.257812 L 8.234375 14.996094 Z M 10.128906 14.625 L 10.1875 14.074219 L 10.585938 14.441406 L 11.136719 14.320312 L 10.894531 14.839844 L 11.167969 15.332031 L 10.617188 15.269531 L 10.25 15.699219 L 10.128906 15.148438 L 9.609375 14.933594 Z M 18.171875 7.285156 L 18.875 8.574219 L 19.484375 7.222656 L 20.953125 6.945312 L 19.851562 5.960938 L 20.035156 4.488281 L 18.75 5.226562 L 17.40625 4.582031 L 17.710938 6.023438 L 16.703125 7.097656 Z M 18.261719 5.6875 L 18.78125 5.933594 L 19.269531 5.65625 L 19.210938 6.207031 L 19.636719 6.578125 L 19.085938 6.667969 L 18.875 7.191406 L 18.597656 6.699219 L 18.046875 6.636719 L 18.445312 6.238281 Z M 11.933594 11 C 12.359375 11 12.726562 10.632812 12.726562 10.203125 C 12.726562 9.773438 12.359375 9.402344 11.933594 9.402344 C 11.503906 9.402344 11.136719 9.742188 11.136719 10.203125 C 11.136719 10.664062 11.503906 11 11.933594 11 Z M 11.933594 9.988281 C 12.023438 9.988281 12.117188 10.078125 12.117188 10.171875 C 12.117188 10.261719 12.023438 10.355469 11.933594 10.355469 C 11.839844 10.355469 11.75 10.292969 11.75 10.203125 C 11.75 10.078125 11.839844 9.988281 11.933594 9.988281 Z M 18.140625 11.371094 C 17.710938 11.371094 17.34375 11.738281 17.34375 12.167969 C 17.34375 12.597656 17.710938 12.96875 18.140625 12.96875 C 18.566406 12.96875 18.933594 12.597656 18.933594 12.167969 C 18.933594 11.738281 18.597656 11.371094 18.140625 11.371094 Z M 18.140625 12.351562 C 18.046875 12.351562 17.957031 12.261719 17.957031 12.167969 C 17.957031 12.074219 18.046875 11.984375 18.140625 11.984375 C 18.230469 11.984375 18.324219 12.074219 18.324219 12.167969 C 18.324219 12.292969 18.261719 12.351562 18.140625 12.351562 Z M 21.929688 10.417969 C 22.449219 10.417969 22.878906 9.988281 22.878906 9.464844 C 22.878906 8.941406 22.449219 8.511719 21.929688 8.511719 C 21.410156 8.511719 20.953125 8.941406 20.953125 9.464844 C 20.953125 9.988281 21.378906 10.417969 21.929688 10.417969 Z M 21.929688 9.097656 C 22.113281 9.097656 22.265625 9.25 22.265625 9.433594 C 22.265625 9.617188 22.113281 9.773438 21.929688 9.773438 C 21.746094 9.773438 21.5625 9.617188 21.5625 9.433594 C 21.5625 9.25 21.71875 9.097656 21.929688 9.097656 Z M 21.929688 9.097656 " fill-opacity="1" fill-rule="nonzero"/></g></svg>