<svg xmlns="http://www.w3.org/2000/svg" xmlns:xlink="http://www.w3.org/1999/xlink" width="40" zoomAndPan="magnify" viewBox="0 0 30 30.000001" height="40" preserveAspectRatio="xMidYMid meet" version="1.0"><defs><g/><clipPath id="47e9450b3d"><path d="M 0.484375 0 L 29.515625 0 L 29.515625 29.03125 L 0.484375 29.03125 Z M 0.484375 0 " clip-rule="nonzero"/></clipPath><clipPath id="e4df08fc94"><path d="M 15 0 C 6.984375 0 0.484375 6.5 0.484375 14.515625 C 0.484375 22.53125 6.984375 29.03125 15 29.03125 C 23.015625 29.03125 29.515625 22.53125 29.515625 14.515625 C 29.515625 6.5 23.015625 0 15 0 " clip-rule="nonzero"/></clipPath></defs><g clip-path="url(#47e9450b3d)"><g clip-path="url(#e4df08fc94)"><path fill="#e9ecef" d="M 0.484375 0 L 29.515625 0 L 29.515625 29.03125 L 0.484375 29.03125 Z M 0.484375 0 " fill-opacity="1" fill-rule="nonzero"/></g></g><g fill="#000000" fill-opacity="1"><g transform="translate(15.031228, 5.547735)"><g/></g></g><g fill="#000000" fill-opacity="1"><g transform="translate(6.524403, 12.527295)"><g><path d="M 4.714844 -4.945312 C 4.707031 -5 4.667969 -5 4.632812 -5 C 4.625 -5 4.601562 -4.972656 4.578125 -4.972656 C 4.550781 -4.964844 4.503906 -4.964844 4.472656 -4.964844 C 4.171875 -4.957031 3.875 -4.910156 3.582031 -4.878906 C 3.273438 -4.835938 2.960938 -4.816406 2.648438 -4.78125 L 2.519531 -4.761719 C 2.519531 -4.789062 2.511719 -4.808594 2.5 -4.828125 C 2.453125 -4.878906 2.425781 -4.925781 2.371094 -4.964844 C 2.277344 -5.035156 2.121094 -5.101562 2.003906 -5.058594 C 1.84375 -5.007812 1.917969 -4.84375 1.828125 -4.722656 C 1.71875 -4.558594 1.335938 -4.652344 1.152344 -4.585938 C 1.070312 -4.558594 1.035156 -4.519531 1.03125 -4.445312 C 0.988281 -4.132812 1.394531 -4.089844 1.613281 -4.125 C 1.566406 -3.976562 1.023438 -2.335938 1.015625 -2.335938 C 1.03125 -2.359375 1.042969 -2.378906 1.050781 -2.398438 C 1.03125 -2.332031 0.980469 -2.148438 0.949219 -2.140625 C 0.957031 -2.148438 0.96875 -2.203125 0.96875 -2.203125 C 0.957031 -2.207031 0.949219 -2.152344 0.941406 -2.152344 C 0.90625 -2.148438 0.867188 -2.128906 0.828125 -2.121094 C 0.738281 -2.113281 0.625 -2.121094 0.535156 -2.09375 C 0.535156 -2.085938 0.527344 -2.085938 0.523438 -2.085938 C 0.269531 -1.972656 0.5625 -1.71875 0.746094 -1.71875 C 0.644531 -1.484375 0.597656 -1.238281 0.5 -1.003906 C 0.460938 -0.878906 0.40625 -0.765625 0.359375 -0.644531 L 0.285156 -0.453125 C 0.285156 -0.441406 0.257812 -0.339844 0.265625 -0.332031 L 0.230469 -0.230469 C 0.238281 -0.25 0.257812 -0.320312 0.257812 -0.320312 C 0.222656 -0.3125 0.164062 -0.0390625 0.148438 -0.0078125 C 0.0898438 0.101562 0.0117188 0.191406 0 0.320312 C -0.0273438 0.628906 0.25 0.878906 0.515625 0.988281 C 0.941406 1.164062 1.414062 0.804688 1.742188 0.5625 C 1.902344 0.433594 2.046875 0.296875 2.195312 0.164062 C 2.296875 0.0664062 2.425781 -0.0625 2.472656 -0.191406 C 2.527344 -0.332031 2.460938 -0.359375 2.335938 -0.296875 C 2.078125 -0.164062 1.828125 -0.0078125 1.570312 0.128906 C 1.308594 0.269531 0.996094 0.472656 0.699219 0.527344 C 0.691406 0.5 0.71875 0.421875 0.699219 0.398438 C 0.675781 0.378906 0.648438 0.527344 0.648438 0.507812 C 0.65625 0.386719 0.71875 0.277344 0.757812 0.15625 C 0.820312 -0.0195312 0.878906 -0.195312 0.949219 -0.371094 C 1.0625 -0.699219 1.179688 -1.015625 1.28125 -1.347656 L 1.363281 -1.597656 C 1.382812 -1.652344 1.414062 -1.835938 1.457031 -1.871094 C 1.53125 -1.925781 1.699219 -1.910156 1.789062 -1.925781 C 1.902344 -1.9375 1.949219 -1.992188 2.046875 -2.003906 C 2.175781 -2.027344 2.296875 -2.050781 2.425781 -2.066406 C 2.492188 -2.078125 2.601562 -2.085938 2.664062 -2.128906 C 2.722656 -2.152344 2.695312 -2.167969 2.75 -2.179688 C 2.851562 -2.207031 2.996094 -2.179688 3.082031 -2.253906 C 3.136719 -2.304688 3.15625 -2.363281 3.074219 -2.390625 C 3.0625 -2.398438 3.042969 -2.363281 3.019531 -2.359375 L 2.933594 -2.359375 C 2.777344 -2.351562 2.628906 -2.332031 2.472656 -2.308594 C 2.179688 -2.277344 1.882812 -2.253906 1.585938 -2.222656 C 1.625 -2.335938 2 -3.386719 2.140625 -3.734375 C 2.078125 -3.589844 1.972656 -3.3125 1.890625 -3.089844 C 1.949219 -3.265625 2.019531 -3.433594 2.085938 -3.609375 L 2.230469 -3.96875 C 2.242188 -4.011719 2.316406 -4.28125 2.359375 -4.289062 C 2.34375 -4.269531 2.34375 -4.253906 2.34375 -4.234375 C 2.359375 -4.246094 2.371094 -4.269531 2.371094 -4.289062 L 2.492188 -4.308594 C 2.5625 -4.328125 2.636719 -4.347656 2.703125 -4.363281 C 2.824219 -4.375 2.953125 -4.375 3.074219 -4.421875 C 3.121094 -4.4375 3.109375 -4.449219 3.175781 -4.472656 C 3.230469 -4.492188 3.292969 -4.492188 3.347656 -4.5 C 3.480469 -4.519531 3.617188 -4.558594 3.753906 -4.585938 C 3.882812 -4.605469 4.015625 -4.640625 4.132812 -4.695312 C 4.140625 -4.703125 4.144531 -4.714844 4.140625 -4.726562 C 4.167969 -4.742188 4.1875 -4.742188 4.207031 -4.726562 C 4.261719 -4.75 4.320312 -4.742188 4.382812 -4.753906 C 4.457031 -4.777344 4.726562 -4.816406 4.714844 -4.945312 Z M 1.253906 -2.535156 C 1.164062 -2.324219 1.070312 -2.140625 0.980469 -1.9375 L 1.300781 -2.8125 C 1.355469 -2.988281 1.4375 -3.15625 1.503906 -3.332031 C 1.421875 -3.082031 1.363281 -2.785156 1.253906 -2.535156 Z M 1.585938 -2.277344 C 1.59375 -2.242188 1.578125 -2.222656 1.558594 -2.222656 L 1.644531 -2.4375 Z M 2.179688 -3.820312 C 2.179688 -3.8125 2.175781 -3.800781 2.175781 -3.800781 C 2.175781 -3.808594 2.179688 -3.8125 2.179688 -3.820312 Z M 2.179688 -3.820312 C 2.1875 -3.828125 2.1875 -3.835938 2.195312 -3.835938 C 2.1875 -3.835938 2.1875 -3.828125 2.179688 -3.820312 Z M 2.160156 -3.78125 L 2.140625 -3.734375 Z M 2.160156 -3.78125 "/></g></g></g><g fill="#000000" fill-opacity="1"><g transform="translate(9.809915, 12.527295)"><g><path d="M 2.6875 -1.59375 C 2.667969 -1.6875 2.613281 -1.699219 2.546875 -1.671875 C 2.417969 -1.613281 2.289062 -1.476562 2.167969 -1.394531 C 1.890625 -1.21875 1.613281 -1.078125 1.3125 -0.929688 C 1.3125 -0.933594 1.308594 -0.949219 1.300781 -0.96875 C 1.308594 -0.933594 1.300781 -0.921875 1.292969 -0.914062 C 1.226562 -1.207031 1.160156 -1.496094 1.105469 -1.796875 C 1.132812 -1.667969 1.191406 -1.449219 1.238281 -1.265625 C 1.179688 -1.550781 1.105469 -1.902344 1.109375 -1.902344 C 1.097656 -1.898438 1.097656 -1.882812 1.097656 -1.871094 C 1.082031 -1.949219 1.0625 -2.050781 1.078125 -2.140625 C 1.082031 -2.242188 1.136719 -2.332031 1.171875 -2.425781 C 1.164062 -2.378906 1.152344 -2.316406 1.152344 -2.316406 C 1.191406 -2.308594 1.21875 -2.5625 1.21875 -2.585938 C 1.210938 -2.628906 1.125 -2.757812 1.125 -2.722656 C 0.941406 -2.894531 0.582031 -2.519531 0.527344 -2.359375 C 0.488281 -2.25 0.488281 -2.132812 0.496094 -2.019531 C 0.5 -1.902344 0.535156 -1.800781 0.570312 -1.695312 C 0.589844 -1.613281 0.5625 -1.558594 0.570312 -1.46875 C 0.582031 -1.335938 0.628906 -1.199219 0.65625 -1.070312 C 0.683594 -0.96875 0.773438 -0.765625 0.75 -0.671875 C 0.738281 -0.574219 0.535156 -0.496094 0.445312 -0.441406 C 0.332031 -0.367188 0.214844 -0.277344 0.101562 -0.191406 C -0.101562 -0.0351562 -0.320312 0.164062 -0.398438 0.414062 C -0.414062 0.445312 -0.460938 0.597656 -0.414062 0.625 C -0.40625 0.628906 -0.386719 0.515625 -0.378906 0.5 C -0.46875 0.949219 -0.0273438 1.164062 0.386719 1.171875 C 0.855469 1.183594 1.179688 0.914062 1.339844 0.496094 C 1.410156 0.3125 1.429688 0.121094 1.421875 -0.0664062 C 1.421875 -0.195312 1.410156 -0.320312 1.390625 -0.441406 C 1.375 -0.546875 1.363281 -0.542969 1.4375 -0.601562 C 1.492188 -0.644531 1.570312 -0.671875 1.625 -0.699219 C 1.84375 -0.8125 2.039062 -0.949219 2.234375 -1.089844 C 2.378906 -1.191406 2.714844 -1.367188 2.6875 -1.585938 Z M -0.046875 0.738281 C -0.222656 0.683594 -0.046875 0.40625 0.0117188 0.320312 C 0.113281 0.183594 0.265625 0.0820312 0.398438 -0.0117188 L 0.601562 -0.148438 C 0.625 -0.164062 0.75 -0.265625 0.710938 -0.25 L 0.792969 -0.296875 L 0.746094 -0.257812 C 0.757812 -0.265625 0.777344 -0.269531 0.792969 -0.285156 C 0.800781 -0.121094 0.800781 0.0390625 0.75 0.203125 C 0.746094 0.230469 0.617188 0.5 0.5625 0.554688 L 0.597656 0.527344 C 0.535156 0.601562 0.46875 0.664062 0.386719 0.710938 C 0.386719 0.703125 0.445312 0.664062 0.441406 0.65625 L 0.25 0.730469 C 0.15625 0.75 0.046875 0.773438 -0.046875 0.738281 Z M 0.804688 0.933594 C 0.628906 1.007812 0.460938 1.042969 0.277344 1.050781 C 0.609375 1.03125 0.957031 0.867188 1.152344 0.589844 C 1.078125 0.738281 0.980469 0.855469 0.804688 0.933594 Z M 1.300781 -0.988281 C 1.292969 -1.035156 1.28125 -1.105469 1.261719 -1.179688 C 1.273438 -1.105469 1.285156 -1.03125 1.300781 -0.988281 Z M 1.390625 -0.285156 C 1.382812 -0.292969 1.382812 -0.304688 1.382812 -0.320312 C 1.382812 -0.304688 1.390625 -0.292969 1.390625 -0.285156 Z M 1.390625 -0.285156 "/></g></g></g><g fill="#000000" fill-opacity="1"><g transform="translate(12.140261, 12.527295)"><g><path d="M 2.453125 -1.253906 C 2.511719 -1.339844 2.757812 -1.597656 2.65625 -1.714844 C 2.519531 -1.847656 2.167969 -1.285156 2.113281 -1.21875 C 2.003906 -1.078125 1.890625 -0.941406 1.78125 -0.804688 C 1.71875 -0.730469 1.660156 -0.65625 1.59375 -0.589844 C 1.578125 -0.574219 1.449219 -0.414062 1.464844 -0.414062 C 1.484375 -0.421875 1.503906 -0.433594 1.523438 -0.445312 C 1.410156 -0.324219 1.253906 -0.214844 1.109375 -0.109375 C 1.015625 -0.0390625 0.832031 0.109375 0.71875 0.0273438 C 0.671875 0 0.65625 -0.0664062 0.644531 -0.113281 C 0.597656 -0.324219 0.628906 -0.574219 0.664062 -0.792969 C 0.738281 -1.246094 0.886719 -1.695312 1.070312 -2.121094 C 1.160156 -2.316406 1.246094 -2.511719 1.402344 -2.664062 C 1.414062 -2.675781 1.441406 -2.648438 1.449219 -2.65625 C 1.464844 -2.664062 1.410156 -2.683594 1.402344 -2.675781 C 1.328125 -2.636719 1.28125 -2.554688 1.238281 -2.480469 C 1.117188 -2.28125 1.023438 -2.066406 0.941406 -1.847656 C 1.003906 -2.019531 1.070312 -2.1875 1.152344 -2.359375 C 1.199219 -2.445312 1.253906 -2.585938 1.339844 -2.65625 C 1.570312 -2.839844 1.484375 -2.234375 1.457031 -2.148438 C 1.457031 -2.152344 1.484375 -2.304688 1.476562 -2.304688 C 1.464844 -2.304688 1.367188 -1.957031 1.367188 -1.957031 L 1.402344 -1.984375 C 1.367188 -1.929688 1.300781 -1.890625 1.390625 -1.828125 C 1.496094 -1.753906 1.707031 -1.882812 1.753906 -1.976562 C 1.800781 -2.078125 1.816406 -2.214844 1.820312 -2.316406 C 1.835938 -2.492188 1.789062 -2.59375 1.726562 -2.730469 C 1.660156 -2.871094 1.597656 -2.960938 1.414062 -2.988281 C 1.265625 -3.007812 1.132812 -2.945312 1.015625 -2.859375 C 0.847656 -2.738281 0.71875 -2.582031 0.609375 -2.40625 C 0.582031 -2.359375 0.339844 -1.863281 0.34375 -1.855469 L 0.371094 -1.890625 C 0.339844 -1.816406 0.320312 -1.742188 0.292969 -1.671875 C 0.285156 -1.671875 0.304688 -1.734375 0.296875 -1.734375 C 0.257812 -1.742188 0.136719 -1.367188 0.128906 -1.335938 C 0.0820312 -1.191406 0.046875 -1.050781 0.0390625 -0.902344 C 0.0351562 -0.738281 0.0078125 -0.574219 0 -0.40625 C 0 -0.320312 0 -0.222656 0.0117188 -0.136719 C 0.0117188 -0.109375 0.0664062 0.0351562 0.0664062 -0.0078125 L 0.101562 0.109375 C 0.09375 0.101562 0.0664062 0.0351562 0.0664062 0.0351562 C 0.0351562 0.0742188 0.214844 0.339844 0.257812 0.378906 C 0.3125 0.441406 0.394531 0.46875 0.472656 0.480469 C 0.746094 0.515625 1.003906 0.359375 1.199219 0.195312 C 1.539062 -0.0898438 1.871094 -0.441406 2.121094 -0.804688 C 2.222656 -0.960938 2.335938 -1.105469 2.453125 -1.253906 Z M 0.46875 -1.746094 C 0.453125 -1.679688 0.433594 -1.605469 0.40625 -1.542969 C 0.386719 -1.496094 0.324219 -1.457031 0.320312 -1.421875 C 0.332031 -1.539062 0.421875 -1.652344 0.472656 -1.78125 C 0.472656 -1.769531 0.46875 -1.753906 0.46875 -1.746094 Z M 0.214844 -0.957031 C 0.191406 -0.90625 0.191406 -0.820312 0.191406 -0.746094 C 0.183594 -0.828125 0.183594 -0.914062 0.210938 -0.996094 C 0.210938 -0.996094 0.230469 -0.96875 0.214844 -0.957031 Z M 0.703125 -1.117188 C 0.730469 -1.226562 0.765625 -1.335938 0.800781 -1.441406 Z M 0.230469 -1.082031 C 0.222656 -1.0625 0.210938 -1.035156 0.210938 -1.023438 C 0.210938 -1.058594 0.210938 -1.089844 0.242188 -1.105469 Z M 0.828125 -1.523438 C 0.820312 -1.515625 0.820312 -1.515625 0.820312 -1.511719 C 0.820312 -1.523438 0.820312 -1.539062 0.828125 -1.550781 Z M 0.828125 -1.523438 "/></g></g></g><g fill="#000000" fill-opacity="1"><g transform="translate(14.457058, 12.527295)"><g><path d="M 2.777344 -1.644531 C 2.738281 -1.820312 2.574219 -1.585938 2.539062 -1.542969 L 2.167969 -1.042969 L 1.800781 -0.5625 L 1.605469 -0.3125 C 1.585938 -0.285156 1.4375 -0.09375 1.449219 -0.09375 C 1.464844 -0.109375 1.484375 -0.109375 1.503906 -0.128906 C 1.402344 -0.0195312 1.03125 0.320312 0.960938 0.238281 C 0.90625 0.167969 1.058594 -0.113281 1.078125 -0.183594 C 1.152344 -0.378906 1.21875 -0.582031 1.300781 -0.773438 C 1.390625 -0.96875 1.492188 -1.164062 1.570312 -1.363281 C 1.652344 -1.570312 1.53125 -1.644531 1.335938 -1.695312 C 1.246094 -1.714844 1.136719 -1.714844 1.035156 -1.726562 C 1.035156 -1.71875 1.042969 -1.71875 1.042969 -1.71875 C 1.132812 -1.707031 1.261719 -1.699219 1.367188 -1.667969 C 1.207031 -1.714844 1.003906 -1.695312 0.875 -1.726562 C 0.785156 -1.746094 0.730469 -1.746094 0.746094 -1.847656 C 0.757812 -1.984375 0.902344 -2.128906 0.949219 -2.253906 C 0.949219 -2.25 0.902344 -2.128906 0.90625 -2.128906 C 0.941406 -2.113281 0.996094 -2.304688 0.996094 -2.332031 C 0.988281 -2.363281 0.90625 -2.464844 0.902344 -2.425781 L 0.914062 -2.40625 C 0.589844 -2.628906 0.203125 -2.167969 0.269531 -1.835938 C 0.285156 -1.789062 0.3125 -1.761719 0.332031 -1.707031 C 0.34375 -1.667969 0.332031 -1.617188 0.371094 -1.566406 C 0.515625 -1.390625 0.773438 -1.382812 0.976562 -1.421875 C 0.941406 -1.375 0.582031 -0.617188 0.601562 -0.609375 L 0.554688 -0.441406 C 0.546875 -0.445312 0.574219 -0.5 0.5625 -0.5 C 0.515625 -0.507812 0.421875 -0.113281 0.414062 -0.0820312 C 0.386719 0.0820312 0.394531 0.222656 0.460938 0.371094 C 0.5 0.46875 0.546875 0.546875 0.636719 0.601562 C 0.71875 0.65625 0.820312 0.683594 0.914062 0.664062 C 0.949219 0.648438 1.078125 0.5625 1.042969 0.570312 L 1.089844 0.546875 C 1.082031 0.554688 1.078125 0.5625 1.078125 0.570312 C 1.097656 0.574219 1.410156 0.324219 1.449219 0.296875 C 1.667969 0.113281 1.84375 -0.109375 2.003906 -0.332031 C 2.167969 -0.5625 2.335938 -0.792969 2.492188 -1.023438 C 2.566406 -1.132812 2.636719 -1.238281 2.6875 -1.355469 C 2.730469 -1.4375 2.796875 -1.550781 2.777344 -1.644531 Z M 0.75 -0.832031 C 0.800781 -0.957031 0.855469 -1.070312 0.914062 -1.183594 C 0.929688 -1.207031 1.023438 -1.449219 1.070312 -1.464844 C 1.035156 -1.441406 0.894531 -1.109375 0.859375 -1.050781 L 0.730469 -0.75 C 0.664062 -0.589844 0.589844 -0.421875 0.542969 -0.242188 C 0.589844 -0.445312 0.671875 -0.644531 0.75 -0.832031 Z M 0.589844 0.46875 C 0.628906 0.523438 0.683594 0.574219 0.757812 0.601562 C 0.699219 0.582031 0.644531 0.546875 0.601562 0.507812 C 0.609375 0.507812 0.609375 0.515625 0.609375 0.523438 C 0.570312 0.46875 0.515625 0.351562 0.507812 0.332031 C 0.488281 0.25 0.480469 0.15625 0.488281 0.0742188 C 0.488281 0.0078125 0.496094 -0.046875 0.507812 -0.109375 L 0.507812 -0.101562 C 0.496094 -0.0117188 0.488281 0.0742188 0.496094 0.167969 L 0.496094 0.203125 C 0.488281 0.195312 0.488281 0.191406 0.488281 0.191406 C 0.488281 0.191406 0.488281 0.195312 0.496094 0.210938 L 0.496094 0.214844 L 0.523438 0.359375 L 0.5 0.269531 C 0.515625 0.3125 0.546875 0.386719 0.582031 0.460938 L 0.574219 0.453125 C 0.574219 0.460938 0.582031 0.46875 0.589844 0.472656 Z M 0.777344 -1.769531 C 0.8125 -1.742188 0.875 -1.734375 0.933594 -1.726562 C 0.878906 -1.734375 0.832031 -1.746094 0.800781 -1.773438 C 0.800781 -1.773438 0.757812 -1.808594 0.75 -1.820312 C 0.75 -1.808594 0.765625 -1.773438 0.777344 -1.769531 Z M 1.492188 -1.238281 L 1.347656 -0.941406 L 1.492188 -1.246094 Z M 0.515625 -0.128906 C 0.515625 -0.121094 0.507812 -0.113281 0.507812 -0.109375 L 0.507812 -0.113281 C 0.507812 -0.121094 0.515625 -0.121094 0.515625 -0.128906 Z M 1.496094 -1.261719 L 1.496094 -1.253906 L 1.492188 -1.253906 Z M 1.496094 -1.261719 L 1.496094 -1.253906 L 1.492188 -1.253906 Z M 0.523438 -0.214844 C 0.523438 -0.222656 0.527344 -0.230469 0.527344 -0.242188 C 0.527344 -0.230469 0.523438 -0.222656 0.523438 -0.214844 Z M 0.546875 0.40625 C 0.546875 0.40625 0.554688 0.414062 0.554688 0.421875 C 0.554688 0.414062 0.546875 0.414062 0.546875 0.40625 Z M 0.757812 -1.835938 C 0.75 -1.835938 0.75 -1.828125 0.75 -1.828125 Z M 0.757812 -1.835938 "/></g></g></g><g fill="#000000" fill-opacity="1"><g transform="translate(16.875464, 12.527295)"><g><path d="M 1.773438 -1.667969 C 1.761719 -1.753906 1.667969 -1.726562 1.617188 -1.695312 C 1.558594 -1.652344 1.21875 -1.207031 1.246094 -1.171875 C 1.265625 -1.171875 1.28125 -1.171875 1.292969 -1.183594 C 1.199219 -1.070312 1.023438 -0.941406 0.894531 -0.839844 C 0.820312 -0.777344 0.636719 -0.609375 0.527344 -0.664062 C 0.296875 -0.777344 0.765625 -1.59375 0.746094 -1.597656 C 0.726562 -1.605469 0.554688 -1.226562 0.523438 -1.136719 C 0.601562 -1.375 0.710938 -1.613281 0.839844 -1.820312 C 0.832031 -1.800781 0.8125 -1.769531 0.828125 -1.769531 C 0.839844 -1.761719 0.941406 -1.902344 0.921875 -1.917969 C 0.914062 -1.917969 0.902344 -1.917969 0.894531 -1.910156 C 0.914062 -1.929688 0.949219 -1.9375 0.949219 -1.976562 C 0.949219 -2.046875 0.792969 -2.113281 0.738281 -2.132812 C 0.609375 -2.1875 0.480469 -2.203125 0.378906 -2.132812 C 0.242188 -2.050781 0.214844 -1.890625 0.164062 -1.746094 C 0.148438 -1.707031 0.0195312 -1.226562 0.046875 -1.21875 C 0.0625 -1.226562 0.0625 -1.234375 0.0664062 -1.246094 L 0.046875 -1.125 C 0.0390625 -1.125 0.0546875 -1.160156 0.0390625 -1.160156 C -0.0117188 -1.160156 0 -0.914062 0.0078125 -0.878906 C 0.0351562 -0.757812 0.128906 -0.671875 0.203125 -0.570312 C 0.242188 -0.507812 0.285156 -0.445312 0.34375 -0.40625 C 0.425781 -0.34375 0.371094 -0.40625 0.425781 -0.378906 L 0.414062 -0.378906 C 0.40625 -0.339844 0.664062 -0.269531 0.71875 -0.277344 C 0.957031 -0.332031 1.125 -0.625 1.261719 -0.804688 C 1.390625 -0.96875 1.496094 -1.132812 1.613281 -1.300781 C 1.679688 -1.390625 1.800781 -1.539062 1.773438 -1.667969 Z M 0.589844 -2.519531 C 0.601562 -2.5 0.582031 -2.472656 0.628906 -2.445312 C 0.675781 -2.425781 0.703125 -2.453125 0.746094 -2.464844 C 0.828125 -2.5 0.886719 -2.585938 0.949219 -2.640625 C 0.96875 -2.65625 0.929688 -2.648438 0.929688 -2.648438 C 1.015625 -2.730469 0.941406 -2.636719 1.023438 -2.683594 C 1.105469 -2.738281 1.117188 -2.824219 1.183594 -2.898438 C 1.105469 -2.867188 1.042969 -2.816406 0.988281 -2.75 C 0.921875 -2.664062 0.875 -2.621094 0.800781 -2.574219 C 0.878906 -2.636719 0.921875 -2.695312 0.988281 -2.804688 C 1.007812 -2.824219 1.03125 -2.839844 1.058594 -2.851562 C 1.035156 -2.871094 1.035156 -2.894531 1.0625 -2.914062 C 1.082031 -2.945312 1.125 -2.960938 1.144531 -2.996094 C 1.179688 -3.042969 1.171875 -3.101562 1.210938 -3.148438 C 1.246094 -3.175781 1.292969 -3.199219 1.320312 -3.222656 C 1.382812 -3.277344 1.449219 -3.378906 1.421875 -3.46875 C 1.394531 -3.550781 1.328125 -3.652344 1.253906 -3.699219 C 1.164062 -3.746094 1.042969 -3.765625 0.949219 -3.726562 C 0.929688 -3.71875 0.847656 -3.699219 0.875 -3.671875 C 0.878906 -3.65625 0.886719 -3.65625 0.902344 -3.65625 C 0.839844 -3.609375 0.738281 -3.53125 0.878906 -3.476562 C 0.867188 -3.460938 0.878906 -3.402344 0.878906 -3.394531 C 0.875 -3.347656 0.777344 -3.097656 0.71875 -2.972656 L 0.800781 -3.097656 C 0.75 -2.996094 0.699219 -2.898438 0.636719 -2.816406 C 0.675781 -2.90625 0.597656 -2.804688 0.597656 -2.785156 C 0.523438 -2.816406 0.542969 -2.609375 0.546875 -2.585938 C 0.546875 -2.582031 0.589844 -2.519531 0.589844 -2.519531 Z M 0.460938 -0.90625 L 0.460938 -0.902344 L 0.445312 -0.859375 L 0.460938 -0.914062 C 0.46875 -0.921875 0.46875 -0.921875 0.460938 -0.90625 Z M 0.683594 -2.917969 C 0.683594 -2.917969 0.699219 -2.933594 0.710938 -2.960938 Z M 0.617188 -2.789062 C 0.617188 -2.785156 0.617188 -2.785156 0.609375 -2.777344 C 0.609375 -2.777344 0.609375 -2.785156 0.601562 -2.785156 C 0.609375 -2.785156 0.609375 -2.785156 0.617188 -2.789062 Z M 0.617188 -2.789062 "/></g></g></g><g fill="#000000" fill-opacity="1"><g transform="translate(18.291285, 12.527295)"><g><path d="M 2.75 -3.523438 C 2.742188 -3.617188 2.640625 -3.542969 2.585938 -3.542969 C 2.316406 -3.53125 2.046875 -3.53125 1.78125 -3.515625 C 1.78125 -3.523438 1.796875 -3.550781 1.816406 -3.589844 C 1.789062 -3.542969 1.769531 -3.515625 1.746094 -3.515625 C 1.949219 -3.929688 2.167969 -4.34375 2.425781 -4.722656 C 2.417969 -4.707031 2.316406 -4.539062 2.324219 -4.539062 C 2.34375 -4.53125 2.59375 -4.878906 2.601562 -4.925781 C 2.601562 -4.953125 2.539062 -4.882812 2.539062 -4.890625 C 2.582031 -4.929688 2.648438 -4.964844 2.667969 -5.019531 C 2.714844 -5.15625 2.574219 -5.214844 2.472656 -5.238281 C 2.261719 -5.277344 2.027344 -5.25 1.890625 -5.074219 C 1.761719 -4.917969 1.667969 -4.734375 1.585938 -4.550781 C 1.542969 -4.472656 1.492188 -4.449219 1.4375 -4.375 C 1.355469 -4.261719 1.300781 -4.125 1.238281 -3.996094 C 1.183594 -3.882812 1.132812 -3.757812 1.082031 -3.636719 C 1.058594 -3.578125 1.058594 -3.53125 0.996094 -3.507812 C 0.933594 -3.480469 0.820312 -3.503906 0.75 -3.496094 C 0.488281 -3.460938 0.230469 -3.476562 -0.0351562 -3.449219 C -0.167969 -3.441406 -0.304688 -3.441406 -0.433594 -3.394531 C -0.460938 -3.386719 -0.609375 -3.351562 -0.625 -3.332031 C -0.664062 -3.257812 -0.5 -3.25 -0.46875 -3.246094 C -0.210938 -3.210938 0.113281 -3.183594 0.371094 -3.230469 C 0.546875 -3.265625 0.730469 -3.25 0.921875 -3.265625 C 0.828125 -3.0625 0.75 -2.84375 0.675781 -2.628906 L 0.597656 -2.390625 C 0.570312 -2.316406 0.480469 -2.175781 0.480469 -2.09375 C 0.480469 -2.078125 0.5 -2.113281 0.515625 -2.148438 C 0.480469 -2.046875 0.441406 -1.945312 0.414062 -1.84375 C 0.414062 -1.847656 0.433594 -1.929688 0.425781 -1.929688 C 0.394531 -1.929688 0.257812 -1.515625 0.242188 -1.484375 C 0.175781 -1.28125 0.101562 -1.078125 0.0664062 -0.859375 C 0.0273438 -0.644531 -0.0273438 -0.433594 -0.0742188 -0.222656 C -0.101562 -0.113281 -0.128906 -0.0117188 -0.140625 0.09375 C -0.15625 0.148438 -0.167969 0.210938 -0.167969 0.265625 C -0.167969 0.277344 -0.167969 0.367188 -0.15625 0.339844 L -0.167969 0.472656 L -0.167969 0.371094 C -0.210938 0.421875 -0.167969 0.636719 -0.164062 0.675781 C -0.136719 0.8125 -0.0664062 0.933594 0.0546875 1.015625 C 0.164062 1.097656 0.332031 1.171875 0.460938 1.109375 C 0.628906 1.03125 0.773438 0.839844 0.878906 0.703125 C 1.117188 0.425781 1.335938 0.136719 1.550781 -0.15625 C 1.746094 -0.425781 1.949219 -0.691406 2.121094 -0.976562 C 2.214844 -1.136719 2.398438 -1.285156 2.460938 -1.46875 C 2.492188 -1.558594 2.472656 -1.667969 2.363281 -1.644531 C 2.277344 -1.625 2.152344 -1.390625 2.101562 -1.320312 C 1.855469 -1.015625 1.625 -0.703125 1.382812 -0.398438 L 0.988281 0.0820312 C 0.929688 0.148438 0.867188 0.222656 0.800781 0.292969 C 0.773438 0.324219 0.601562 0.460938 0.609375 0.5 C 0.609375 0.515625 0.683594 0.453125 0.710938 0.433594 C 0.675781 0.472656 0.636719 0.507812 0.601562 0.542969 C 0.609375 0.535156 0.46875 0.617188 0.445312 0.601562 C 0.320312 0.546875 0.433594 0.15625 0.453125 0.0625 C 0.574219 -0.488281 0.757812 -1.042969 0.941406 -1.570312 C 1.050781 -1.863281 1.160156 -2.140625 1.28125 -2.425781 C 1.339844 -2.566406 1.402344 -2.714844 1.46875 -2.859375 L 1.566406 -3.117188 L 1.492188 -2.96875 C 1.539062 -3.089844 1.605469 -3.273438 1.644531 -3.277344 L 1.625 -3.238281 C 1.640625 -3.257812 1.652344 -3.273438 1.667969 -3.277344 C 1.742188 -3.324219 1.929688 -3.277344 2.019531 -3.277344 C 2.078125 -3.277344 2.152344 -3.273438 2.214844 -3.292969 C 2.253906 -3.304688 2.242188 -3.324219 2.289062 -3.339844 C 2.371094 -3.351562 2.472656 -3.300781 2.5625 -3.324219 C 2.640625 -3.347656 2.757812 -3.421875 2.75 -3.515625 Z M 1.464844 -3.128906 C 1.160156 -2.484375 0.929688 -1.796875 0.683594 -1.125 C 0.570312 -0.820312 0.460938 -0.5 0.386719 -0.183594 L 0.351562 -0.0546875 C 0.398438 -0.296875 0.453125 -0.535156 0.523438 -0.773438 C 0.671875 -1.292969 0.859375 -1.808594 1.082031 -2.304688 C 1.464844 -3.148438 1.800781 -4.058594 2.34375 -4.824219 C 1.976562 -4.300781 1.734375 -3.707031 1.464844 -3.128906 Z M 1.910156 -3.800781 L 2.074219 -4.113281 C 2.039062 -4.105469 1.976562 -3.957031 1.910156 -3.800781 Z M 1.210938 -2.324219 C 1.164062 -2.195312 1.109375 -2.074219 1.058594 -1.949219 C 1.109375 -2.078125 1.160156 -2.214844 1.21875 -2.351562 C 1.210938 -2.335938 1.210938 -2.332031 1.210938 -2.324219 Z M 1.820312 -3.605469 L 1.890625 -3.753906 C 1.871094 -3.699219 1.84375 -3.644531 1.820312 -3.605469 Z M 0.34375 0.664062 C 0.339844 0.664062 0.332031 0.65625 0.324219 0.648438 Z M 0.34375 0.664062 "/></g></g></g><g fill="#000000" fill-opacity="1"><g transform="translate(20.506465, 12.527295)"><g><path d="M 3.449219 -1.632812 C 3.441406 -1.78125 3.320312 -1.652344 3.277344 -1.597656 C 3.191406 -1.46875 3.109375 -1.335938 3.027344 -1.207031 C 2.84375 -0.929688 2.664062 -0.648438 2.453125 -0.386719 C 1.753906 0.472656 2.242188 -1.058594 2.1875 -1.042969 C 2.160156 -1.035156 2.140625 -0.933594 2.132812 -0.914062 C 2.1875 -1.160156 2.289062 -1.449219 2.417969 -1.6875 C 2.492188 -1.835938 2.582031 -1.957031 2.445312 -2.121094 C 2.195312 -2.425781 1.902344 -2.148438 1.742188 -1.9375 C 1.671875 -2.195312 1.539062 -2.574219 1.207031 -2.574219 C 1.058594 -2.574219 0.96875 -2.5 0.867188 -2.410156 C 0.804688 -2.371094 0.757812 -2.363281 0.703125 -2.316406 C 0.617188 -2.253906 0.554688 -2.160156 0.496094 -2.078125 C 0.265625 -1.742188 0.101562 -1.3125 0.0273438 -0.921875 C -0.0078125 -0.730469 -0.0195312 -0.523438 0.0351562 -0.332031 C 0.0664062 -0.222656 0.191406 0.0195312 0.34375 0 C 0.351562 0 0.339844 -0.0078125 0.320312 -0.0195312 C 0.414062 0.0078125 0.523438 -0.0078125 0.601562 -0.0625 C 0.609375 -0.046875 0.527344 -0.0117188 0.527344 -0.0117188 C 0.601562 0.101562 1.160156 -0.570312 1.199219 -0.628906 C 1.285156 -0.75 1.347656 -0.878906 1.429688 -1.007812 C 1.492188 -1.105469 1.585938 -1.226562 1.652344 -1.328125 C 1.644531 -1.28125 1.644531 -1.21875 1.644531 -1.21875 C 1.523438 -0.832031 1.410156 -0.414062 1.570312 -0.0117188 C 1.644531 0.191406 1.828125 0.378906 2.058594 0.339844 C 2.261719 0.304688 2.433594 0.109375 2.554688 -0.046875 C 2.703125 -0.222656 2.832031 -0.421875 2.960938 -0.625 C 3.070312 -0.804688 3.171875 -0.988281 3.257812 -1.191406 C 3.3125 -1.320312 3.460938 -1.476562 3.449219 -1.632812 Z M 1.503906 -1.585938 C 1.46875 -1.539062 1.4375 -1.492188 1.410156 -1.441406 L 1.234375 -1.191406 C 1.117188 -1.023438 0.996094 -0.859375 0.867188 -0.703125 C 0.832031 -0.65625 0.671875 -0.445312 0.601562 -0.46875 C 0.5 -0.5 0.609375 -0.855469 0.625 -0.90625 C 0.644531 -1.003906 1.003906 -2.046875 1.097656 -2.066406 C 0.976562 -2.074219 0.582031 -0.847656 0.5625 -0.746094 C 0.617188 -1.078125 0.738281 -1.402344 0.875 -1.707031 C 0.949219 -1.863281 1.117188 -2.277344 1.339844 -2.277344 C 1.464844 -2.277344 1.492188 -2.027344 1.511719 -1.945312 C 1.503906 -1.957031 1.441406 -2.152344 1.4375 -2.148438 C 1.402344 -2.121094 1.539062 -1.746094 1.539062 -1.695312 C 1.539062 -1.640625 1.539062 -1.640625 1.503906 -1.585938 Z M 1.660156 -1.253906 C 1.660156 -1.253906 1.679688 -1.347656 1.6875 -1.367188 L 1.71875 -1.414062 Z M 1.558594 -1.671875 L 1.558594 -1.742188 C 1.578125 -1.714844 1.578125 -1.695312 1.558594 -1.671875 Z M 1.558594 -1.671875 "/></g></g></g><g fill="#000000" fill-opacity="1"><g transform="translate(11.314734, 18.442764)"><g><path d="M 0.484375 -0.28125 C 0.503906 -0.238281 0.550781 -0.203125 0.625 -0.171875 C 0.695312 -0.148438 0.773438 -0.140625 0.859375 -0.140625 C 0.992188 -0.140625 1.09375 -0.164062 1.15625 -0.21875 C 1.21875 -0.269531 1.25 -0.34375 1.25 -0.4375 C 1.25 -0.5 1.226562 -0.550781 1.1875 -0.59375 C 1.144531 -0.632812 1.085938 -0.671875 1.015625 -0.703125 C 0.953125 -0.742188 0.851562 -0.789062 0.71875 -0.84375 C 0.539062 -0.914062 0.410156 -1 0.328125 -1.09375 C 0.242188 -1.1875 0.203125 -1.304688 0.203125 -1.453125 C 0.203125 -1.554688 0.234375 -1.644531 0.296875 -1.71875 C 0.359375 -1.800781 0.441406 -1.863281 0.546875 -1.90625 C 0.660156 -1.945312 0.78125 -1.96875 0.90625 -1.96875 C 1.019531 -1.96875 1.113281 -1.957031 1.1875 -1.9375 C 1.269531 -1.925781 1.332031 -1.910156 1.375 -1.890625 C 1.425781 -1.878906 1.460938 -1.867188 1.484375 -1.859375 L 1.484375 -1.4375 L 1.265625 -1.4375 L 1.203125 -1.6875 C 1.179688 -1.71875 1.140625 -1.742188 1.078125 -1.765625 C 1.023438 -1.785156 0.960938 -1.796875 0.890625 -1.796875 C 0.785156 -1.796875 0.703125 -1.769531 0.640625 -1.71875 C 0.578125 -1.675781 0.546875 -1.613281 0.546875 -1.53125 C 0.546875 -1.457031 0.5625 -1.398438 0.59375 -1.359375 C 0.625 -1.316406 0.664062 -1.28125 0.71875 -1.25 C 0.769531 -1.21875 0.835938 -1.1875 0.921875 -1.15625 L 1 -1.125 C 1.125 -1.070312 1.226562 -1.019531 1.3125 -0.96875 C 1.394531 -0.925781 1.460938 -0.867188 1.515625 -0.796875 C 1.566406 -0.722656 1.59375 -0.632812 1.59375 -0.53125 C 1.59375 -0.351562 1.523438 -0.210938 1.390625 -0.109375 C 1.265625 -0.015625 1.082031 0.03125 0.84375 0.03125 C 0.738281 0.03125 0.625 0.015625 0.5 -0.015625 C 0.375 -0.046875 0.269531 -0.078125 0.1875 -0.109375 L 0.1875 -0.546875 L 0.421875 -0.546875 Z M 0.484375 -0.28125 "/></g></g></g><g fill="#000000" fill-opacity="1"><g transform="translate(13.208951, 18.442764)"><g><path d="M 1.015625 0.03125 C 0.734375 0.03125 0.519531 -0.0546875 0.375 -0.234375 C 0.226562 -0.421875 0.15625 -0.664062 0.15625 -0.96875 C 0.15625 -1.164062 0.191406 -1.34375 0.265625 -1.5 C 0.335938 -1.65625 0.441406 -1.773438 0.578125 -1.859375 C 0.722656 -1.941406 0.878906 -1.984375 1.046875 -1.984375 C 1.265625 -1.984375 1.429688 -1.921875 1.546875 -1.796875 C 1.671875 -1.679688 1.738281 -1.507812 1.75 -1.28125 C 1.75 -1.144531 1.738281 -1.039062 1.71875 -0.96875 L 0.53125 -0.96875 C 0.53125 -0.738281 0.582031 -0.550781 0.6875 -0.40625 C 0.789062 -0.269531 0.9375 -0.203125 1.125 -0.203125 C 1.21875 -0.203125 1.3125 -0.21875 1.40625 -0.25 C 1.507812 -0.28125 1.585938 -0.320312 1.640625 -0.375 L 1.703125 -0.21875 C 1.640625 -0.144531 1.539062 -0.0820312 1.40625 -0.03125 C 1.28125 0.0078125 1.148438 0.03125 1.015625 0.03125 Z M 1.359375 -1.140625 C 1.367188 -1.191406 1.375 -1.242188 1.375 -1.296875 C 1.375 -1.441406 1.34375 -1.554688 1.28125 -1.640625 C 1.21875 -1.734375 1.117188 -1.78125 0.984375 -1.78125 C 0.847656 -1.78125 0.738281 -1.726562 0.65625 -1.625 C 0.582031 -1.53125 0.539062 -1.367188 0.53125 -1.140625 Z M 1.359375 -1.140625 "/></g></g></g><g fill="#000000" fill-opacity="1"><g transform="translate(15.238717, 18.442764)"><g><path d="M 0.15625 -0.171875 L 0.359375 -0.203125 L 0.359375 -1.65625 L 0.109375 -1.71875 L 0.109375 -1.90625 L 0.609375 -1.96875 L 0.671875 -1.921875 L 0.6875 -1.78125 L 0.6875 -1.671875 C 0.769531 -1.742188 0.878906 -1.8125 1.015625 -1.875 C 1.160156 -1.9375 1.285156 -1.96875 1.390625 -1.96875 C 1.515625 -1.96875 1.613281 -1.945312 1.6875 -1.90625 C 1.769531 -1.863281 1.832031 -1.800781 1.875 -1.71875 C 1.945312 -1.78125 2.050781 -1.835938 2.1875 -1.890625 C 2.320312 -1.941406 2.445312 -1.96875 2.5625 -1.96875 C 2.695312 -1.96875 2.804688 -1.941406 2.890625 -1.890625 C 2.972656 -1.835938 3.03125 -1.753906 3.0625 -1.640625 C 3.09375 -1.523438 3.109375 -1.367188 3.109375 -1.171875 L 3.109375 -0.203125 L 3.359375 -0.171875 L 3.359375 0 L 2.546875 0 L 2.546875 -0.171875 L 2.75 -0.203125 L 2.75 -1.171875 C 2.75 -1.296875 2.738281 -1.398438 2.71875 -1.484375 C 2.695312 -1.566406 2.660156 -1.625 2.609375 -1.65625 C 2.554688 -1.695312 2.476562 -1.71875 2.375 -1.71875 C 2.300781 -1.71875 2.222656 -1.703125 2.140625 -1.671875 C 2.054688 -1.640625 1.984375 -1.597656 1.921875 -1.546875 C 1.941406 -1.460938 1.953125 -1.335938 1.953125 -1.171875 L 1.953125 -0.203125 L 2.203125 -0.171875 L 2.203125 0 L 1.359375 0 L 1.359375 -0.171875 L 1.578125 -0.203125 L 1.578125 -1.171875 C 1.578125 -1.304688 1.566406 -1.410156 1.546875 -1.484375 C 1.535156 -1.566406 1.503906 -1.625 1.453125 -1.65625 C 1.410156 -1.695312 1.335938 -1.71875 1.234375 -1.71875 C 1.148438 -1.71875 1.0625 -1.695312 0.96875 -1.65625 C 0.875 -1.613281 0.796875 -1.566406 0.734375 -1.515625 L 0.734375 -0.203125 L 0.953125 -0.171875 L 0.953125 0 L 0.15625 0 Z M 0.15625 -0.171875 "/></g></g></g><g fill="#000000" fill-opacity="1"><g transform="translate(6.743954, 23.076902)"><g><path d="M 0.4375 -1.703125 L 0.109375 -1.703125 L 0.109375 -1.859375 L 0.4375 -1.921875 L 0.4375 -2.078125 C 0.4375 -2.222656 0.472656 -2.351562 0.546875 -2.46875 C 0.617188 -2.59375 0.710938 -2.691406 0.828125 -2.765625 C 0.953125 -2.835938 1.085938 -2.875 1.234375 -2.875 C 1.304688 -2.875 1.375 -2.863281 1.4375 -2.84375 L 1.4375 -2.5 C 1.414062 -2.507812 1.375 -2.523438 1.3125 -2.546875 C 1.25 -2.566406 1.179688 -2.578125 1.109375 -2.578125 C 0.992188 -2.578125 0.910156 -2.546875 0.859375 -2.484375 C 0.816406 -2.429688 0.796875 -2.335938 0.796875 -2.203125 L 0.796875 -1.921875 L 1.265625 -1.921875 L 1.265625 -1.703125 L 0.796875 -1.703125 L 0.796875 -0.203125 L 1.171875 -0.171875 L 1.171875 0 L 0.140625 0 L 0.140625 -0.171875 L 0.4375 -0.203125 Z M 0.4375 -1.703125 "/></g></g></g><g fill="#000000" fill-opacity="1"><g transform="translate(8.273229, 23.076902)"><g><path d="M 0.15625 -0.171875 L 0.421875 -0.1875 L 0.421875 -1.65625 L 0.171875 -1.71875 L 0.171875 -1.90625 L 0.65625 -1.96875 L 0.734375 -1.90625 L 0.734375 -1.84375 L 0.71875 -1.578125 L 0.734375 -1.578125 C 0.753906 -1.617188 0.796875 -1.671875 0.859375 -1.734375 C 0.921875 -1.796875 1 -1.851562 1.09375 -1.90625 C 1.1875 -1.957031 1.289062 -1.984375 1.40625 -1.984375 C 1.445312 -1.984375 1.484375 -1.972656 1.515625 -1.953125 L 1.515625 -1.578125 C 1.492188 -1.585938 1.46875 -1.597656 1.4375 -1.609375 C 1.40625 -1.617188 1.363281 -1.625 1.3125 -1.625 C 1.125 -1.625 0.945312 -1.5625 0.78125 -1.4375 L 0.78125 -0.1875 L 1.21875 -0.171875 L 1.21875 0 L 0.15625 0 Z M 0.15625 -0.171875 "/></g></g></g><g fill="#000000" fill-opacity="1"><g transform="translate(10.004089, 23.076902)"><g><path d="M 0.15625 -0.96875 C 0.15625 -1.175781 0.195312 -1.351562 0.28125 -1.5 C 0.363281 -1.65625 0.472656 -1.773438 0.609375 -1.859375 C 0.753906 -1.941406 0.910156 -1.984375 1.078125 -1.984375 C 1.367188 -1.984375 1.585938 -1.890625 1.734375 -1.703125 C 1.878906 -1.515625 1.953125 -1.269531 1.953125 -0.96875 C 1.953125 -0.757812 1.90625 -0.578125 1.8125 -0.421875 C 1.726562 -0.273438 1.613281 -0.160156 1.46875 -0.078125 C 1.332031 -0.00390625 1.1875 0.03125 1.03125 0.03125 C 0.738281 0.03125 0.519531 -0.0546875 0.375 -0.234375 C 0.226562 -0.421875 0.15625 -0.664062 0.15625 -0.96875 Z M 1.046875 -0.15625 C 1.210938 -0.15625 1.335938 -0.222656 1.421875 -0.359375 C 1.503906 -0.492188 1.546875 -0.6875 1.546875 -0.9375 C 1.546875 -1.195312 1.503906 -1.398438 1.421875 -1.546875 C 1.347656 -1.703125 1.222656 -1.78125 1.046875 -1.78125 C 0.890625 -1.78125 0.769531 -1.710938 0.6875 -1.578125 C 0.601562 -1.453125 0.5625 -1.257812 0.5625 -1 C 0.5625 -0.738281 0.597656 -0.53125 0.671875 -0.375 C 0.753906 -0.226562 0.878906 -0.15625 1.046875 -0.15625 Z M 1.046875 -0.15625 "/></g></g></g><g fill="#000000" fill-opacity="1"><g transform="translate(12.256295, 23.076902)"><g><path d="M 0.359375 -1.65625 L 0.109375 -1.71875 L 0.109375 -1.90625 L 0.609375 -1.96875 L 0.625 -1.96875 L 0.6875 -1.90625 L 0.6875 -1.671875 C 0.769531 -1.753906 0.878906 -1.820312 1.015625 -1.875 C 1.148438 -1.9375 1.28125 -1.96875 1.40625 -1.96875 C 1.550781 -1.96875 1.664062 -1.9375 1.75 -1.875 C 1.832031 -1.820312 1.890625 -1.738281 1.921875 -1.625 C 1.953125 -1.507812 1.96875 -1.359375 1.96875 -1.171875 L 1.96875 -0.203125 L 2.203125 -0.171875 L 2.203125 0 L 1.390625 0 L 1.390625 -0.171875 L 1.609375 -0.203125 L 1.609375 -1.171875 C 1.609375 -1.304688 1.597656 -1.410156 1.578125 -1.484375 C 1.554688 -1.566406 1.519531 -1.625 1.46875 -1.65625 C 1.414062 -1.695312 1.34375 -1.71875 1.25 -1.71875 C 1.164062 -1.71875 1.078125 -1.695312 0.984375 -1.65625 C 0.890625 -1.613281 0.804688 -1.566406 0.734375 -1.515625 L 0.734375 -0.203125 L 0.96875 -0.171875 L 0.96875 0 L 0.140625 0 L 0.140625 -0.171875 L 0.359375 -0.203125 Z M 0.359375 -1.65625 "/></g></g></g><g fill="#000000" fill-opacity="1"><g transform="translate(14.703138, 23.076902)"><g><path d="M 0.75 0.03125 C 0.613281 0.03125 0.515625 0.00390625 0.453125 -0.046875 C 0.390625 -0.109375 0.359375 -0.210938 0.359375 -0.359375 L 0.359375 -1.703125 L 0.109375 -1.703125 L 0.109375 -1.859375 C 0.117188 -1.859375 0.148438 -1.863281 0.203125 -1.875 C 0.253906 -1.882812 0.289062 -1.898438 0.3125 -1.921875 C 0.351562 -1.941406 0.382812 -1.984375 0.40625 -2.046875 C 0.414062 -2.085938 0.429688 -2.15625 0.453125 -2.25 C 0.484375 -2.34375 0.503906 -2.398438 0.515625 -2.421875 L 0.71875 -2.421875 L 0.71875 -1.921875 L 1.296875 -1.921875 L 1.296875 -1.703125 L 0.71875 -1.703125 L 0.71875 -0.625 C 0.71875 -0.5 0.722656 -0.410156 0.734375 -0.359375 C 0.742188 -0.304688 0.757812 -0.269531 0.78125 -0.25 C 0.8125 -0.226562 0.859375 -0.21875 0.921875 -0.21875 C 0.984375 -0.21875 1.050781 -0.226562 1.125 -0.25 C 1.195312 -0.269531 1.253906 -0.285156 1.296875 -0.296875 L 1.359375 -0.140625 C 1.296875 -0.0976562 1.203125 -0.0546875 1.078125 -0.015625 C 0.960938 0.015625 0.851562 0.03125 0.75 0.03125 Z M 0.75 0.03125 "/></g></g></g><g fill="#000000" fill-opacity="1"><g transform="translate(16.256743, 23.076902)"><g><path d="M 1.015625 0.03125 C 0.734375 0.03125 0.519531 -0.0546875 0.375 -0.234375 C 0.226562 -0.421875 0.15625 -0.664062 0.15625 -0.96875 C 0.15625 -1.164062 0.191406 -1.34375 0.265625 -1.5 C 0.335938 -1.65625 0.441406 -1.773438 0.578125 -1.859375 C 0.722656 -1.941406 0.878906 -1.984375 1.046875 -1.984375 C 1.265625 -1.984375 1.429688 -1.921875 1.546875 -1.796875 C 1.671875 -1.679688 1.738281 -1.507812 1.75 -1.28125 C 1.75 -1.144531 1.738281 -1.039062 1.71875 -0.96875 L 0.53125 -0.96875 C 0.53125 -0.738281 0.582031 -0.550781 0.6875 -0.40625 C 0.789062 -0.269531 0.9375 -0.203125 1.125 -0.203125 C 1.21875 -0.203125 1.3125 -0.21875 1.40625 -0.25 C 1.507812 -0.28125 1.585938 -0.320312 1.640625 -0.375 L 1.703125 -0.21875 C 1.640625 -0.144531 1.539062 -0.0820312 1.40625 -0.03125 C 1.28125 0.0078125 1.148438 0.03125 1.015625 0.03125 Z M 1.359375 -1.140625 C 1.367188 -1.191406 1.375 -1.242188 1.375 -1.296875 C 1.375 -1.441406 1.34375 -1.554688 1.28125 -1.640625 C 1.21875 -1.734375 1.117188 -1.78125 0.984375 -1.78125 C 0.847656 -1.78125 0.738281 -1.726562 0.65625 -1.625 C 0.582031 -1.53125 0.539062 -1.367188 0.53125 -1.140625 Z M 1.359375 -1.140625 "/></g></g></g><g fill="#000000" fill-opacity="1"><g transform="translate(18.286509, 23.076902)"><g><path d="M 0.5625 -2.265625 C 0.488281 -2.265625 0.429688 -2.285156 0.390625 -2.328125 C 0.359375 -2.367188 0.34375 -2.425781 0.34375 -2.5 C 0.34375 -2.570312 0.363281 -2.628906 0.40625 -2.671875 C 0.457031 -2.722656 0.519531 -2.75 0.59375 -2.75 C 0.675781 -2.75 0.734375 -2.726562 0.765625 -2.6875 C 0.804688 -2.644531 0.828125 -2.59375 0.828125 -2.53125 C 0.828125 -2.445312 0.800781 -2.378906 0.75 -2.328125 C 0.707031 -2.285156 0.644531 -2.265625 0.5625 -2.265625 Z M 0.421875 -1.65625 L 0.15625 -1.71875 L 0.15625 -1.90625 L 0.703125 -1.96875 L 0.78125 -1.90625 L 0.78125 -0.203125 L 1.0625 -0.171875 L 1.0625 0 L 0.140625 0 L 0.140625 -0.171875 L 0.421875 -0.203125 Z M 0.421875 -1.65625 "/></g></g></g><g fill="#000000" fill-opacity="1"><g transform="translate(19.582918, 23.076902)"><g><path d="M 0.15625 -0.171875 L 0.421875 -0.1875 L 0.421875 -1.65625 L 0.171875 -1.71875 L 0.171875 -1.90625 L 0.65625 -1.96875 L 0.734375 -1.90625 L 0.734375 -1.84375 L 0.71875 -1.578125 L 0.734375 -1.578125 C 0.753906 -1.617188 0.796875 -1.671875 0.859375 -1.734375 C 0.921875 -1.796875 1 -1.851562 1.09375 -1.90625 C 1.1875 -1.957031 1.289062 -1.984375 1.40625 -1.984375 C 1.445312 -1.984375 1.484375 -1.972656 1.515625 -1.953125 L 1.515625 -1.578125 C 1.492188 -1.585938 1.46875 -1.597656 1.4375 -1.609375 C 1.40625 -1.617188 1.363281 -1.625 1.3125 -1.625 C 1.125 -1.625 0.945312 -1.5625 0.78125 -1.4375 L 0.78125 -0.1875 L 1.21875 -0.171875 L 1.21875 0 L 0.15625 0 Z M 0.15625 -0.171875 "/></g></g></g><g fill="#000000" fill-opacity="1"><g transform="translate(21.313778, 23.076902)"><g><path d="M 0.15625 -0.515625 C 0.15625 -0.734375 0.265625 -0.894531 0.484375 -1 C 0.703125 -1.101562 0.976562 -1.160156 1.3125 -1.171875 L 1.3125 -1.265625 C 1.3125 -1.367188 1.296875 -1.453125 1.265625 -1.515625 C 1.242188 -1.578125 1.203125 -1.625 1.140625 -1.65625 C 1.085938 -1.6875 1.007812 -1.703125 0.90625 -1.703125 C 0.789062 -1.703125 0.6875 -1.679688 0.59375 -1.640625 C 0.5 -1.609375 0.40625 -1.570312 0.3125 -1.53125 L 0.234375 -1.703125 C 0.265625 -1.734375 0.316406 -1.769531 0.390625 -1.8125 C 0.472656 -1.851562 0.566406 -1.890625 0.671875 -1.921875 C 0.785156 -1.953125 0.894531 -1.96875 1 -1.96875 C 1.15625 -1.96875 1.28125 -1.941406 1.375 -1.890625 C 1.476562 -1.847656 1.550781 -1.773438 1.59375 -1.671875 C 1.632812 -1.578125 1.65625 -1.445312 1.65625 -1.28125 L 1.65625 -0.171875 L 1.859375 -0.171875 L 1.859375 -0.015625 C 1.816406 -0.00390625 1.757812 0.00390625 1.6875 0.015625 C 1.613281 0.0234375 1.550781 0.03125 1.5 0.03125 C 1.4375 0.03125 1.390625 0.0195312 1.359375 0 C 1.335938 -0.0195312 1.328125 -0.0625 1.328125 -0.125 L 1.328125 -0.234375 C 1.265625 -0.171875 1.179688 -0.109375 1.078125 -0.046875 C 0.972656 0.00390625 0.859375 0.03125 0.734375 0.03125 C 0.566406 0.03125 0.425781 -0.015625 0.3125 -0.109375 C 0.207031 -0.203125 0.15625 -0.335938 0.15625 -0.515625 Z M 0.890625 -0.203125 C 0.941406 -0.203125 1.003906 -0.21875 1.078125 -0.25 C 1.160156 -0.289062 1.238281 -0.335938 1.3125 -0.390625 L 1.3125 -0.984375 C 1.050781 -0.984375 0.859375 -0.941406 0.734375 -0.859375 C 0.609375 -0.785156 0.546875 -0.6875 0.546875 -0.5625 C 0.546875 -0.4375 0.578125 -0.34375 0.640625 -0.28125 C 0.703125 -0.226562 0.785156 -0.203125 0.890625 -0.203125 Z M 0.890625 -0.203125 "/></g></g></g></svg>