<svg xmlns="http://www.w3.org/2000/svg" xmlns:xlink="http://www.w3.org/1999/xlink" width="40" zoomAndPan="magnify" viewBox="0 0 30 30.000001" height="40" preserveAspectRatio="xMidYMid meet" version="1.0"><defs><clipPath id="adfa769fc9"><path d="M 0.484375 0.144531 L 29.515625 0.144531 L 29.515625 29.03125 L 0.484375 29.03125 Z M 0.484375 0.144531 " clip-rule="nonzero"/></clipPath><clipPath id="3de9ff5eb8"><path d="M 15 0.144531 C 6.984375 0.144531 0.484375 6.644531 0.484375 14.660156 C 0.484375 22.679688 6.984375 29.175781 15 29.175781 C 23.015625 29.175781 29.515625 22.679688 29.515625 14.660156 C 29.515625 6.644531 23.015625 0.144531 15 0.144531 " clip-rule="nonzero"/></clipPath><clipPath id="abef4b176e"><path d="M 3.796875 3.976562 L 26.296875 3.976562 L 26.296875 26.476562 L 3.796875 26.476562 Z M 3.796875 3.976562 " clip-rule="nonzero"/></clipPath></defs><g clip-path="url(#adfa769fc9)"><g clip-path="url(#3de9ff5eb8)"><path fill="#dee2e6" d="M 0.484375 0.144531 L 29.515625 0.144531 L 29.515625 29.175781 L 0.484375 29.175781 Z M 0.484375 0.144531 " fill-opacity="1" fill-rule="nonzero"/></g></g><g clip-path="url(#abef4b176e)"><path fill="#343a40" d="M 25.792969 23.226562 C 25.792969 23.226562 25.792969 23.222656 25.792969 23.21875 L 25.132812 20.839844 L 24.230469 17.601562 L 22.164062 10.121094 C 22.164062 10.117188 22.160156 10.113281 22.160156 10.109375 L 21.667969 8.328125 C 21.65625 8.289062 21.628906 8.257812 21.589844 8.246094 C 21.550781 8.238281 20.652344 7.984375 19.765625 8.246094 C 18.875 8.507812 18.25 9.203125 18.222656 9.230469 C 18.21875 9.238281 18.214844 9.242188 18.210938 9.25 L 18.210938 8.507812 C 18.210938 8.460938 18.183594 8.417969 18.140625 8.398438 C 18.09375 8.378906 16.964844 7.890625 15.652344 7.890625 C 14.34375 7.890625 13.226562 8.375 13.179688 8.394531 C 13.144531 8.410156 13.121094 8.445312 13.113281 8.484375 L 13.113281 6.332031 C 13.113281 6.292969 13.09375 6.253906 13.058594 6.234375 C 13.03125 6.214844 12.363281 5.804688 11.285156 5.804688 C 10.207031 5.804688 9.539062 6.214844 9.511719 6.234375 C 9.496094 6.242188 9.484375 6.257812 9.472656 6.269531 L 9.472656 4.558594 C 9.472656 4.511719 9.449219 4.472656 9.410156 4.453125 C 9.371094 4.433594 8.4375 3.984375 7.644531 3.984375 C 6.851562 3.984375 5.917969 4.433594 5.878906 4.453125 C 5.839844 4.472656 5.816406 4.511719 5.816406 4.558594 L 5.816406 4.667969 C 5.804688 4.648438 5.785156 4.636719 5.765625 4.625 C 5.746094 4.617188 5.246094 4.390625 4.816406 4.390625 C 4.386719 4.390625 3.886719 4.617188 3.867188 4.625 C 3.824219 4.644531 3.796875 4.6875 3.796875 4.734375 L 3.796875 25.882812 C 3.796875 25.925781 3.820312 25.964844 3.855469 25.984375 C 3.878906 25.996094 4.382812 26.28125 4.816406 26.28125 C 5.25 26.28125 5.753906 25.996094 5.773438 25.984375 C 5.8125 25.964844 5.832031 25.925781 5.832031 25.882812 L 5.832031 25.769531 C 5.84375 25.789062 5.859375 25.804688 5.878906 25.8125 C 5.917969 25.832031 6.851562 26.28125 7.644531 26.28125 C 8.4375 26.28125 9.371094 25.832031 9.410156 25.8125 C 9.429688 25.804688 9.445312 25.785156 9.457031 25.765625 C 9.460938 25.800781 9.480469 25.835938 9.511719 25.851562 C 9.539062 25.871094 10.207031 26.28125 11.285156 26.28125 C 12.363281 26.28125 13.03125 25.871094 13.058594 25.851562 C 13.085938 25.835938 13.105469 25.808594 13.109375 25.773438 L 13.109375 25.859375 C 13.109375 25.90625 13.136719 25.949219 13.179688 25.96875 C 13.226562 25.988281 14.34375 26.472656 15.652344 26.472656 C 16.964844 26.472656 18.09375 25.984375 18.140625 25.964844 C 18.183594 25.945312 18.210938 25.902344 18.210938 25.855469 L 18.210938 24.003906 C 18.210938 24 18.210938 23.996094 18.210938 23.992188 L 18.210938 22.9375 C 18.210938 22.929688 18.210938 22.921875 18.210938 22.914062 L 18.207031 21.523438 L 18.207031 21.519531 L 18.203125 18.652344 L 18.210938 11.449219 C 18.210938 11.449219 18.210938 11.445312 18.210938 11.441406 L 18.210938 10.371094 C 18.210938 10.367188 18.210938 10.363281 18.210938 10.359375 L 18.210938 9.390625 L 18.523438 10.519531 C 18.519531 10.535156 18.523438 10.550781 18.527344 10.566406 L 19.019531 12.347656 C 19.019531 12.351562 19.019531 12.355469 19.023438 12.359375 L 20.78125 18.691406 L 21.40625 20.949219 L 21.976562 23.023438 C 21.976562 23.027344 21.980469 23.03125 21.980469 23.035156 L 22.472656 24.816406 C 22.476562 24.832031 22.484375 24.84375 22.492188 24.855469 L 22.820312 26.035156 C 22.832031 26.074219 22.863281 26.105469 22.898438 26.117188 C 22.925781 26.121094 23.316406 26.234375 23.839844 26.234375 C 24.105469 26.234375 24.410156 26.203125 24.714844 26.113281 C 25.601562 25.855469 26.238281 25.152344 26.265625 25.125 C 26.289062 25.09375 26.300781 25.050781 26.289062 25.011719 Z M 17.984375 25.777344 C 17.722656 25.882812 16.738281 26.238281 15.652344 26.238281 C 14.570312 26.238281 13.597656 25.882812 13.335938 25.78125 L 13.335938 24.589844 C 13.335938 24.574219 13.332031 24.554688 13.320312 24.539062 L 13.320312 24.160156 C 13.667969 24.292969 14.597656 24.605469 15.652344 24.605469 C 16.695312 24.605469 17.621094 24.300781 17.984375 24.164062 Z M 7.644531 4.21875 C 8.273438 4.21875 9.023438 4.535156 9.246094 4.632812 L 9.246094 6.542969 C 8.941406 6.414062 8.253906 6.148438 7.644531 6.148438 C 7.035156 6.148438 6.347656 6.414062 6.042969 6.542969 L 6.042969 4.632812 C 6.265625 4.53125 7.015625 4.21875 7.644531 4.21875 Z M 12.886719 24.152344 C 12.710938 24.246094 12.125 24.515625 11.285156 24.515625 C 10.441406 24.515625 9.855469 24.246094 9.683594 24.152344 L 9.683594 23.820312 C 9.949219 23.945312 10.511719 24.15625 11.285156 24.15625 C 12.058594 24.15625 12.621094 23.945312 12.886719 23.820312 Z M 12.886719 8.265625 C 12.621094 8.140625 12.058594 7.929688 11.285156 7.929688 C 10.511719 7.929688 9.949219 8.140625 9.683594 8.265625 L 9.683594 7.933594 C 9.855469 7.839844 10.441406 7.570312 11.285156 7.570312 C 12.125 7.570312 12.710938 7.839844 12.886719 7.933594 Z M 9.679688 8.523438 C 9.855469 8.433594 10.4375 8.160156 11.285156 8.160156 C 12.125 8.160156 12.710938 8.433594 12.886719 8.523438 L 12.886719 23.558594 C 12.710938 23.652344 12.128906 23.925781 11.285156 23.925781 C 10.441406 23.925781 9.855469 23.652344 9.679688 23.558594 Z M 12.886719 6.402344 L 12.886719 7.675781 C 12.621094 7.546875 12.058594 7.335938 11.285156 7.335938 C 10.511719 7.335938 9.949219 7.546875 9.683594 7.675781 L 9.683594 6.402344 C 9.855469 6.308594 10.441406 6.039062 11.285156 6.039062 C 12.125 6.039062 12.710938 6.308594 12.886719 6.402344 Z M 9.246094 24.011719 C 9.023438 24.109375 8.273438 24.425781 7.644531 24.425781 C 7.015625 24.425781 6.265625 24.109375 6.042969 24.011719 L 6.042969 20.621094 C 6.335938 20.683594 7.03125 20.820312 7.644531 20.820312 C 8.257812 20.820312 8.957031 20.683594 9.246094 20.621094 Z M 6.042969 6.796875 C 6.261719 6.699219 7.015625 6.382812 7.644531 6.382812 C 8.273438 6.382812 9.023438 6.699219 9.246094 6.796875 L 9.246094 10.1875 C 8.953125 10.125 8.257812 9.988281 7.644531 9.988281 C 7.03125 9.988281 6.332031 10.125 6.042969 10.1875 Z M 6.042969 13.832031 L 9.246094 13.832031 L 9.246094 16.980469 L 6.042969 16.980469 Z M 9.246094 13.597656 L 6.042969 13.597656 L 6.042969 10.425781 C 6.289062 10.371094 7.023438 10.21875 7.644531 10.21875 C 8.265625 10.21875 9 10.371094 9.246094 10.425781 Z M 6.042969 17.210938 L 9.246094 17.210938 L 9.246094 20.382812 C 9 20.4375 8.265625 20.589844 7.644531 20.589844 C 7.023438 20.589844 6.289062 20.4375 6.042969 20.382812 Z M 6.042969 25.632812 L 6.042969 24.265625 C 6.347656 24.398438 7.035156 24.660156 7.644531 24.660156 C 8.253906 24.660156 8.941406 24.394531 9.246094 24.265625 L 9.246094 25.632812 C 9.023438 25.730469 8.273438 26.046875 7.644531 26.046875 C 7.015625 26.046875 6.265625 25.730469 6.042969 25.632812 Z M 9.679688 24.410156 C 9.949219 24.539062 10.511719 24.75 11.285156 24.75 C 12.058594 24.75 12.621094 24.539062 12.886719 24.410156 L 12.886719 25.683594 C 12.710938 25.777344 12.128906 26.046875 11.285156 26.046875 C 10.441406 26.046875 9.855469 25.777344 9.679688 25.683594 Z M 13.320312 9.828125 C 13.332031 9.8125 13.335938 9.792969 13.335938 9.773438 L 13.335938 8.582031 C 13.597656 8.476562 14.570312 8.125 15.652344 8.125 C 16.738281 8.125 17.722656 8.480469 17.984375 8.585938 L 17.984375 10.199219 C 17.621094 10.0625 16.695312 9.757812 15.652344 9.757812 C 14.597656 9.757812 13.667969 10.070312 13.320312 10.203125 Z M 13.324219 21.605469 L 13.324219 20.894531 L 13.328125 20.125 L 13.328125 17.179688 L 13.324219 12.761719 C 13.332031 12.75 13.335938 12.730469 13.335938 12.714844 L 13.335938 11.523438 C 13.597656 11.421875 14.570312 11.066406 15.652344 11.066406 C 16.734375 11.066406 17.714844 11.421875 17.980469 11.527344 L 17.976562 17.179688 L 17.976562 20.125 L 17.980469 21.480469 L 17.980469 21.632812 L 17.984375 22.835938 C 17.714844 22.941406 16.734375 23.296875 15.652344 23.296875 C 14.570312 23.296875 13.597656 22.945312 13.335938 22.839844 L 13.335938 21.652344 C 13.335938 21.636719 13.332031 21.621094 13.324219 21.605469 Z M 17.980469 11.277344 C 17.621094 11.140625 16.695312 10.835938 15.652344 10.835938 C 14.613281 10.835938 13.691406 11.140625 13.335938 11.277344 L 13.335938 10.445312 C 13.597656 10.34375 14.570312 9.988281 15.652344 9.988281 C 16.734375 9.988281 17.71875 10.34375 17.984375 10.449219 Z M 15.652344 23.53125 C 16.695312 23.53125 17.621094 23.222656 17.980469 23.085938 L 17.984375 23.914062 C 17.71875 24.019531 16.734375 24.375 15.652344 24.375 C 14.570312 24.375 13.597656 24.019531 13.335938 23.917969 L 13.335938 23.089844 C 13.691406 23.226562 14.609375 23.53125 15.652344 23.53125 Z M 4.816406 4.625 C 5.113281 4.625 5.460938 4.753906 5.605469 4.8125 L 5.605469 5.574219 C 5.425781 5.519531 5.101562 5.441406 4.816406 5.441406 C 4.527344 5.441406 4.207031 5.519531 4.023438 5.574219 L 4.023438 4.8125 C 4.167969 4.753906 4.519531 4.625 4.816406 4.625 Z M 5.605469 5.816406 L 5.605469 24.632812 C 5.464844 24.691406 5.113281 24.828125 4.816406 24.828125 C 4.519531 24.828125 4.167969 24.691406 4.023438 24.632812 L 4.023438 5.816406 C 4.175781 5.769531 4.523438 5.671875 4.816406 5.671875 C 5.109375 5.671875 5.457031 5.769531 5.605469 5.816406 Z M 4.023438 25.8125 L 4.023438 24.882812 C 4.210938 24.953125 4.53125 25.058594 4.816406 25.058594 C 5.101562 25.058594 5.421875 24.957031 5.605469 24.882812 L 5.605469 25.8125 C 5.46875 25.882812 5.113281 26.046875 4.816406 26.046875 C 4.519531 26.046875 4.164062 25.882812 4.023438 25.8125 Z M 24.652344 25.890625 C 23.953125 26.097656 23.230469 25.957031 23.019531 25.90625 L 22.699219 24.75 C 22.695312 24.734375 22.6875 24.722656 22.679688 24.710938 L 22.582031 24.367188 C 22.75 24.398438 23.023438 24.441406 23.339844 24.441406 C 23.609375 24.441406 23.914062 24.410156 24.21875 24.320312 C 24.871094 24.128906 25.390625 23.699219 25.628906 23.472656 L 26.054688 25.011719 C 25.898438 25.167969 25.355469 25.683594 24.652344 25.890625 Z M 21.46875 8.457031 L 21.894531 9.996094 C 21.578125 9.933594 20.917969 9.847656 20.261719 10.039062 C 19.597656 10.234375 19.082031 10.671875 18.851562 10.890625 L 18.753906 10.546875 C 18.757812 10.53125 18.757812 10.515625 18.753906 10.5 L 18.433594 9.34375 C 18.585938 9.1875 19.125 8.675781 19.828125 8.472656 C 20.527344 8.265625 21.257812 8.40625 21.46875 8.457031 Z M 22.203125 22.957031 C 22.199219 22.945312 22.191406 22.933594 22.183594 22.921875 L 20.722656 17.625 L 19.25 12.335938 C 19.253906 12.324219 19.253906 12.308594 19.25 12.292969 L 18.929688 11.136719 C 19.082031 10.980469 19.621094 10.46875 20.324219 10.265625 C 21.019531 10.058594 21.75 10.199219 21.964844 10.25 L 23.753906 16.734375 L 24.015625 17.667969 L 24.253906 18.527344 L 24.90625 20.875 L 25.554688 23.21875 C 25.402344 23.378906 24.855469 23.894531 24.15625 24.097656 C 23.453125 24.304688 22.734375 24.164062 22.523438 24.113281 Z M 22.203125 22.957031 " fill-opacity="1" fill-rule="nonzero"/></g></svg>