<svg xmlns="http://www.w3.org/2000/svg" xmlns:xlink="http://www.w3.org/1999/xlink" width="243" zoomAndPan="magnify" viewBox="0 0 182.25 30.000001" height="40" preserveAspectRatio="xMidYMid meet" version="1.0"><defs><clipPath id="1c7e356d06"><path d="M 2.578125 0 L 33 0 L 33 29 L 2.578125 29 Z M 2.578125 0 " clip-rule="nonzero"/></clipPath><clipPath id="079e78da12"><path d="M 149 0 L 178.949219 0 L 178.949219 29 L 149 29 Z M 149 0 " clip-rule="nonzero"/></clipPath><clipPath id="078a0e0a70"><path d="M 148.476562 0 L 178.949219 0 L 178.949219 29 L 148.476562 29 Z M 148.476562 0 " clip-rule="nonzero"/></clipPath><clipPath id="5492c1f1dc"><path d="M 75.527344 0 L 106 0 L 106 29 L 75.527344 29 Z M 75.527344 0 " clip-rule="nonzero"/></clipPath><clipPath id="e645b6e981"><path d="M 112 0 L 142.484375 0 L 142.484375 29 L 112 29 Z M 112 0 " clip-rule="nonzero"/></clipPath><clipPath id="8cd1a34f56"><path d="M 39.050781 0 L 69 0 L 69 29 L 39.050781 29 Z M 39.050781 0 " clip-rule="nonzero"/></clipPath><clipPath id="8403d5ad67"><path d="M 39.050781 0 L 69.535156 0 L 69.535156 29 L 39.050781 29 Z M 39.050781 0 " clip-rule="nonzero"/></clipPath></defs><path fill="#ffd93d" d="M 19.691406 1.578125 L 22.597656 7.460938 C 22.898438 8.078125 23.488281 8.507812 24.167969 8.605469 L 30.664062 9.546875 C 32.375 9.796875 33.058594 11.902344 31.820312 13.109375 L 27.121094 17.6875 C 26.628906 18.167969 26.402344 18.859375 26.519531 19.535156 L 27.628906 26.003906 C 27.921875 27.707031 26.132812 29.007812 24.601562 28.203125 L 18.789062 25.152344 C 18.183594 24.832031 17.457031 24.832031 16.847656 25.152344 L 11.039062 28.203125 C 9.507812 29.007812 7.714844 27.707031 8.007812 26.003906 L 9.117188 19.535156 C 9.234375 18.859375 9.007812 18.167969 8.515625 17.6875 L 3.816406 13.109375 C 2.578125 11.902344 3.261719 9.796875 4.972656 9.546875 L 11.46875 8.605469 C 12.148438 8.503906 12.738281 8.078125 13.042969 7.460938 L 15.945312 1.578125 C 16.710938 0.0273438 18.925781 0.0273438 19.691406 1.578125 Z M 19.691406 1.578125 " fill-opacity="1" fill-rule="nonzero"/><g clip-path="url(#1c7e356d06)"><path fill="#ffd93d" d="M 10.0625 28.695312 C 9.582031 28.695312 9.101562 28.546875 8.691406 28.246094 C 7.964844 27.71875 7.609375 26.84375 7.757812 25.960938 L 8.867188 19.492188 C 8.972656 18.898438 8.773438 18.289062 8.339844 17.867188 L 3.640625 13.289062 C 3 12.664062 2.769531 11.742188 3.050781 10.890625 C 3.324219 10.039062 4.050781 9.429688 4.9375 9.300781 L 11.433594 8.355469 C 12.03125 8.269531 12.550781 7.894531 12.816406 7.351562 L 15.722656 1.46875 C 16.117188 0.664062 16.921875 0.164062 17.820312 0.164062 C 18.714844 0.164062 19.519531 0.664062 19.917969 1.46875 L 22.820312 7.351562 C 23.089844 7.894531 23.605469 8.269531 24.203125 8.355469 L 30.699219 9.300781 C 31.585938 9.429688 32.3125 10.039062 32.589844 10.890625 C 32.867188 11.742188 32.640625 12.664062 31.996094 13.289062 L 27.296875 17.867188 C 26.863281 18.289062 26.664062 18.898438 26.769531 19.492188 L 27.878906 25.960938 C 28.027344 26.84375 27.671875 27.71875 26.945312 28.246094 C 26.222656 28.773438 25.277344 28.84375 24.484375 28.425781 L 18.671875 25.371094 C 18.136719 25.089844 17.5 25.089844 16.964844 25.371094 L 11.15625 28.425781 C 10.808594 28.605469 10.4375 28.695312 10.0625 28.695312 Z M 17.820312 0.667969 C 17.105469 0.667969 16.488281 1.050781 16.171875 1.691406 L 13.265625 7.574219 C 12.925781 8.265625 12.265625 8.742188 11.503906 8.851562 L 5.007812 9.796875 C 4.300781 9.898438 3.75 10.367188 3.527344 11.046875 C 3.304688 11.726562 3.480469 12.429688 3.992188 12.929688 L 8.691406 17.507812 C 9.242188 18.046875 9.496094 18.820312 9.367188 19.578125 L 8.257812 26.046875 C 8.136719 26.75 8.40625 27.421875 8.988281 27.839844 C 9.566406 28.261719 10.289062 28.3125 10.921875 27.980469 L 16.730469 24.929688 C 17.410156 24.570312 18.226562 24.570312 18.90625 24.929688 L 24.71875 27.980469 C 25.351562 28.3125 26.074219 28.261719 26.652344 27.839844 C 27.230469 27.421875 27.503906 26.75 27.382812 26.046875 L 26.273438 19.578125 C 26.140625 18.820312 26.394531 18.046875 26.945312 17.507812 L 31.644531 12.929688 C 32.15625 12.429688 32.332031 11.726562 32.109375 11.046875 C 31.890625 10.367188 31.335938 9.898438 30.625 9.796875 L 24.132812 8.851562 C 23.367188 8.742188 22.710938 8.265625 22.371094 7.574219 L 19.464844 1.691406 C 19.148438 1.046875 18.53125 0.667969 17.816406 0.667969 Z M 17.820312 0.667969 " fill-opacity="1" fill-rule="nonzero"/></g><g clip-path="url(#079e78da12)"><path fill="#ffd93d" d="M 165.589844 1.578125 L 168.492188 7.460938 C 168.796875 8.078125 169.386719 8.507812 170.066406 8.605469 L 176.5625 9.546875 C 178.273438 9.796875 178.957031 11.902344 177.71875 13.109375 L 173.019531 17.6875 C 172.527344 18.167969 172.300781 18.859375 172.417969 19.535156 L 173.527344 26.003906 C 173.820312 27.707031 172.03125 29.007812 170.5 28.203125 L 164.6875 25.152344 C 164.082031 24.832031 163.355469 24.832031 162.746094 25.152344 L 156.9375 28.203125 C 155.402344 29.007812 153.613281 27.707031 153.90625 26.003906 L 155.015625 19.535156 C 155.132812 18.859375 154.90625 18.167969 154.414062 17.6875 L 149.714844 13.109375 C 148.476562 11.902344 149.160156 9.796875 150.871094 9.546875 L 157.367188 8.605469 C 158.046875 8.503906 158.636719 8.078125 158.9375 7.460938 L 161.84375 1.578125 C 162.609375 0.0273438 164.824219 0.0273438 165.589844 1.578125 Z M 165.589844 1.578125 " fill-opacity="1" fill-rule="nonzero"/></g><g clip-path="url(#078a0e0a70)"><path fill="#ffd93d" d="M 155.960938 28.695312 C 155.476562 28.695312 155 28.546875 154.589844 28.246094 C 153.863281 27.71875 153.507812 26.84375 153.65625 25.960938 L 154.765625 19.492188 C 154.871094 18.898438 154.671875 18.289062 154.238281 17.867188 L 149.539062 13.289062 C 148.898438 12.664062 148.667969 11.742188 148.945312 10.890625 C 149.222656 10.039062 149.949219 9.429688 150.835938 9.300781 L 157.332031 8.355469 C 157.929688 8.269531 158.445312 7.894531 158.714844 7.351562 L 161.617188 1.46875 C 162.015625 0.664062 162.820312 0.164062 163.714844 0.164062 C 164.613281 0.164062 165.417969 0.664062 165.816406 1.46875 L 168.71875 7.351562 C 168.988281 7.894531 169.503906 8.269531 170.101562 8.355469 L 176.597656 9.300781 C 177.484375 9.429688 178.210938 10.039062 178.488281 10.890625 C 178.765625 11.742188 178.535156 12.664062 177.894531 13.289062 L 173.195312 17.867188 C 172.761719 18.289062 172.5625 18.898438 172.667969 19.492188 L 173.777344 25.960938 C 173.925781 26.84375 173.570312 27.71875 172.84375 28.246094 C 172.121094 28.773438 171.175781 28.84375 170.382812 28.425781 L 164.570312 25.371094 C 164.035156 25.089844 163.398438 25.089844 162.863281 25.371094 L 157.054688 28.425781 C 156.707031 28.605469 156.332031 28.695312 155.960938 28.695312 Z M 163.714844 0.667969 C 163 0.667969 162.386719 1.050781 162.070312 1.691406 L 159.164062 7.574219 C 158.824219 8.265625 158.164062 8.742188 157.402344 8.851562 L 150.90625 9.796875 C 150.199219 9.898438 149.644531 10.367188 149.425781 11.046875 C 149.203125 11.726562 149.378906 12.429688 149.890625 12.929688 L 154.589844 17.507812 C 155.140625 18.046875 155.394531 18.820312 155.261719 19.578125 L 154.152344 26.046875 C 154.035156 26.75 154.304688 27.421875 154.882812 27.839844 C 155.464844 28.261719 156.1875 28.3125 156.820312 27.980469 L 162.628906 24.929688 C 163.308594 24.570312 164.125 24.570312 164.804688 24.929688 L 170.617188 27.980469 C 171.25 28.3125 171.972656 28.261719 172.550781 27.839844 C 173.128906 27.421875 173.402344 26.75 173.28125 26.046875 L 172.171875 19.578125 C 172.039062 18.820312 172.292969 18.046875 172.84375 17.507812 L 177.542969 12.929688 C 178.054688 12.429688 178.230469 11.726562 178.007812 11.046875 C 177.785156 10.367188 177.234375 9.898438 176.523438 9.796875 L 170.03125 8.851562 C 169.265625 8.742188 168.609375 8.265625 168.269531 7.574219 L 165.363281 1.691406 C 165.046875 1.046875 164.429688 0.667969 163.714844 0.667969 Z M 163.714844 0.667969 " fill-opacity="1" fill-rule="nonzero"/></g><path fill="#ffd93d" d="M 92.640625 1.578125 L 95.546875 7.460938 C 95.847656 8.078125 96.4375 8.507812 97.117188 8.605469 L 103.613281 9.546875 C 105.324219 9.796875 106.007812 11.902344 104.769531 13.109375 L 100.070312 17.6875 C 99.578125 18.167969 99.351562 18.859375 99.46875 19.535156 L 100.578125 26.003906 C 100.871094 27.707031 99.082031 29.007812 97.550781 28.203125 L 91.738281 25.152344 C 91.132812 24.832031 90.40625 24.832031 89.796875 25.152344 L 83.988281 28.203125 C 82.453125 29.007812 80.664062 27.707031 80.957031 26.003906 L 82.066406 19.535156 C 82.183594 18.859375 81.957031 18.167969 81.464844 17.6875 L 76.765625 13.109375 C 75.527344 11.902344 76.210938 9.796875 77.921875 9.546875 L 84.417969 8.605469 C 85.097656 8.503906 85.6875 8.078125 85.992188 7.460938 L 88.894531 1.578125 C 89.660156 0.0273438 91.875 0.0273438 92.640625 1.578125 Z M 92.640625 1.578125 " fill-opacity="1" fill-rule="nonzero"/><g clip-path="url(#5492c1f1dc)"><path fill="#ffd93d" d="M 83.011719 28.695312 C 82.527344 28.695312 82.050781 28.546875 81.640625 28.246094 C 80.914062 27.71875 80.558594 26.84375 80.707031 25.960938 L 81.816406 19.492188 C 81.921875 18.898438 81.722656 18.289062 81.289062 17.867188 L 76.589844 13.289062 C 75.949219 12.664062 75.71875 11.742188 76 10.890625 C 76.273438 10.039062 77 9.429688 77.886719 9.300781 L 84.382812 8.355469 C 84.980469 8.269531 85.496094 7.894531 85.765625 7.351562 L 88.671875 1.46875 C 89.066406 0.664062 89.871094 0.164062 90.769531 0.164062 C 91.664062 0.164062 92.46875 0.664062 92.867188 1.46875 L 95.769531 7.351562 C 96.039062 7.894531 96.554688 8.269531 97.152344 8.355469 L 103.648438 9.300781 C 104.535156 9.429688 105.261719 10.039062 105.539062 10.890625 C 105.816406 11.742188 105.585938 12.664062 104.945312 13.289062 L 100.246094 17.867188 C 99.8125 18.289062 99.613281 18.898438 99.71875 19.492188 L 100.828125 25.960938 C 100.976562 26.84375 100.621094 27.71875 99.894531 28.246094 C 99.171875 28.773438 98.226562 28.84375 97.433594 28.425781 L 91.621094 25.371094 C 91.085938 25.089844 90.449219 25.089844 89.914062 25.371094 L 84.105469 28.425781 C 83.757812 28.605469 83.382812 28.695312 83.011719 28.695312 Z M 90.769531 0.667969 C 90.054688 0.667969 89.4375 1.050781 89.121094 1.691406 L 86.214844 7.574219 C 85.875 8.265625 85.214844 8.742188 84.453125 8.851562 L 77.957031 9.796875 C 77.25 9.898438 76.699219 10.367188 76.476562 11.046875 C 76.253906 11.726562 76.429688 12.429688 76.941406 12.929688 L 81.640625 17.507812 C 82.191406 18.046875 82.445312 18.820312 82.3125 19.578125 L 81.203125 26.046875 C 81.085938 26.75 81.355469 27.421875 81.9375 27.839844 C 82.515625 28.261719 83.238281 28.3125 83.871094 27.980469 L 89.679688 24.929688 C 90.359375 24.570312 91.175781 24.570312 91.855469 24.929688 L 97.667969 27.980469 C 98.300781 28.3125 99.023438 28.261719 99.601562 27.839844 C 100.179688 27.421875 100.453125 26.75 100.332031 26.046875 L 99.222656 19.578125 C 99.089844 18.820312 99.34375 18.046875 99.894531 17.507812 L 104.59375 12.929688 C 105.105469 12.429688 105.28125 11.726562 105.058594 11.046875 C 104.839844 10.367188 104.285156 9.898438 103.574219 9.796875 L 97.082031 8.851562 C 96.316406 8.742188 95.660156 8.265625 95.320312 7.574219 L 92.414062 1.691406 C 92.097656 1.046875 91.480469 0.667969 90.765625 0.667969 Z M 90.769531 0.667969 " fill-opacity="1" fill-rule="nonzero"/></g><path fill="#ffd93d" d="M 129.113281 1.578125 L 132.019531 7.460938 C 132.324219 8.078125 132.910156 8.507812 133.589844 8.605469 L 140.085938 9.546875 C 141.800781 9.796875 142.484375 11.902344 141.246094 13.109375 L 136.542969 17.6875 C 136.050781 18.167969 135.828125 18.859375 135.945312 19.535156 L 137.054688 26.003906 C 137.347656 27.707031 135.554688 29.007812 134.023438 28.203125 L 128.214844 25.152344 C 127.605469 24.832031 126.878906 24.832031 126.269531 25.152344 L 120.460938 28.203125 C 118.929688 29.007812 117.140625 27.707031 117.429688 26.003906 L 118.542969 19.535156 C 118.65625 18.859375 118.433594 18.167969 117.941406 17.6875 L 113.238281 13.109375 C 112 11.902344 112.683594 9.796875 114.398438 9.546875 L 120.894531 8.605469 C 121.574219 8.503906 122.160156 8.078125 122.464844 7.460938 L 125.371094 1.578125 C 126.136719 0.0273438 128.347656 0.0273438 129.117188 1.578125 Z M 129.113281 1.578125 " fill-opacity="1" fill-rule="nonzero"/><g clip-path="url(#e645b6e981)"><path fill="#ffd93d" d="M 119.488281 28.695312 C 119.003906 28.695312 118.523438 28.546875 118.113281 28.246094 C 117.386719 27.71875 117.03125 26.84375 117.183594 25.960938 L 118.292969 19.492188 C 118.394531 18.898438 118.195312 18.289062 117.765625 17.867188 L 113.0625 13.289062 C 112.421875 12.664062 112.195312 11.742188 112.472656 10.890625 C 112.75 10.039062 113.472656 9.429688 114.363281 9.300781 L 120.855469 8.355469 C 121.457031 8.269531 121.972656 7.894531 122.238281 7.351562 L 125.144531 1.46875 C 125.542969 0.664062 126.34375 0.164062 127.242188 0.164062 C 128.140625 0.164062 128.945312 0.664062 129.339844 1.46875 L 132.246094 7.351562 C 132.511719 7.894531 133.03125 8.269531 133.628906 8.355469 L 140.125 9.300781 C 141.011719 9.429688 141.734375 10.039062 142.011719 10.890625 C 142.289062 11.742188 142.0625 12.664062 141.417969 13.289062 L 136.71875 17.867188 C 136.285156 18.289062 136.089844 18.898438 136.191406 19.492188 L 137.300781 25.960938 C 137.453125 26.84375 137.097656 27.71875 136.371094 28.246094 C 135.644531 28.773438 134.699219 28.84375 133.90625 28.425781 L 128.097656 25.371094 C 127.5625 25.089844 126.921875 25.089844 126.386719 25.371094 L 120.578125 28.425781 C 120.234375 28.605469 119.859375 28.695312 119.488281 28.695312 Z M 127.242188 0.667969 C 126.527344 0.667969 125.910156 1.050781 125.59375 1.691406 L 122.691406 7.574219 C 122.347656 8.265625 121.691406 8.742188 120.929688 8.851562 L 114.433594 9.796875 C 113.726562 9.898438 113.171875 10.367188 112.949219 11.046875 C 112.730469 11.726562 112.902344 12.429688 113.414062 12.929688 L 118.117188 17.507812 C 118.667969 18.046875 118.917969 18.820312 118.789062 19.578125 L 117.679688 26.046875 C 117.558594 26.75 117.832031 27.421875 118.410156 27.839844 C 118.988281 28.261719 119.710938 28.3125 120.34375 27.980469 L 126.152344 24.929688 C 126.835938 24.570312 127.648438 24.570312 128.332031 24.929688 L 134.140625 27.980469 C 134.773438 28.3125 135.496094 28.261719 136.074219 27.839844 C 136.652344 27.421875 136.925781 26.75 136.804688 26.046875 L 135.695312 19.578125 C 135.566406 18.820312 135.816406 18.046875 136.367188 17.507812 L 141.070312 12.929688 C 141.582031 12.429688 141.753906 11.726562 141.535156 11.046875 C 141.3125 10.367188 140.757812 9.898438 140.050781 9.796875 L 133.554688 8.851562 C 132.792969 8.742188 132.132812 8.265625 131.792969 7.574219 L 128.886719 1.691406 C 128.574219 1.046875 127.957031 0.667969 127.242188 0.667969 Z M 127.242188 0.667969 " fill-opacity="1" fill-rule="nonzero"/></g><g clip-path="url(#8cd1a34f56)"><path fill="#ffd93d" d="M 56.164062 1.578125 L 59.070312 7.460938 C 59.375 8.078125 59.960938 8.507812 60.644531 8.605469 L 67.136719 9.546875 C 68.851562 9.796875 69.535156 11.902344 68.296875 13.109375 L 63.59375 17.6875 C 63.101562 18.167969 62.878906 18.859375 62.996094 19.535156 L 64.105469 26.003906 C 64.398438 27.707031 62.605469 29.007812 61.074219 28.203125 L 55.265625 25.152344 C 54.65625 24.832031 53.929688 24.832031 53.320312 25.152344 L 47.511719 28.203125 C 45.980469 29.007812 44.191406 27.707031 44.484375 26.003906 L 45.59375 19.535156 C 45.707031 18.859375 45.484375 18.167969 44.992188 17.6875 L 40.289062 13.109375 C 39.050781 11.902344 39.734375 9.796875 41.449219 9.546875 L 47.945312 8.605469 C 48.625 8.503906 49.210938 8.078125 49.515625 7.460938 L 52.421875 1.578125 C 53.1875 0.0273438 55.398438 0.0273438 56.167969 1.578125 Z M 56.164062 1.578125 " fill-opacity="1" fill-rule="nonzero"/></g><g clip-path="url(#8403d5ad67)"><path fill="#ffd93d" d="M 46.539062 28.695312 C 46.054688 28.695312 45.574219 28.546875 45.164062 28.246094 C 44.4375 27.71875 44.082031 26.84375 44.234375 25.960938 L 45.34375 19.492188 C 45.445312 18.898438 45.25 18.289062 44.816406 17.867188 L 40.117188 13.289062 C 39.472656 12.664062 39.246094 11.742188 39.523438 10.890625 C 39.800781 10.039062 40.523438 9.429688 41.414062 9.300781 L 47.90625 8.355469 C 48.507812 8.269531 49.023438 7.894531 49.289062 7.351562 L 52.195312 1.46875 C 52.59375 0.664062 53.394531 0.164062 54.292969 0.164062 C 55.191406 0.164062 55.996094 0.664062 56.390625 1.46875 L 59.296875 7.351562 C 59.5625 7.894531 60.082031 8.269531 60.679688 8.355469 L 67.175781 9.300781 C 68.0625 9.429688 68.785156 10.039062 69.0625 10.890625 C 69.339844 11.742188 69.113281 12.664062 68.472656 13.289062 L 63.769531 17.867188 C 63.335938 18.289062 63.140625 18.898438 63.242188 19.492188 L 64.351562 25.960938 C 64.503906 26.84375 64.148438 27.71875 63.421875 28.246094 C 62.695312 28.773438 61.75 28.84375 60.957031 28.425781 L 55.148438 25.371094 C 54.613281 25.089844 53.972656 25.089844 53.4375 25.371094 L 47.628906 28.425781 C 47.285156 28.605469 46.910156 28.695312 46.539062 28.695312 Z M 54.292969 0.667969 C 53.578125 0.667969 52.960938 1.050781 52.644531 1.691406 L 49.742188 7.574219 C 49.402344 8.265625 48.742188 8.742188 47.980469 8.851562 L 41.484375 9.796875 C 40.777344 9.898438 40.222656 10.367188 40 11.046875 C 39.78125 11.726562 39.953125 12.429688 40.464844 12.929688 L 45.167969 17.507812 C 45.71875 18.046875 45.96875 18.820312 45.839844 19.578125 L 44.730469 26.046875 C 44.609375 26.75 44.882812 27.421875 45.460938 27.839844 C 46.039062 28.261719 46.761719 28.3125 47.394531 27.980469 L 53.203125 24.929688 C 53.886719 24.570312 54.699219 24.570312 55.382812 24.929688 L 61.191406 27.980469 C 61.824219 28.3125 62.546875 28.261719 63.125 27.839844 C 63.703125 27.421875 63.976562 26.75 63.855469 26.046875 L 62.746094 19.578125 C 62.617188 18.820312 62.867188 18.046875 63.417969 17.507812 L 68.121094 12.929688 C 68.632812 12.429688 68.804688 11.726562 68.585938 11.046875 C 68.363281 10.367188 67.808594 9.898438 67.101562 9.796875 L 60.605469 8.851562 C 59.84375 8.742188 59.183594 8.265625 58.84375 7.574219 L 55.9375 1.691406 C 55.625 1.046875 55.007812 0.667969 54.292969 0.667969 Z M 54.292969 0.667969 " fill-opacity="1" fill-rule="nonzero"/></g></svg>