<svg xmlns="http://www.w3.org/2000/svg" xmlns:xlink="http://www.w3.org/1999/xlink" width="40" zoomAndPan="magnify" viewBox="0 0 30 30.000001" height="40" preserveAspectRatio="xMidYMid meet" version="1.0"><defs><clipPath id="890a69f78a"><path d="M 0.484375 0 L 29.515625 0 L 29.515625 28.886719 L 0.484375 28.886719 Z M 0.484375 0 " clip-rule="nonzero"/></clipPath><clipPath id="df5f89dc60"><path d="M 15 -0.144531 C 6.984375 -0.144531 0.484375 6.355469 0.484375 14.371094 C 0.484375 22.386719 6.984375 28.886719 15 28.886719 C 23.015625 28.886719 29.515625 22.386719 29.515625 14.371094 C 29.515625 6.355469 23.015625 -0.144531 15 -0.144531 " clip-rule="nonzero"/></clipPath><clipPath id="d0d6f29bdb"><path d="M 13 13 L 17 13 L 17 26.230469 L 13 26.230469 Z M 13 13 " clip-rule="nonzero"/></clipPath><clipPath id="57b704728b"><path d="M 5 10 L 14 10 L 14 26.230469 L 5 26.230469 Z M 5 10 " clip-rule="nonzero"/></clipPath><clipPath id="372c3a9b96"><path d="M 15 10 L 24.996094 10 L 24.996094 26 L 15 26 Z M 15 10 " clip-rule="nonzero"/></clipPath><clipPath id="e462b3b40c"><path d="M 15 10 L 24.996094 10 L 24.996094 26.230469 L 15 26.230469 Z M 15 10 " clip-rule="nonzero"/></clipPath><clipPath id="16fe952a13"><path d="M 13 13 L 17 13 L 17 26.230469 L 13 26.230469 Z M 13 13 " clip-rule="nonzero"/></clipPath><clipPath id="79584ad5ed"><path d="M 21 16 L 24.996094 16 L 24.996094 18 L 21 18 Z M 21 16 " clip-rule="nonzero"/></clipPath><clipPath id="81371676e5"><path d="M 21 15 L 24.996094 15 L 24.996094 18 L 21 18 Z M 21 15 " clip-rule="nonzero"/></clipPath><clipPath id="bbc468c695"><path d="M 21 17 L 24.996094 17 L 24.996094 18 L 21 18 Z M 21 17 " clip-rule="nonzero"/></clipPath><clipPath id="36198d7a0d"><path d="M 21 16 L 24.996094 16 L 24.996094 19 L 21 19 Z M 21 16 " clip-rule="nonzero"/></clipPath><clipPath id="f9b60b9f2b"><path d="M 21 17 L 24.996094 17 L 24.996094 19 L 21 19 Z M 21 17 " clip-rule="nonzero"/></clipPath><clipPath id="7d1751e950"><path d="M 21 17 L 24.996094 17 L 24.996094 20 L 21 20 Z M 21 17 " clip-rule="nonzero"/></clipPath><clipPath id="750bcda69b"><path d="M 4.671875 15 L 9 15 L 9 18 L 4.671875 18 Z M 4.671875 15 " clip-rule="nonzero"/></clipPath><clipPath id="656d56751c"><path d="M 4.671875 16 L 9 16 L 9 19 L 4.671875 19 Z M 4.671875 16 " clip-rule="nonzero"/></clipPath><clipPath id="33551b8a38"><path d="M 4.671875 17 L 8 17 L 8 19 L 4.671875 19 Z M 4.671875 17 " clip-rule="nonzero"/></clipPath><clipPath id="45e86bdd37"><path d="M 4.671875 17 L 8 17 L 8 20 L 4.671875 20 Z M 4.671875 17 " clip-rule="nonzero"/></clipPath></defs><g clip-path="url(#890a69f78a)"><g clip-path="url(#df5f89dc60)"><path fill="#adb5bd" d="M 0.484375 -0.144531 L 29.515625 -0.144531 L 29.515625 28.886719 L 0.484375 28.886719 Z M 0.484375 -0.144531 " fill-opacity="1" fill-rule="nonzero"/></g></g><path fill="#f8f9fa" d="M 20.5625 8.402344 C 20.5625 11.761719 18.664062 15.394531 14.9375 15.394531 C 11.25 15.394531 9.292969 11.761719 9.292969 8.402344 C 9.292969 5.039062 11.644531 2.316406 14.9375 2.316406 C 18.234375 2.316406 20.5625 5.039062 20.5625 8.402344 Z M 20.5625 8.402344 " fill-opacity="1" fill-rule="nonzero"/><path fill="#495057" d="M 14.9375 15.632812 C 11.121094 15.632812 9.0625 11.90625 9.0625 8.402344 C 9.0625 6.695312 9.648438 5.109375 10.710938 3.9375 C 11.796875 2.738281 13.300781 2.078125 14.9375 2.078125 C 18.277344 2.078125 20.792969 4.796875 20.792969 8.402344 C 20.792969 10.203125 20.261719 11.988281 19.335938 13.296875 C 18.253906 14.824219 16.734375 15.632812 14.9375 15.632812 Z M 14.9375 2.554688 C 11.851562 2.554688 9.527344 5.066406 9.527344 8.402344 C 9.527344 11.675781 11.421875 15.160156 14.9375 15.160156 C 18.480469 15.160156 20.332031 11.757812 20.332031 8.402344 C 20.332031 5.066406 18.011719 2.554688 14.9375 2.554688 Z M 14.9375 2.554688 " fill-opacity="1" fill-rule="nonzero"/><path fill="#f8f9fa" d="M 20.464844 7.222656 C 16.96875 8.496094 13.429688 5.066406 13.429688 5.066406 C 13.328125 7.753906 10.367188 7.9375 10.367188 7.9375 L 10.421875 9.777344 L 9.613281 10.761719 C 9.613281 10.761719 7.8125 5.382812 12.597656 2.828125 C 12.597656 2.828125 16.679688 0.828125 19.484375 4.738281 C 20.15625 5.671875 20.464844 7.222656 20.464844 7.222656 Z M 20.464844 7.222656 " fill-opacity="1" fill-rule="nonzero"/><path fill="#495057" d="M 9.613281 11 C 9.601562 11 9.585938 11 9.570312 10.996094 C 9.488281 10.980469 9.421875 10.921875 9.394531 10.839844 C 9.375 10.78125 8.929688 9.429688 9.082031 7.734375 C 9.222656 6.15625 9.925781 3.988281 12.492188 2.617188 C 12.542969 2.589844 13.605469 2.078125 15.035156 2.078125 C 16.328125 2.078125 18.179688 2.515625 19.671875 4.597656 C 20.367188 5.566406 20.679688 7.109375 20.691406 7.175781 C 20.714844 7.289062 20.652344 7.40625 20.542969 7.445312 C 20 7.644531 19.425781 7.742188 18.832031 7.742188 C 16.484375 7.742188 14.410156 6.214844 13.613281 5.542969 C 13.269531 7.5625 11.28125 8.042969 10.605469 8.148438 L 10.652344 9.769531 C 10.65625 9.828125 10.636719 9.886719 10.597656 9.929688 L 9.792969 10.914062 C 9.746094 10.96875 9.683594 11 9.613281 11 Z M 15.035156 2.550781 C 13.710938 2.550781 12.710938 3.035156 12.699219 3.039062 C 10.800781 4.054688 9.738281 5.644531 9.542969 7.757812 C 9.449219 8.816406 9.601562 9.746094 9.722656 10.261719 L 10.1875 9.695312 L 10.136719 7.945312 C 10.132812 7.816406 10.230469 7.710938 10.355469 7.703125 C 10.464844 7.695312 13.105469 7.496094 13.199219 5.054688 C 13.203125 4.964844 13.257812 4.882812 13.34375 4.847656 C 13.429688 4.8125 13.523438 4.832031 13.589844 4.894531 C 13.617188 4.917969 16.074219 7.269531 18.832031 7.269531 C 19.300781 7.269531 19.757812 7.199219 20.191406 7.066406 C 20.085938 6.625 19.789062 5.566406 19.296875 4.875 C 18.191406 3.335938 16.757812 2.550781 15.035156 2.550781 Z M 15.035156 2.550781 " fill-opacity="1" fill-rule="nonzero"/><path fill="#f8f9fa" d="M 7.414062 12.917969 L 7.414062 8.855469 C 7.414062 8.855469 12.988281 9.652344 14.828125 13.828125 L 14.828125 14.511719 L 7.414062 14.511719 Z M 7.414062 12.917969 " fill-opacity="1" fill-rule="nonzero"/><path fill="#495057" d="M 14.828125 14.75 L 7.414062 14.75 C 7.285156 14.75 7.183594 14.644531 7.183594 14.511719 L 7.183594 8.855469 C 7.183594 8.785156 7.210938 8.722656 7.261719 8.675781 C 7.3125 8.632812 7.378906 8.613281 7.445312 8.621094 C 7.679688 8.65625 13.167969 9.484375 15.039062 13.730469 C 15.054688 13.761719 15.058594 13.792969 15.058594 13.828125 L 15.058594 14.511719 C 15.058594 14.644531 14.957031 14.75 14.828125 14.75 Z M 7.648438 14.277344 L 14.597656 14.277344 L 14.597656 13.878906 C 13.039062 10.417969 8.753906 9.355469 7.648438 9.136719 Z M 7.648438 14.277344 " fill-opacity="1" fill-rule="nonzero"/><path fill="#f8f9fa" d="M 22.242188 12.917969 L 22.242188 8.855469 C 22.242188 8.855469 16.667969 9.652344 14.828125 13.828125 L 14.828125 14.511719 L 22.242188 14.511719 Z M 22.242188 12.917969 " fill-opacity="1" fill-rule="nonzero"/><path fill="#495057" d="M 22.242188 14.75 L 14.828125 14.75 C 14.699219 14.75 14.597656 14.644531 14.597656 14.511719 L 14.597656 13.828125 C 14.597656 13.792969 14.601562 13.761719 14.617188 13.730469 C 16.484375 9.484375 21.976562 8.65625 22.210938 8.621094 C 22.277344 8.613281 22.34375 8.632812 22.394531 8.675781 C 22.445312 8.722656 22.472656 8.785156 22.472656 8.855469 L 22.472656 14.511719 C 22.472656 14.644531 22.371094 14.75 22.242188 14.75 Z M 15.058594 14.277344 L 22.007812 14.277344 L 22.007812 9.136719 C 20.902344 9.359375 16.617188 10.421875 15.058594 13.878906 Z M 15.058594 14.277344 " fill-opacity="1" fill-rule="nonzero"/><path fill="#f8f9fa" d="M 6.660156 13.753906 L 6.660156 9.695312 C 6.660156 9.695312 12.789062 10.34375 14.8125 14.519531 L 14.8125 15.351562 L 6.660156 15.351562 Z M 6.660156 13.753906 " fill-opacity="1" fill-rule="nonzero"/><path fill="#495057" d="M 14.8125 15.589844 L 6.660156 15.589844 C 6.53125 15.589844 6.429688 15.480469 6.429688 15.351562 L 6.429688 9.695312 C 6.429688 9.625 6.457031 9.5625 6.503906 9.519531 C 6.554688 9.472656 6.617188 9.453125 6.683594 9.457031 C 6.941406 9.484375 12.964844 10.171875 15.019531 14.414062 C 15.035156 14.445312 15.042969 14.484375 15.042969 14.519531 L 15.042969 15.351562 C 15.042969 15.480469 14.9375 15.589844 14.8125 15.589844 Z M 6.890625 15.113281 L 14.578125 15.113281 L 14.578125 14.574219 C 12.847656 11.085938 8.054688 10.144531 6.890625 9.964844 Z M 6.890625 15.113281 " fill-opacity="1" fill-rule="nonzero"/><path fill="#f8f9fa" d="M 22.960938 13.753906 L 22.960938 9.695312 C 22.960938 9.695312 16.832031 10.34375 14.8125 14.519531 L 14.8125 15.351562 L 22.960938 15.351562 Z M 22.960938 13.753906 " fill-opacity="1" fill-rule="nonzero"/><path fill="#495057" d="M 22.960938 15.589844 L 14.8125 15.589844 C 14.683594 15.589844 14.578125 15.480469 14.578125 15.351562 L 14.578125 14.519531 C 14.578125 14.480469 14.585938 14.445312 14.601562 14.414062 C 16.65625 10.171875 22.683594 9.484375 22.9375 9.457031 C 23.003906 9.453125 23.070312 9.472656 23.117188 9.519531 C 23.167969 9.5625 23.195312 9.625 23.195312 9.695312 L 23.195312 15.351562 C 23.195312 15.480469 23.089844 15.589844 22.960938 15.589844 Z M 15.042969 15.113281 L 22.730469 15.113281 L 22.730469 9.964844 C 21.566406 10.144531 16.773438 11.085938 15.042969 14.574219 Z M 15.042969 15.113281 " fill-opacity="1" fill-rule="nonzero"/><path fill="#f8f9fa" d="M 13.730469 13.828125 L 15.890625 13.828125 L 15.890625 25.992188 L 13.730469 25.992188 Z M 13.730469 13.828125 " fill-opacity="1" fill-rule="nonzero"/><g clip-path="url(#d0d6f29bdb)"><path fill="#495057" d="M 15.890625 26.226562 L 13.730469 26.226562 C 13.601562 26.226562 13.5 26.121094 13.5 25.992188 L 13.5 13.828125 C 13.5 13.695312 13.601562 13.589844 13.730469 13.589844 L 15.890625 13.589844 C 16.019531 13.589844 16.121094 13.695312 16.121094 13.828125 L 16.121094 25.992188 C 16.121094 26.121094 16.019531 26.226562 15.890625 26.226562 Z M 13.964844 25.753906 L 15.660156 25.753906 L 15.660156 14.0625 L 13.964844 14.0625 Z M 13.964844 25.753906 " fill-opacity="1" fill-rule="nonzero"/></g><path fill="#f8f9fa" d="M 5.578125 10.910156 L 13.730469 13.828125 L 13.730469 25.992188 L 5.578125 22.640625 Z M 5.578125 10.910156 " fill-opacity="1" fill-rule="nonzero"/><g clip-path="url(#57b704728b)"><path fill="#495057" d="M 13.730469 26.226562 C 13.703125 26.226562 13.671875 26.222656 13.644531 26.210938 L 5.488281 22.859375 C 5.402344 22.824219 5.34375 22.738281 5.34375 22.640625 L 5.34375 10.910156 C 5.34375 10.832031 5.382812 10.757812 5.441406 10.714844 C 5.503906 10.671875 5.582031 10.660156 5.652344 10.683594 L 13.808594 13.605469 C 13.902344 13.636719 13.964844 13.726562 13.964844 13.828125 L 13.964844 25.992188 C 13.964844 26.070312 13.925781 26.140625 13.859375 26.1875 C 13.824219 26.214844 13.777344 26.226562 13.730469 26.226562 Z M 5.808594 22.480469 L 13.5 25.640625 L 13.5 13.996094 L 5.808594 11.242188 Z M 5.808594 22.480469 " fill-opacity="1" fill-rule="nonzero"/></g><g clip-path="url(#372c3a9b96)"><path fill="#f8f9fa" d="M 24.046875 12.289062 L 24.046875 10.910156 L 15.890625 13.828125 L 15.890625 25.992188 L 24.046875 22.640625 L 24.046875 13.828125 " fill-opacity="1" fill-rule="nonzero"/></g><g clip-path="url(#e462b3b40c)"><path fill="#495057" d="M 15.890625 26.226562 C 15.84375 26.226562 15.800781 26.214844 15.761719 26.1875 C 15.699219 26.140625 15.660156 26.070312 15.660156 25.992188 L 15.660156 13.828125 C 15.660156 13.726562 15.722656 13.636719 15.8125 13.605469 L 23.96875 10.683594 C 24.039062 10.660156 24.117188 10.671875 24.179688 10.714844 C 24.242188 10.757812 24.277344 10.832031 24.277344 10.910156 L 24.277344 12.289062 C 24.277344 12.417969 24.171875 12.523438 24.046875 12.523438 C 23.917969 12.523438 23.8125 12.417969 23.8125 12.289062 L 23.8125 11.242188 L 16.121094 13.996094 L 16.121094 25.640625 L 23.8125 22.480469 L 23.8125 13.828125 C 23.8125 13.695312 23.917969 13.589844 24.046875 13.589844 C 24.171875 13.589844 24.277344 13.695312 24.277344 13.828125 L 24.277344 22.640625 C 24.277344 22.738281 24.21875 22.824219 24.132812 22.859375 L 15.976562 26.210938 C 15.949219 26.222656 15.921875 26.226562 15.890625 26.226562 Z M 15.890625 26.226562 " fill-opacity="1" fill-rule="nonzero"/></g><path fill="#f8f9fa" d="M 13.730469 13.828125 L 15.890625 13.828125 L 15.890625 25.992188 L 13.730469 25.992188 Z M 13.730469 13.828125 " fill-opacity="1" fill-rule="nonzero"/><g clip-path="url(#16fe952a13)"><path fill="#495057" d="M 15.890625 26.226562 L 13.730469 26.226562 C 13.601562 26.226562 13.5 26.121094 13.5 25.992188 L 13.5 13.828125 C 13.5 13.695312 13.601562 13.589844 13.730469 13.589844 L 15.890625 13.589844 C 16.019531 13.589844 16.121094 13.695312 16.121094 13.828125 L 16.121094 25.992188 C 16.121094 26.121094 16.019531 26.226562 15.890625 26.226562 Z M 13.964844 25.753906 L 15.660156 25.753906 L 15.660156 14.0625 L 13.964844 14.0625 Z M 13.964844 25.753906 " fill-opacity="1" fill-rule="nonzero"/></g><g clip-path="url(#79584ad5ed)"><path fill="#f8f9fa" d="M 24.460938 16.632812 C 24.460938 16.878906 24.265625 17.078125 24.027344 17.078125 L 22.085938 17.078125 C 21.847656 17.078125 21.652344 16.878906 21.652344 16.632812 C 21.652344 16.390625 21.847656 16.191406 22.085938 16.191406 L 24.027344 16.191406 C 24.265625 16.191406 24.460938 16.390625 24.460938 16.632812 Z M 24.460938 16.632812 " fill-opacity="1" fill-rule="nonzero"/></g><g clip-path="url(#81371676e5)"><path fill="#495057" d="M 24.027344 17.3125 L 22.085938 17.3125 C 21.71875 17.3125 21.421875 17.007812 21.421875 16.632812 C 21.421875 16.261719 21.71875 15.957031 22.085938 15.957031 L 24.027344 15.957031 C 24.394531 15.957031 24.695312 16.261719 24.695312 16.632812 C 24.695312 17.007812 24.394531 17.3125 24.027344 17.3125 Z M 22.085938 16.429688 C 21.976562 16.429688 21.886719 16.519531 21.886719 16.632812 C 21.886719 16.746094 21.976562 16.839844 22.085938 16.839844 L 24.027344 16.839844 C 24.140625 16.839844 24.230469 16.746094 24.230469 16.632812 C 24.230469 16.519531 24.140625 16.429688 24.027344 16.429688 Z M 22.085938 16.429688 " fill-opacity="1" fill-rule="nonzero"/></g><g clip-path="url(#bbc468c695)"><path fill="#f8f9fa" d="M 24.628906 17.519531 C 24.628906 17.761719 24.433594 17.960938 24.195312 17.960938 L 22.253906 17.960938 C 22.015625 17.960938 21.820312 17.761719 21.820312 17.519531 C 21.820312 17.273438 22.015625 17.078125 22.253906 17.078125 L 24.195312 17.078125 C 24.433594 17.078125 24.628906 17.273438 24.628906 17.519531 Z M 24.628906 17.519531 " fill-opacity="1" fill-rule="nonzero"/></g><g clip-path="url(#36198d7a0d)"><path fill="#495057" d="M 24.195312 18.199219 L 22.253906 18.199219 C 21.886719 18.199219 21.585938 17.894531 21.585938 17.519531 C 21.585938 17.144531 21.886719 16.839844 22.253906 16.839844 L 24.195312 16.839844 C 24.5625 16.839844 24.859375 17.144531 24.859375 17.519531 C 24.859375 17.894531 24.5625 18.199219 24.195312 18.199219 Z M 22.253906 17.3125 C 22.140625 17.3125 22.050781 17.40625 22.050781 17.519531 C 22.050781 17.632812 22.140625 17.722656 22.253906 17.722656 L 24.195312 17.722656 C 24.304688 17.722656 24.398438 17.632812 24.398438 17.519531 C 24.398438 17.40625 24.304688 17.3125 24.195312 17.3125 Z M 22.253906 17.3125 " fill-opacity="1" fill-rule="nonzero"/></g><g clip-path="url(#f9b60b9f2b)"><path fill="#f8f9fa" d="M 24.75 18.402344 C 24.75 18.648438 24.554688 18.84375 24.316406 18.84375 L 22.375 18.84375 C 22.132812 18.84375 21.941406 18.648438 21.941406 18.402344 C 21.941406 18.160156 22.132812 17.960938 22.375 17.960938 L 24.316406 17.960938 C 24.554688 17.960938 24.75 18.160156 24.75 18.402344 Z M 24.75 18.402344 " fill-opacity="1" fill-rule="nonzero"/></g><g clip-path="url(#7d1751e950)"><path fill="#495057" d="M 24.316406 19.082031 L 22.375 19.082031 C 22.007812 19.082031 21.707031 18.777344 21.707031 18.402344 C 21.707031 18.027344 22.007812 17.722656 22.375 17.722656 L 24.316406 17.722656 C 24.683594 17.722656 24.980469 18.027344 24.980469 18.402344 C 24.980469 18.777344 24.683594 19.082031 24.316406 19.082031 Z M 22.375 18.199219 C 22.261719 18.199219 22.171875 18.289062 22.171875 18.402344 C 22.171875 18.515625 22.261719 18.609375 22.375 18.609375 L 24.316406 18.609375 C 24.425781 18.609375 24.515625 18.515625 24.515625 18.402344 C 24.515625 18.289062 24.425781 18.199219 24.316406 18.199219 Z M 22.375 18.199219 " fill-opacity="1" fill-rule="nonzero"/></g><path fill="#f8f9fa" d="M 5.203125 16.632812 C 5.203125 16.878906 5.398438 17.078125 5.636719 17.078125 L 7.582031 17.078125 C 7.820312 17.078125 8.011719 16.878906 8.011719 16.632812 C 8.011719 16.390625 7.820312 16.191406 7.582031 16.191406 L 5.636719 16.191406 C 5.398438 16.191406 5.203125 16.390625 5.203125 16.632812 Z M 5.203125 16.632812 " fill-opacity="1" fill-rule="nonzero"/><g clip-path="url(#750bcda69b)"><path fill="#495057" d="M 7.582031 17.3125 L 5.636719 17.3125 C 5.273438 17.3125 4.972656 17.007812 4.972656 16.632812 C 4.972656 16.261719 5.273438 15.957031 5.636719 15.957031 L 7.582031 15.957031 C 7.945312 15.957031 8.246094 16.261719 8.246094 16.632812 C 8.246094 17.007812 7.945312 17.3125 7.582031 17.3125 Z M 5.636719 16.429688 C 5.527344 16.429688 5.4375 16.519531 5.4375 16.632812 C 5.4375 16.746094 5.527344 16.839844 5.636719 16.839844 L 7.582031 16.839844 C 7.691406 16.839844 7.78125 16.746094 7.78125 16.632812 C 7.78125 16.519531 7.691406 16.429688 7.582031 16.429688 Z M 5.636719 16.429688 " fill-opacity="1" fill-rule="nonzero"/></g><path fill="#f8f9fa" d="M 5.039062 17.519531 C 5.039062 17.761719 5.230469 17.960938 5.472656 17.960938 L 7.414062 17.960938 C 7.652344 17.960938 7.847656 17.761719 7.847656 17.519531 C 7.847656 17.273438 7.652344 17.078125 7.414062 17.078125 L 5.472656 17.078125 C 5.230469 17.078125 5.039062 17.273438 5.039062 17.519531 Z M 5.039062 17.519531 " fill-opacity="1" fill-rule="nonzero"/><g clip-path="url(#656d56751c)"><path fill="#495057" d="M 7.414062 18.199219 L 5.472656 18.199219 C 5.105469 18.199219 4.804688 17.894531 4.804688 17.519531 C 4.804688 17.144531 5.105469 16.839844 5.472656 16.839844 L 7.414062 16.839844 C 7.78125 16.839844 8.078125 17.144531 8.078125 17.519531 C 8.078125 17.894531 7.78125 18.199219 7.414062 18.199219 Z M 5.472656 17.3125 C 5.359375 17.3125 5.269531 17.40625 5.269531 17.519531 C 5.269531 17.632812 5.359375 17.722656 5.472656 17.722656 L 7.414062 17.722656 C 7.523438 17.722656 7.613281 17.632812 7.613281 17.519531 C 7.613281 17.40625 7.523438 17.3125 7.414062 17.3125 Z M 5.472656 17.3125 " fill-opacity="1" fill-rule="nonzero"/></g><g clip-path="url(#33551b8a38)"><path fill="#f8f9fa" d="M 4.917969 18.402344 C 4.917969 18.648438 5.113281 18.84375 5.351562 18.84375 L 7.292969 18.84375 C 7.53125 18.84375 7.726562 18.648438 7.726562 18.402344 C 7.726562 18.160156 7.53125 17.960938 7.292969 17.960938 L 5.351562 17.960938 C 5.113281 17.960938 4.917969 18.160156 4.917969 18.402344 Z M 4.917969 18.402344 " fill-opacity="1" fill-rule="nonzero"/></g><g clip-path="url(#45e86bdd37)"><path fill="#495057" d="M 7.292969 19.082031 L 5.351562 19.082031 C 4.984375 19.082031 4.6875 18.777344 4.6875 18.402344 C 4.6875 18.027344 4.984375 17.722656 5.351562 17.722656 L 7.292969 17.722656 C 7.660156 17.722656 7.957031 18.027344 7.957031 18.402344 C 7.957031 18.777344 7.660156 19.082031 7.292969 19.082031 Z M 5.351562 18.199219 C 5.238281 18.199219 5.148438 18.289062 5.148438 18.402344 C 5.148438 18.515625 5.242188 18.609375 5.351562 18.609375 L 7.292969 18.609375 C 7.40625 18.609375 7.496094 18.515625 7.496094 18.402344 C 7.496094 18.289062 7.402344 18.199219 7.292969 18.199219 Z M 5.351562 18.199219 " fill-opacity="1" fill-rule="nonzero"/></g></svg>