<svg xmlns="http://www.w3.org/2000/svg" xmlns:xlink="http://www.w3.org/1999/xlink" width="40" zoomAndPan="magnify" viewBox="0 0 30 30.000001" height="40" preserveAspectRatio="xMidYMid meet" version="1.0"><defs><clipPath id="db5dc40e46"><path d="M 0.484375 0 L 29.515625 0 L 29.515625 29.03125 L 0.484375 29.03125 Z M 0.484375 0 " clip-rule="nonzero"/></clipPath><clipPath id="93225d9a57"><path d="M 15 0 C 6.984375 0 0.484375 6.5 0.484375 14.515625 C 0.484375 22.53125 6.984375 29.03125 15 29.03125 C 23.015625 29.03125 29.515625 22.53125 29.515625 14.515625 C 29.515625 6.5 23.015625 0 15 0 " clip-rule="nonzero"/></clipPath><clipPath id="ab034931fd"><path d="M 3.703125 2.359375 L 26.203125 2.359375 L 26.203125 27.035156 L 3.703125 27.035156 Z M 3.703125 2.359375 " clip-rule="nonzero"/></clipPath></defs><g clip-path="url(#db5dc40e46)"><g clip-path="url(#93225d9a57)"><path fill="#adb5bd" d="M 0.484375 0 L 29.515625 0 L 29.515625 29.03125 L 0.484375 29.03125 Z M 0.484375 0 " fill-opacity="1" fill-rule="nonzero"/></g></g><g clip-path="url(#ab034931fd)"><path fill="#f8f9fa" d="M 15.820312 26.152344 L 15.820312 3.238281 C 15.820312 2.753906 15.429688 2.359375 14.953125 2.359375 C 14.476562 2.359375 14.089844 2.753906 14.089844 3.238281 L 14.089844 26.152344 C 14.089844 26.640625 14.476562 27.035156 14.953125 27.035156 C 15.429688 27.035156 15.820312 26.640625 15.820312 26.152344 Z M 19.277344 21.746094 L 19.277344 7.644531 C 19.277344 7.160156 18.890625 6.765625 18.414062 6.765625 C 17.9375 6.765625 17.546875 7.160156 17.546875 7.644531 L 17.546875 21.746094 C 17.546875 22.234375 17.9375 22.628906 18.414062 22.628906 C 18.890625 22.628906 19.277344 22.234375 19.277344 21.746094 Z M 12.359375 21.746094 L 12.359375 7.644531 C 12.359375 7.160156 11.972656 6.765625 11.492188 6.765625 C 11.015625 6.765625 10.628906 7.160156 10.628906 7.644531 L 10.628906 21.746094 C 10.628906 22.234375 11.015625 22.628906 11.492188 22.628906 C 11.972656 22.628906 12.359375 22.234375 12.359375 21.746094 Z M 22.738281 19.101562 L 22.738281 10.289062 C 22.738281 9.804688 22.351562 9.410156 21.871094 9.410156 C 21.394531 9.410156 21.007812 9.804688 21.007812 10.289062 L 21.007812 19.101562 C 21.007812 19.589844 21.394531 19.984375 21.871094 19.984375 C 22.351562 19.984375 22.738281 19.589844 22.738281 19.101562 Z M 8.898438 19.101562 L 8.898438 10.289062 C 8.898438 9.804688 8.511719 9.410156 8.035156 9.410156 C 7.558594 9.410156 7.167969 9.804688 7.167969 10.289062 L 7.167969 19.101562 C 7.167969 19.589844 7.558594 19.984375 8.035156 19.984375 C 8.511719 19.984375 8.898438 19.589844 8.898438 19.101562 Z M 5.441406 17.339844 L 5.441406 12.050781 C 5.441406 11.566406 5.050781 11.171875 4.574219 11.171875 C 4.097656 11.171875 3.710938 11.566406 3.710938 12.050781 L 3.710938 17.339844 C 3.710938 17.828125 4.097656 18.222656 4.574219 18.222656 C 5.050781 18.222656 5.441406 17.828125 5.441406 17.339844 Z M 26.195312 17.339844 L 26.195312 12.050781 C 26.195312 11.566406 25.808594 11.171875 25.332031 11.171875 C 24.855469 11.171875 24.46875 11.566406 24.46875 12.050781 L 24.46875 17.339844 C 24.46875 17.828125 24.855469 18.222656 25.332031 18.222656 C 25.808594 18.222656 26.195312 17.828125 26.195312 17.339844 Z M 26.195312 17.339844 " fill-opacity="1" fill-rule="evenodd"/></g></svg>