<svg xmlns="http://www.w3.org/2000/svg" xmlns:xlink="http://www.w3.org/1999/xlink" width="60" zoomAndPan="magnify" viewBox="0 0 45 30.000001" height="40" preserveAspectRatio="xMidYMid meet" version="1.0"><defs><clipPath id="59f8072636"><path d="M 0.726562 0 L 44.273438 0 L 44.273438 29.03125 L 0.726562 29.03125 Z M 0.726562 0 " clip-rule="nonzero"/></clipPath><clipPath id="2765940636"><path d="M 4 0.433594 L 41 0.433594 L 41 2.609375 L 4 2.609375 Z M 4 0.433594 " clip-rule="nonzero"/></clipPath><clipPath id="498a2f6018"><path d="M 4 25.914062 L 41 25.914062 L 41 28.089844 L 4 28.089844 Z M 4 25.914062 " clip-rule="nonzero"/></clipPath><clipPath id="424717aa9c"><path d="M 4 13.28125 L 41 13.28125 L 41 15.457031 L 4 15.457031 Z M 4 13.28125 " clip-rule="nonzero"/></clipPath></defs><g clip-path="url(#59f8072636)"><path fill="#ffffff" d="M 0.726562 0 L 44.273438 0 L 44.273438 36.289062 L 0.726562 36.289062 Z M 0.726562 0 " fill-opacity="1" fill-rule="nonzero"/><path fill="#ffffff" d="M 0.726562 0 L 44.273438 0 L 44.273438 29.03125 L 0.726562 29.03125 Z M 0.726562 0 " fill-opacity="1" fill-rule="nonzero"/><path fill="#ffffff" d="M 0.726562 0 L 44.273438 0 L 44.273438 29.03125 L 0.726562 29.03125 Z M 0.726562 0 " fill-opacity="1" fill-rule="nonzero"/></g><g clip-path="url(#2765940636)"><path fill="#212529" d="M 39.726562 0.433594 L 5.273438 0.433594 C 4.59375 0.433594 4.042969 0.921875 4.042969 1.523438 C 4.042969 2.121094 4.59375 2.609375 5.273438 2.609375 L 39.726562 2.609375 C 40.40625 2.609375 40.957031 2.121094 40.957031 1.523438 C 40.957031 0.921875 40.40625 0.433594 39.726562 0.433594 Z M 39.726562 0.433594 " fill-opacity="1" fill-rule="nonzero"/></g><g clip-path="url(#498a2f6018)"><path fill="#212529" d="M 39.726562 25.914062 L 5.273438 25.914062 C 4.59375 25.914062 4.042969 26.398438 4.042969 27 C 4.042969 27.601562 4.59375 28.089844 5.273438 28.089844 L 39.726562 28.089844 C 40.40625 28.089844 40.957031 27.601562 40.957031 27 C 40.957031 26.398438 40.40625 25.914062 39.726562 25.914062 Z M 39.726562 25.914062 " fill-opacity="1" fill-rule="nonzero"/></g><g clip-path="url(#424717aa9c)"><path fill="#212529" d="M 39.726562 13.28125 L 5.273438 13.28125 C 4.59375 13.28125 4.042969 13.769531 4.042969 14.371094 C 4.042969 14.972656 4.59375 15.457031 5.273438 15.457031 L 39.726562 15.457031 C 40.40625 15.457031 40.957031 14.972656 40.957031 14.371094 C 40.957031 13.769531 40.40625 13.28125 39.726562 13.28125 Z M 39.726562 13.28125 " fill-opacity="1" fill-rule="nonzero"/></g></svg>