<svg xmlns="http://www.w3.org/2000/svg" xmlns:xlink="http://www.w3.org/1999/xlink" width="48" zoomAndPan="magnify" viewBox="0 0 36 36.000001" height="48" preserveAspectRatio="xMidYMid meet" version="1.0"><defs><clipPath id="7d120ea874"><path d="M 0.488281 0 L 35.511719 0 L 35.511719 35.027344 L 0.488281 35.027344 Z M 0.488281 0 " clip-rule="nonzero"/></clipPath></defs><g clip-path="url(#7d120ea874)"><path fill="#ffffff" d="M 0.488281 0 L 35.511719 0 L 35.511719 42.324219 L 0.488281 42.324219 Z M 0.488281 0 " fill-opacity="1" fill-rule="nonzero"/><path fill="#ffffff" d="M 0.488281 0 L 35.511719 0 L 35.511719 35.027344 L 0.488281 35.027344 Z M 0.488281 0 " fill-opacity="1" fill-rule="nonzero"/><path fill="#ffffff" d="M 0.488281 0 L 35.511719 0 L 35.511719 35.027344 L 0.488281 35.027344 Z M 0.488281 0 " fill-opacity="1" fill-rule="nonzero"/></g><path stroke-linecap="round" transform="matrix(0.722305, 0, 0, 0.72973, 3.989189, 7.151353)" fill="none" stroke-linejoin="miter" d="M 1.502177 1.5002 L 36.897774 1.5002 " stroke="#212529" stroke-width="3" stroke-opacity="1" stroke-miterlimit="4"/><path stroke-linecap="round" transform="matrix(0.722305, 0, 0, 0.72973, 3.989189, 25.540542)" fill="none" stroke-linejoin="miter" d="M 1.502177 1.502168 L 36.897774 1.502168 " stroke="#212529" stroke-width="3" stroke-opacity="1" stroke-miterlimit="4"/><path stroke-linecap="round" transform="matrix(0.722305, 0, 0, 0.72973, 3.989189, 16.418921)" fill="none" stroke-linejoin="miter" d="M 1.502177 1.497538 L 36.897774 1.497538 " stroke="#212529" stroke-width="3" stroke-opacity="1" stroke-miterlimit="4"/></svg>