<svg xmlns="http://www.w3.org/2000/svg" xmlns:xlink="http://www.w3.org/1999/xlink" width="40" zoomAndPan="magnify" viewBox="0 0 30 30.000001" height="40" preserveAspectRatio="xMidYMid meet" version="1.0"><defs><clipPath id="a656dc3855"><path d="M 0.484375 0.144531 L 29.515625 0.144531 L 29.515625 29.03125 L 0.484375 29.03125 Z M 0.484375 0.144531 " clip-rule="nonzero"/></clipPath><clipPath id="d6c84cd1d1"><path d="M 15 0.144531 C 6.984375 0.144531 0.484375 6.644531 0.484375 14.660156 C 0.484375 22.679688 6.984375 29.175781 15 29.175781 C 23.015625 29.175781 29.515625 22.679688 29.515625 14.660156 C 29.515625 6.644531 23.015625 0.144531 15 0.144531 " clip-rule="nonzero"/></clipPath><clipPath id="ecc173977e"><path d="M 8 4.152344 L 21 4.152344 L 21 25.925781 L 8 25.925781 Z M 8 4.152344 " clip-rule="nonzero"/></clipPath></defs><g clip-path="url(#a656dc3855)"><g clip-path="url(#d6c84cd1d1)"><path fill="#dee2e6" d="M 0.484375 0.144531 L 29.515625 0.144531 L 29.515625 29.175781 L 0.484375 29.175781 Z M 0.484375 0.144531 " fill-opacity="1" fill-rule="nonzero"/></g></g><g clip-path="url(#ecc173977e)"><path fill="#6c757d" d="M 14.269531 22.933594 C 15.523438 20.015625 15.203125 11.683594 15.4375 7.789062 C 16.734375 9.457031 21.144531 14.726562 18.792969 17.738281 C 18.386719 18.257812 18.082031 18.433594 17.71875 18.800781 C 18.203125 19.144531 19.113281 17.988281 19.398438 17.652344 C 19.75 17.242188 20.226562 16.363281 20.496094 15.707031 C 22.414062 11.015625 17.738281 8.640625 15.894531 6.050781 C 14.589844 4.214844 15.421875 4.15625 14.605469 4.191406 C 14.453125 4.519531 14.367188 5.574219 14.355469 5.925781 L 14.476562 11.441406 L 14.425781 17.199219 L 14.253906 19.546875 C 12.894531 19.414062 10.925781 19.664062 9.816406 20.46875 C 8.398438 21.507812 7.898438 23.203125 8.710938 24.242188 C 10.007812 25.917969 13.570312 24.570312 14.269531 22.933594 Z M 14.269531 22.933594 " fill-opacity="1" fill-rule="evenodd"/></g></svg>