<svg xmlns="http://www.w3.org/2000/svg" xmlns:xlink="http://www.w3.org/1999/xlink" width="40" zoomAndPan="magnify" viewBox="0 0 30 30.000001" height="40" preserveAspectRatio="xMidYMid meet" version="1.0"><defs><clipPath id="73613dabec"><path d="M 0.484375 0.144531 L 29.515625 0.144531 L 29.515625 29.03125 L 0.484375 29.03125 Z M 0.484375 0.144531 " clip-rule="nonzero"/></clipPath><clipPath id="87714be079"><path d="M 15 0.144531 C 6.984375 0.144531 0.484375 6.644531 0.484375 14.660156 C 0.484375 22.679688 6.984375 29.175781 15 29.175781 C 23.015625 29.175781 29.515625 22.679688 29.515625 14.660156 C 29.515625 6.644531 23.015625 0.144531 15 0.144531 " clip-rule="nonzero"/></clipPath><clipPath id="cc3dee7fea"><path d="M 2.363281 9 L 27.769531 9 L 27.769531 22.867188 L 2.363281 22.867188 Z M 2.363281 9 " clip-rule="nonzero"/></clipPath><clipPath id="1ccc38c57b"><path d="M 4 6.175781 L 26 6.175781 L 26 22 L 4 22 Z M 4 6.175781 " clip-rule="nonzero"/></clipPath></defs><g clip-path="url(#73613dabec)"><g clip-path="url(#87714be079)"><path fill="#adb5bd" d="M 0.484375 0.144531 L 29.515625 0.144531 L 29.515625 29.175781 L 0.484375 29.175781 Z M 0.484375 0.144531 " fill-opacity="1" fill-rule="nonzero"/></g></g><g clip-path="url(#cc3dee7fea)"><path fill="#e9ecef" d="M 26.246094 9.058594 L 26.242188 9.101562 L 25.296875 19.726562 L 25.253906 20.210938 L 24.777344 20.148438 L 24.421875 20.101562 C 23.707031 20.007812 23.007812 19.957031 22.335938 19.957031 C 19.105469 19.957031 17.140625 21.0625 16.257812 21.722656 L 15.066406 21.816406 L 15.0625 21.816406 L 13.871094 21.722656 C 12.988281 21.0625 11.023438 19.957031 7.792969 19.957031 C 7.125 19.957031 6.425781 20.007812 5.710938 20.101562 L 5.355469 20.148438 L 4.878906 20.210938 L 4.835938 19.726562 L 3.890625 9.101562 L 3.886719 9.058594 L 2.378906 9.058594 L 3.914062 21.09375 L 14.050781 22.867188 L 16.078125 22.867188 L 26.214844 21.09375 L 27.753906 9.058594 L 26.246094 9.058594 " fill-opacity="1" fill-rule="nonzero"/></g><g clip-path="url(#1ccc38c57b)"><path fill="#e9ecef" d="M 5.609375 8.417969 L 5.664062 9.027344 L 6.441406 17.296875 L 6.707031 17.335938 C 6.757812 17.339844 10.5 17.925781 13.023438 19.859375 C 11.8125 19.289062 10.09375 18.789062 7.816406 18.789062 C 7.21875 18.789062 6.589844 18.824219 5.917969 18.898438 L 5.046875 9.058594 L 4.996094 8.476562 C 5.207031 8.453125 5.410156 8.433594 5.609375 8.417969 Z M 11.882812 8.394531 C 13.5625 9.292969 14.449219 10.324219 14.707031 10.65625 L 14.707031 20.511719 C 12.527344 17.832031 8.210938 16.894531 7.078125 16.6875 L 6.355469 8.957031 L 6.160156 6.898438 C 8.644531 7.019531 10.523438 7.664062 11.882812 8.394531 Z M 15.421875 10.65625 C 15.683594 10.324219 16.570312 9.292969 18.25 8.394531 C 19.609375 7.664062 21.488281 7.019531 23.972656 6.898438 L 23.777344 8.957031 L 23.054688 16.6875 C 21.921875 16.894531 17.601562 17.832031 15.421875 20.511719 Z M 24.464844 9.027344 L 24.523438 8.417969 C 24.722656 8.433594 24.925781 8.453125 25.136719 8.476562 L 25.085938 9.058594 L 24.210938 18.898438 C 23.539062 18.824219 22.914062 18.789062 22.316406 18.789062 C 20.035156 18.789062 18.320312 19.289062 17.109375 19.859375 C 19.632812 17.925781 23.375 17.339844 23.425781 17.335938 L 23.691406 17.296875 Z M 5.292969 19.6875 L 5.652344 19.640625 C 8.101562 19.3125 10.015625 19.570312 11.449219 20.011719 C 11.589844 20.058594 11.726562 20.101562 11.859375 20.148438 C 11.988281 20.195312 12.113281 20.246094 12.238281 20.292969 C 12.359375 20.34375 12.476562 20.390625 12.589844 20.441406 C 13.15625 20.695312 13.609375 20.96875 13.953125 21.207031 C 14.023438 21.257812 14.085938 21.300781 14.144531 21.347656 L 15.984375 21.347656 C 16.042969 21.300781 16.109375 21.257812 16.179688 21.207031 C 16.523438 20.96875 16.976562 20.695312 17.539062 20.441406 C 17.65625 20.390625 17.773438 20.34375 17.894531 20.292969 C 18.015625 20.246094 18.140625 20.195312 18.273438 20.148438 C 18.40625 20.101562 18.542969 20.058594 18.683594 20.011719 C 20.113281 19.570312 22.03125 19.3125 24.480469 19.640625 L 24.835938 19.6875 L 25.78125 9.058594 L 25.886719 7.855469 L 25.554688 7.816406 C 25.21875 7.777344 24.894531 7.742188 24.589844 7.722656 L 24.734375 6.171875 L 24.34375 6.183594 C 20.941406 6.273438 18.582031 7.269531 17.054688 8.269531 C 16.050781 8.925781 15.410156 9.585938 15.066406 9.988281 L 15.0625 9.988281 C 14.722656 9.585938 14.078125 8.925781 13.078125 8.269531 C 11.550781 7.269531 9.191406 6.273438 5.789062 6.183594 L 5.398438 6.171875 L 5.542969 7.722656 C 5.238281 7.742188 4.914062 7.777344 4.578125 7.816406 L 4.242188 7.855469 L 4.351562 9.058594 L 5.292969 19.6875 " fill-opacity="1" fill-rule="nonzero"/></g></svg>