<svg xmlns="http://www.w3.org/2000/svg" xmlns:xlink="http://www.w3.org/1999/xlink" width="40" zoomAndPan="magnify" viewBox="0 0 30 30.000001" height="40" preserveAspectRatio="xMidYMid meet" version="1.0"><defs><clipPath id="d31811b0df"><path d="M 0.484375 0 L 29.515625 0 L 29.515625 29.03125 L 0.484375 29.03125 Z M 0.484375 0 " clip-rule="nonzero"/></clipPath><clipPath id="94328201ee"><path d="M 1.34375 8 L 28.921875 8 L 28.921875 23.074219 L 1.34375 23.074219 Z M 1.34375 8 " clip-rule="nonzero"/></clipPath><clipPath id="682b118e58"><path d="M 3 5.65625 L 27 5.65625 L 27 22 L 3 22 Z M 3 5.65625 " clip-rule="nonzero"/></clipPath></defs><g clip-path="url(#d31811b0df)"><path fill="#ffffff" d="M 0.484375 0 L 29.515625 0 L 29.515625 36.289062 L 0.484375 36.289062 Z M 0.484375 0 " fill-opacity="1" fill-rule="nonzero"/><path fill="#ffffff" d="M 0.484375 0 L 29.515625 0 L 29.515625 29.03125 L 0.484375 29.03125 Z M 0.484375 0 " fill-opacity="1" fill-rule="nonzero"/><path fill="#ffffff" d="M 0.484375 0 L 29.515625 0 L 29.515625 29.03125 L 0.484375 29.03125 Z M 0.484375 0 " fill-opacity="1" fill-rule="nonzero"/></g><g clip-path="url(#94328201ee)"><path fill="#212529" d="M 27.273438 8.667969 L 27.269531 8.710938 L 26.242188 19.800781 L 26.195312 20.304688 L 25.675781 20.238281 L 25.289062 20.1875 C 24.515625 20.089844 23.753906 20.039062 23.027344 20.039062 C 19.519531 20.039062 17.386719 21.195312 16.425781 21.882812 L 15.132812 21.976562 L 15.128906 21.976562 L 13.835938 21.882812 C 12.878906 21.195312 10.746094 20.039062 7.234375 20.039062 C 6.507812 20.039062 5.746094 20.089844 4.972656 20.1875 L 4.585938 20.238281 L 4.070312 20.304688 L 4.023438 19.800781 L 2.996094 8.710938 L 2.992188 8.667969 L 1.355469 8.667969 L 3.023438 21.222656 L 14.03125 23.074219 L 16.234375 23.074219 L 27.242188 21.222656 L 28.910156 8.667969 L 27.273438 8.667969 " fill-opacity="1" fill-rule="nonzero"/></g><g clip-path="url(#682b118e58)"><path fill="#212529" d="M 4.863281 8 L 4.925781 8.636719 L 5.765625 17.261719 L 6.054688 17.304688 C 6.109375 17.308594 10.171875 17.917969 12.914062 19.9375 C 11.597656 19.34375 9.734375 18.820312 7.257812 18.820312 C 6.613281 18.820312 5.929688 18.855469 5.199219 18.933594 L 4.25 8.667969 L 4.195312 8.058594 C 4.425781 8.03125 4.648438 8.015625 4.863281 8 Z M 11.675781 7.972656 C 13.496094 8.910156 14.460938 9.984375 14.742188 10.335938 L 14.742188 20.617188 C 12.378906 17.820312 7.6875 16.839844 6.457031 16.628906 L 5.671875 8.5625 L 5.460938 6.410156 C 8.160156 6.539062 10.199219 7.210938 11.675781 7.972656 Z M 15.519531 10.335938 C 15.800781 9.984375 16.765625 8.910156 18.589844 7.972656 C 20.0625 7.210938 22.105469 6.539062 24.800781 6.410156 L 24.589844 8.5625 L 23.804688 16.628906 C 22.574219 16.839844 17.886719 17.820312 15.519531 20.617188 Z M 25.339844 8.636719 L 25.402344 8 C 25.617188 8.015625 25.835938 8.03125 26.070312 8.058594 L 26.011719 8.667969 L 25.0625 18.933594 C 24.335938 18.855469 23.652344 18.820312 23.003906 18.820312 C 20.53125 18.820312 18.664062 19.34375 17.347656 19.9375 C 20.089844 17.917969 24.15625 17.308594 24.207031 17.304688 L 24.5 17.261719 Z M 4.519531 19.753906 L 4.910156 19.707031 C 7.570312 19.363281 9.648438 19.636719 11.203125 20.097656 C 11.359375 20.144531 11.503906 20.1875 11.648438 20.238281 C 11.792969 20.285156 11.925781 20.339844 12.0625 20.386719 C 12.195312 20.441406 12.320312 20.492188 12.445312 20.542969 C 13.058594 20.808594 13.550781 21.09375 13.921875 21.34375 C 14 21.394531 14.070312 21.441406 14.132812 21.488281 L 16.128906 21.488281 C 16.195312 21.441406 16.265625 21.394531 16.339844 21.34375 C 16.714844 21.09375 17.207031 20.808594 17.820312 20.542969 C 17.945312 20.492188 18.070312 20.441406 18.203125 20.386719 C 18.335938 20.339844 18.472656 20.285156 18.617188 20.238281 C 18.757812 20.1875 18.90625 20.144531 19.058594 20.097656 C 20.613281 19.636719 22.695312 19.363281 25.355469 19.707031 L 25.742188 19.753906 L 26.769531 8.667969 L 26.882812 7.410156 L 26.519531 7.371094 C 26.15625 7.328125 25.804688 7.292969 25.472656 7.273438 L 25.628906 5.65625 L 25.207031 5.664062 C 21.511719 5.757812 18.949219 6.800781 17.292969 7.84375 C 16.203125 8.527344 15.503906 9.214844 15.132812 9.636719 L 15.128906 9.636719 C 14.757812 9.214844 14.0625 8.527344 12.972656 7.84375 C 11.3125 6.800781 8.753906 5.757812 5.058594 5.664062 L 4.632812 5.65625 L 4.792969 7.273438 C 4.457031 7.292969 4.109375 7.328125 3.742188 7.371094 L 3.378906 7.410156 L 3.496094 8.667969 L 4.519531 19.753906 " fill-opacity="1" fill-rule="nonzero"/></g></svg>