<svg xmlns="http://www.w3.org/2000/svg" xmlns:xlink="http://www.w3.org/1999/xlink" width="40" zoomAndPan="magnify" viewBox="0 0 30 30.000001" height="40" preserveAspectRatio="xMidYMid meet" version="1.0"><defs><g/><clipPath id="86515ac64e"><path d="M 0.484375 0 L 29.515625 0 L 29.515625 29.03125 L 0.484375 29.03125 Z M 0.484375 0 " clip-rule="nonzero"/></clipPath><clipPath id="8f4f0a421e"><path d="M 15 0 C 6.984375 0 0.484375 6.5 0.484375 14.515625 C 0.484375 22.53125 6.984375 29.03125 15 29.03125 C 23.015625 29.03125 29.515625 22.53125 29.515625 14.515625 C 29.515625 6.5 23.015625 0 15 0 " clip-rule="nonzero"/></clipPath><clipPath id="01d56bc93c"><path d="M 7.90625 9 L 22.421875 9 L 22.421875 17.214844 L 7.90625 17.214844 Z M 7.90625 9 " clip-rule="nonzero"/></clipPath><clipPath id="f4bcf8f4e2"><path d="M 8 7.78125 L 22 7.78125 L 22 17 L 8 17 Z M 8 7.78125 " clip-rule="nonzero"/></clipPath></defs><g clip-path="url(#86515ac64e)"><g clip-path="url(#8f4f0a421e)"><path fill="#adb5bd" d="M 0.484375 0 L 29.515625 0 L 29.515625 29.03125 L 0.484375 29.03125 Z M 0.484375 0 " fill-opacity="1" fill-rule="nonzero"/></g></g><g clip-path="url(#01d56bc93c)"><path fill="#e9ecef" d="M 21.554688 9.410156 L 21.554688 9.4375 L 21.011719 15.441406 L 20.988281 15.714844 L 20.714844 15.679688 L 20.511719 15.652344 C 20.105469 15.601562 19.703125 15.570312 19.320312 15.570312 C 17.472656 15.570312 16.351562 16.195312 15.847656 16.570312 L 15.164062 16.621094 L 14.484375 16.570312 C 13.976562 16.195312 12.855469 15.570312 11.007812 15.570312 C 10.625 15.570312 10.222656 15.601562 9.816406 15.652344 L 9.613281 15.679688 L 9.339844 15.714844 L 9.316406 15.441406 L 8.777344 9.4375 L 8.773438 9.410156 L 7.910156 9.410156 L 8.789062 16.210938 L 14.585938 17.214844 L 15.746094 17.214844 L 21.539062 16.210938 L 22.417969 9.410156 L 21.554688 9.410156 " fill-opacity="1" fill-rule="nonzero"/></g><g clip-path="url(#f4bcf8f4e2)"><path fill="#e9ecef" d="M 9.757812 9.050781 L 9.789062 9.394531 L 10.234375 14.066406 L 10.386719 14.089844 C 10.414062 14.09375 12.554688 14.421875 13.996094 15.515625 C 13.304688 15.195312 12.324219 14.910156 11.019531 14.910156 C 10.679688 14.910156 10.320312 14.929688 9.9375 14.972656 L 9.4375 9.410156 L 9.40625 9.082031 C 9.527344 9.066406 9.644531 9.058594 9.757812 9.050781 Z M 13.34375 9.035156 C 14.304688 9.542969 14.8125 10.125 14.960938 10.316406 L 14.960938 15.886719 C 13.714844 14.371094 11.246094 13.839844 10.597656 13.722656 L 10.183594 9.355469 L 10.074219 8.191406 C 11.492188 8.257812 12.566406 8.621094 13.34375 9.035156 Z M 15.367188 10.316406 C 15.515625 10.125 16.023438 9.542969 16.984375 9.035156 C 17.761719 8.621094 18.835938 8.257812 20.253906 8.191406 L 20.144531 9.355469 L 19.730469 13.722656 C 19.082031 13.839844 16.613281 14.371094 15.367188 15.886719 Z M 20.539062 9.394531 L 20.570312 9.050781 C 20.683594 9.058594 20.800781 9.066406 20.921875 9.082031 L 20.890625 9.410156 L 20.394531 14.972656 C 20.007812 14.929688 19.648438 14.910156 19.308594 14.910156 C 18.007812 14.910156 17.023438 15.195312 16.332031 15.515625 C 17.773438 14.421875 19.914062 14.09375 19.941406 14.089844 L 20.09375 14.066406 Z M 9.578125 15.417969 L 9.785156 15.390625 C 11.183594 15.207031 12.277344 15.351562 13.097656 15.601562 C 13.175781 15.628906 13.253906 15.652344 13.332031 15.679688 C 13.40625 15.707031 13.476562 15.734375 13.546875 15.761719 C 13.617188 15.789062 13.683594 15.816406 13.75 15.84375 C 14.074219 15.988281 14.332031 16.140625 14.527344 16.277344 C 14.566406 16.304688 14.605469 16.332031 14.640625 16.355469 L 15.691406 16.355469 C 15.722656 16.332031 15.761719 16.304688 15.800781 16.277344 C 15.996094 16.140625 16.257812 15.988281 16.578125 15.84375 C 16.644531 15.816406 16.710938 15.789062 16.78125 15.761719 C 16.851562 15.734375 16.921875 15.707031 17 15.679688 C 17.074219 15.652344 17.152344 15.628906 17.230469 15.601562 C 18.050781 15.351562 19.144531 15.207031 20.546875 15.390625 L 20.75 15.417969 L 21.289062 9.410156 L 21.351562 8.730469 L 21.160156 8.710938 C 20.96875 8.6875 20.78125 8.667969 20.609375 8.65625 L 20.691406 7.78125 L 20.46875 7.785156 C 18.523438 7.835938 17.175781 8.398438 16.300781 8.964844 C 15.726562 9.335938 15.359375 9.707031 15.164062 9.9375 C 14.96875 9.707031 14.601562 9.335938 14.027344 8.964844 C 13.15625 8.398438 11.808594 7.835938 9.859375 7.785156 L 9.636719 7.78125 L 9.722656 8.65625 C 9.546875 8.667969 9.363281 8.6875 9.167969 8.710938 L 8.976562 8.730469 L 9.039062 9.410156 L 9.578125 15.417969 " fill-opacity="1" fill-rule="nonzero"/></g><g fill="#e9ecef" fill-opacity="1"><g transform="translate(6.931078, 22.1129)"><g><path d="M 0.921875 0.015625 C 0.765625 0.015625 0.628906 -0.015625 0.515625 -0.078125 C 0.398438 -0.148438 0.304688 -0.242188 0.234375 -0.359375 C 0.171875 -0.484375 0.140625 -0.617188 0.140625 -0.765625 C 0.140625 -0.910156 0.171875 -1.039062 0.234375 -1.15625 C 0.304688 -1.28125 0.398438 -1.375 0.515625 -1.4375 C 0.628906 -1.507812 0.765625 -1.546875 0.921875 -1.546875 C 1.054688 -1.546875 1.175781 -1.519531 1.28125 -1.46875 C 1.382812 -1.414062 1.460938 -1.335938 1.515625 -1.234375 L 1.359375 -1.140625 C 1.316406 -1.210938 1.253906 -1.265625 1.171875 -1.296875 C 1.097656 -1.335938 1.015625 -1.359375 0.921875 -1.359375 C 0.804688 -1.359375 0.703125 -1.332031 0.609375 -1.28125 C 0.523438 -1.238281 0.457031 -1.171875 0.40625 -1.078125 C 0.363281 -0.984375 0.34375 -0.878906 0.34375 -0.765625 C 0.34375 -0.648438 0.363281 -0.546875 0.40625 -0.453125 C 0.457031 -0.359375 0.523438 -0.285156 0.609375 -0.234375 C 0.703125 -0.191406 0.804688 -0.171875 0.921875 -0.171875 C 1.015625 -0.171875 1.097656 -0.1875 1.171875 -0.21875 C 1.253906 -0.257812 1.316406 -0.316406 1.359375 -0.390625 L 1.515625 -0.28125 C 1.460938 -0.1875 1.378906 -0.113281 1.265625 -0.0625 C 1.160156 -0.0078125 1.046875 0.015625 0.921875 0.015625 Z M 0.921875 0.015625 "/></g></g></g><g fill="#e9ecef" fill-opacity="1"><g transform="translate(8.565603, 22.1129)"><g><path d="M 0.90625 0.015625 C 0.757812 0.015625 0.628906 -0.015625 0.515625 -0.078125 C 0.398438 -0.148438 0.304688 -0.242188 0.234375 -0.359375 C 0.171875 -0.484375 0.140625 -0.617188 0.140625 -0.765625 C 0.140625 -0.910156 0.171875 -1.039062 0.234375 -1.15625 C 0.304688 -1.28125 0.398438 -1.375 0.515625 -1.4375 C 0.628906 -1.507812 0.757812 -1.546875 0.90625 -1.546875 C 1.0625 -1.546875 1.195312 -1.507812 1.3125 -1.4375 C 1.425781 -1.375 1.515625 -1.28125 1.578125 -1.15625 C 1.648438 -1.039062 1.6875 -0.910156 1.6875 -0.765625 C 1.6875 -0.617188 1.648438 -0.484375 1.578125 -0.359375 C 1.515625 -0.242188 1.425781 -0.148438 1.3125 -0.078125 C 1.195312 -0.015625 1.0625 0.015625 0.90625 0.015625 Z M 0.90625 -0.171875 C 1.019531 -0.171875 1.117188 -0.191406 1.203125 -0.234375 C 1.285156 -0.285156 1.351562 -0.359375 1.40625 -0.453125 C 1.457031 -0.546875 1.484375 -0.648438 1.484375 -0.765625 C 1.484375 -0.878906 1.457031 -0.984375 1.40625 -1.078125 C 1.351562 -1.171875 1.285156 -1.238281 1.203125 -1.28125 C 1.117188 -1.332031 1.019531 -1.359375 0.90625 -1.359375 C 0.800781 -1.359375 0.703125 -1.332031 0.609375 -1.28125 C 0.523438 -1.238281 0.457031 -1.171875 0.40625 -1.078125 C 0.363281 -0.984375 0.34375 -0.878906 0.34375 -0.765625 C 0.34375 -0.648438 0.363281 -0.546875 0.40625 -0.453125 C 0.457031 -0.359375 0.523438 -0.285156 0.609375 -0.234375 C 0.703125 -0.191406 0.800781 -0.171875 0.90625 -0.171875 Z M 0.90625 -0.171875 "/></g></g></g><g fill="#e9ecef" fill-opacity="1"><g transform="translate(10.385936, 22.1129)"><g><path d="M 2.1875 -1.546875 C 2.382812 -1.546875 2.535156 -1.488281 2.640625 -1.375 C 2.753906 -1.257812 2.8125 -1.097656 2.8125 -0.890625 L 2.8125 0 L 2.609375 0 L 2.609375 -0.859375 C 2.609375 -1.023438 2.566406 -1.148438 2.484375 -1.234375 C 2.410156 -1.316406 2.304688 -1.359375 2.171875 -1.359375 C 2.003906 -1.359375 1.875 -1.304688 1.78125 -1.203125 C 1.695312 -1.109375 1.65625 -0.972656 1.65625 -0.796875 L 1.65625 0 L 1.453125 0 L 1.453125 -0.859375 C 1.453125 -1.023438 1.410156 -1.148438 1.328125 -1.234375 C 1.253906 -1.316406 1.144531 -1.359375 1 -1.359375 C 0.84375 -1.359375 0.71875 -1.304688 0.625 -1.203125 C 0.539062 -1.109375 0.5 -0.972656 0.5 -0.796875 L 0.5 0 L 0.28125 0 L 0.28125 -1.53125 L 0.484375 -1.53125 L 0.484375 -1.25 C 0.535156 -1.34375 0.609375 -1.414062 0.703125 -1.46875 C 0.804688 -1.519531 0.921875 -1.546875 1.046875 -1.546875 C 1.171875 -1.546875 1.28125 -1.515625 1.375 -1.453125 C 1.46875 -1.398438 1.539062 -1.320312 1.59375 -1.21875 C 1.644531 -1.320312 1.722656 -1.398438 1.828125 -1.453125 C 1.929688 -1.515625 2.050781 -1.546875 2.1875 -1.546875 Z M 2.1875 -1.546875 "/></g></g></g><g fill="#e9ecef" fill-opacity="1"><g transform="translate(13.466278, 22.1129)"><g><path d="M 1.078125 -1.546875 C 1.222656 -1.546875 1.351562 -1.507812 1.46875 -1.4375 C 1.582031 -1.375 1.671875 -1.28125 1.734375 -1.15625 C 1.804688 -1.039062 1.84375 -0.910156 1.84375 -0.765625 C 1.84375 -0.609375 1.804688 -0.472656 1.734375 -0.359375 C 1.671875 -0.242188 1.582031 -0.148438 1.46875 -0.078125 C 1.351562 -0.015625 1.222656 0.015625 1.078125 0.015625 C 0.953125 0.015625 0.835938 -0.0078125 0.734375 -0.0625 C 0.640625 -0.113281 0.5625 -0.1875 0.5 -0.28125 L 0.5 0.5625 L 0.28125 0.5625 L 0.28125 -1.53125 L 0.484375 -1.53125 L 0.484375 -1.21875 C 0.546875 -1.320312 0.628906 -1.398438 0.734375 -1.453125 C 0.835938 -1.515625 0.953125 -1.546875 1.078125 -1.546875 Z M 1.0625 -0.171875 C 1.164062 -0.171875 1.257812 -0.191406 1.34375 -0.234375 C 1.4375 -0.285156 1.503906 -0.359375 1.546875 -0.453125 C 1.597656 -0.546875 1.625 -0.648438 1.625 -0.765625 C 1.625 -0.878906 1.597656 -0.976562 1.546875 -1.0625 C 1.503906 -1.15625 1.4375 -1.226562 1.34375 -1.28125 C 1.257812 -1.332031 1.164062 -1.359375 1.0625 -1.359375 C 0.945312 -1.359375 0.847656 -1.332031 0.765625 -1.28125 C 0.679688 -1.226562 0.613281 -1.15625 0.5625 -1.0625 C 0.507812 -0.976562 0.484375 -0.878906 0.484375 -0.765625 C 0.484375 -0.648438 0.507812 -0.546875 0.5625 -0.453125 C 0.613281 -0.359375 0.679688 -0.285156 0.765625 -0.234375 C 0.847656 -0.191406 0.945312 -0.171875 1.0625 -0.171875 Z M 1.0625 -0.171875 "/></g></g></g><g fill="#e9ecef" fill-opacity="1"><g transform="translate(15.434679, 22.1129)"><g><path d="M 0.828125 -1.546875 C 1.023438 -1.546875 1.175781 -1.492188 1.28125 -1.390625 C 1.382812 -1.285156 1.4375 -1.140625 1.4375 -0.953125 L 1.4375 0 L 1.25 0 L 1.25 -0.234375 C 1.195312 -0.160156 1.125 -0.0976562 1.03125 -0.046875 C 0.945312 -0.00390625 0.84375 0.015625 0.71875 0.015625 C 0.550781 0.015625 0.414062 -0.0234375 0.3125 -0.109375 C 0.207031 -0.191406 0.15625 -0.300781 0.15625 -0.4375 C 0.15625 -0.5625 0.203125 -0.660156 0.296875 -0.734375 C 0.390625 -0.816406 0.539062 -0.859375 0.75 -0.859375 L 1.234375 -0.859375 L 1.234375 -0.953125 C 1.234375 -1.085938 1.195312 -1.1875 1.125 -1.25 C 1.050781 -1.320312 0.941406 -1.359375 0.796875 -1.359375 C 0.703125 -1.359375 0.609375 -1.34375 0.515625 -1.3125 C 0.429688 -1.28125 0.359375 -1.238281 0.296875 -1.1875 L 0.203125 -1.328125 C 0.273438 -1.398438 0.363281 -1.453125 0.46875 -1.484375 C 0.582031 -1.523438 0.703125 -1.546875 0.828125 -1.546875 Z M 0.75 -0.140625 C 0.863281 -0.140625 0.960938 -0.164062 1.046875 -0.21875 C 1.128906 -0.28125 1.191406 -0.359375 1.234375 -0.453125 L 1.234375 -0.703125 L 0.75 -0.703125 C 0.488281 -0.703125 0.359375 -0.613281 0.359375 -0.4375 C 0.359375 -0.34375 0.390625 -0.269531 0.453125 -0.21875 C 0.523438 -0.164062 0.625 -0.140625 0.75 -0.140625 Z M 0.75 -0.140625 "/></g></g></g><g fill="#e9ecef" fill-opacity="1"><g transform="translate(17.147593, 22.1129)"><g><path d="M 1.0625 -1.546875 C 1.257812 -1.546875 1.410156 -1.488281 1.515625 -1.375 C 1.628906 -1.257812 1.6875 -1.097656 1.6875 -0.890625 L 1.6875 0 L 1.484375 0 L 1.484375 -0.859375 C 1.484375 -1.023438 1.441406 -1.148438 1.359375 -1.234375 C 1.285156 -1.316406 1.175781 -1.359375 1.03125 -1.359375 C 0.863281 -1.359375 0.734375 -1.304688 0.640625 -1.203125 C 0.546875 -1.109375 0.5 -0.972656 0.5 -0.796875 L 0.5 0 L 0.28125 0 L 0.28125 -1.53125 L 0.484375 -1.53125 L 0.484375 -1.25 C 0.535156 -1.34375 0.613281 -1.414062 0.71875 -1.46875 C 0.820312 -1.519531 0.9375 -1.546875 1.0625 -1.546875 Z M 1.0625 -1.546875 "/></g></g></g><g fill="#e9ecef" fill-opacity="1"><g transform="translate(19.113088, 22.1129)"><g><path d="M 0.28125 -1.53125 L 0.5 -1.53125 L 0.5 0 L 0.28125 0 Z M 0.390625 -1.859375 C 0.347656 -1.859375 0.3125 -1.875 0.28125 -1.90625 C 0.257812 -1.9375 0.25 -1.972656 0.25 -2.015625 C 0.25 -2.046875 0.257812 -2.078125 0.28125 -2.109375 C 0.3125 -2.140625 0.347656 -2.15625 0.390625 -2.15625 C 0.429688 -2.15625 0.46875 -2.140625 0.5 -2.109375 C 0.53125 -2.085938 0.546875 -2.054688 0.546875 -2.015625 C 0.546875 -1.972656 0.53125 -1.9375 0.5 -1.90625 C 0.46875 -1.875 0.429688 -1.859375 0.390625 -1.859375 Z M 0.390625 -1.859375 "/></g></g></g><g fill="#e9ecef" fill-opacity="1"><g transform="translate(19.894062, 22.1129)"><g><path d="M 1.625 -0.703125 L 0.34375 -0.703125 C 0.351562 -0.546875 0.410156 -0.414062 0.515625 -0.3125 C 0.628906 -0.21875 0.769531 -0.171875 0.9375 -0.171875 C 1.03125 -0.171875 1.117188 -0.1875 1.203125 -0.21875 C 1.285156 -0.25 1.351562 -0.300781 1.40625 -0.375 L 1.53125 -0.234375 C 1.457031 -0.148438 1.367188 -0.0859375 1.265625 -0.046875 C 1.171875 -0.00390625 1.0625 0.015625 0.9375 0.015625 C 0.78125 0.015625 0.640625 -0.015625 0.515625 -0.078125 C 0.398438 -0.148438 0.304688 -0.242188 0.234375 -0.359375 C 0.171875 -0.484375 0.140625 -0.617188 0.140625 -0.765625 C 0.140625 -0.910156 0.171875 -1.039062 0.234375 -1.15625 C 0.296875 -1.28125 0.382812 -1.375 0.5 -1.4375 C 0.613281 -1.507812 0.738281 -1.546875 0.875 -1.546875 C 1.019531 -1.546875 1.148438 -1.507812 1.265625 -1.4375 C 1.378906 -1.375 1.46875 -1.28125 1.53125 -1.15625 C 1.59375 -1.039062 1.625 -0.910156 1.625 -0.765625 Z M 0.875 -1.359375 C 0.726562 -1.359375 0.601562 -1.3125 0.5 -1.21875 C 0.40625 -1.125 0.351562 -1.003906 0.34375 -0.859375 L 1.421875 -0.859375 C 1.410156 -1.003906 1.351562 -1.125 1.25 -1.21875 C 1.15625 -1.3125 1.03125 -1.359375 0.875 -1.359375 Z M 0.875 -1.359375 "/></g></g></g><g fill="#e9ecef" fill-opacity="1"><g transform="translate(21.647621, 22.1129)"><g><path d="M 0.703125 0.015625 C 0.578125 0.015625 0.457031 0 0.34375 -0.03125 C 0.226562 -0.0703125 0.140625 -0.117188 0.078125 -0.171875 L 0.171875 -0.34375 C 0.234375 -0.289062 0.3125 -0.25 0.40625 -0.21875 C 0.507812 -0.1875 0.613281 -0.171875 0.71875 -0.171875 C 0.851562 -0.171875 0.953125 -0.191406 1.015625 -0.234375 C 1.085938 -0.273438 1.125 -0.335938 1.125 -0.421875 C 1.125 -0.472656 1.101562 -0.515625 1.0625 -0.546875 C 1.03125 -0.578125 0.984375 -0.597656 0.921875 -0.609375 C 0.867188 -0.628906 0.796875 -0.648438 0.703125 -0.671875 C 0.578125 -0.691406 0.476562 -0.710938 0.40625 -0.734375 C 0.332031 -0.765625 0.265625 -0.804688 0.203125 -0.859375 C 0.148438 -0.921875 0.125 -1.003906 0.125 -1.109375 C 0.125 -1.234375 0.175781 -1.335938 0.28125 -1.421875 C 0.394531 -1.503906 0.546875 -1.546875 0.734375 -1.546875 C 0.835938 -1.546875 0.9375 -1.53125 1.03125 -1.5 C 1.132812 -1.476562 1.21875 -1.441406 1.28125 -1.390625 L 1.1875 -1.234375 C 1.0625 -1.316406 0.910156 -1.359375 0.734375 -1.359375 C 0.597656 -1.359375 0.5 -1.332031 0.4375 -1.28125 C 0.375 -1.238281 0.34375 -1.179688 0.34375 -1.109375 C 0.34375 -1.046875 0.359375 -1 0.390625 -0.96875 C 0.429688 -0.9375 0.476562 -0.910156 0.53125 -0.890625 C 0.59375 -0.878906 0.671875 -0.863281 0.765625 -0.84375 C 0.890625 -0.820312 0.988281 -0.796875 1.0625 -0.765625 C 1.132812 -0.742188 1.195312 -0.703125 1.25 -0.640625 C 1.300781 -0.585938 1.328125 -0.515625 1.328125 -0.421875 C 1.328125 -0.285156 1.269531 -0.175781 1.15625 -0.09375 C 1.050781 -0.0195312 0.898438 0.015625 0.703125 0.015625 Z M 0.703125 0.015625 "/></g></g></g></svg>