<svg xmlns="http://www.w3.org/2000/svg" xmlns:xlink="http://www.w3.org/1999/xlink" width="40" zoomAndPan="magnify" viewBox="0 0 30 30.000001" height="40" preserveAspectRatio="xMidYMid meet" version="1.0"><defs><clipPath id="01e86e5151"><path d="M 0.484375 0 L 29.515625 0 L 29.515625 29.03125 L 0.484375 29.03125 Z M 0.484375 0 " clip-rule="nonzero"/></clipPath><clipPath id="edbe5c173d"><path d="M 15 0 C 6.984375 0 0.484375 6.5 0.484375 14.515625 C 0.484375 22.53125 6.984375 29.03125 15 29.03125 C 23.015625 29.03125 29.515625 22.53125 29.515625 14.515625 C 29.515625 6.5 23.015625 0 15 0 " clip-rule="nonzero"/></clipPath><clipPath id="6d254fd8eb"><path d="M 2.363281 8 L 27.769531 8 L 27.769531 22.722656 L 2.363281 22.722656 Z M 2.363281 8 " clip-rule="nonzero"/></clipPath><clipPath id="dd817460ba"><path d="M 4 6.027344 L 26 6.027344 L 26 22 L 4 22 Z M 4 6.027344 " clip-rule="nonzero"/></clipPath></defs><g clip-path="url(#01e86e5151)"><g clip-path="url(#edbe5c173d)"><path fill="#adb5bd" d="M 0.484375 0 L 29.515625 0 L 29.515625 29.03125 L 0.484375 29.03125 Z M 0.484375 0 " fill-opacity="1" fill-rule="nonzero"/></g></g><g clip-path="url(#6d254fd8eb)"><path fill="#495057" d="M 26.246094 8.914062 L 26.242188 8.957031 L 25.296875 19.582031 L 25.253906 20.066406 L 24.777344 20.003906 L 24.421875 19.957031 C 23.707031 19.863281 23.007812 19.8125 22.335938 19.8125 C 19.105469 19.8125 17.140625 20.917969 16.257812 21.578125 L 15.066406 21.667969 L 15.0625 21.667969 L 13.871094 21.578125 C 12.988281 20.917969 11.023438 19.8125 7.792969 19.8125 C 7.125 19.8125 6.425781 19.863281 5.710938 19.957031 L 5.355469 20.003906 L 4.878906 20.066406 L 4.835938 19.582031 L 3.890625 8.957031 L 3.886719 8.914062 L 2.378906 8.914062 L 3.914062 20.949219 L 14.050781 22.722656 L 16.078125 22.722656 L 26.214844 20.949219 L 27.753906 8.914062 L 26.246094 8.914062 " fill-opacity="1" fill-rule="nonzero"/></g><g clip-path="url(#dd817460ba)"><path fill="#495057" d="M 5.609375 8.273438 L 5.664062 8.882812 L 6.441406 17.148438 L 6.707031 17.191406 C 6.757812 17.195312 10.5 17.777344 13.023438 19.714844 C 11.8125 19.144531 10.09375 18.644531 7.816406 18.644531 C 7.21875 18.644531 6.589844 18.679688 5.917969 18.753906 L 5.046875 8.914062 L 4.996094 8.332031 C 5.207031 8.308594 5.410156 8.289062 5.609375 8.273438 Z M 11.882812 8.25 C 13.5625 9.148438 14.449219 10.179688 14.707031 10.511719 L 14.707031 20.367188 C 12.527344 17.6875 8.210938 16.75 7.078125 16.542969 L 6.355469 8.8125 L 6.160156 6.753906 C 8.644531 6.875 10.523438 7.519531 11.882812 8.25 Z M 15.421875 10.511719 C 15.683594 10.179688 16.570312 9.148438 18.25 8.25 C 19.609375 7.519531 21.488281 6.875 23.972656 6.753906 L 23.777344 8.8125 L 23.054688 16.542969 C 21.921875 16.75 17.601562 17.6875 15.421875 20.367188 Z M 24.464844 8.882812 L 24.523438 8.273438 C 24.722656 8.289062 24.925781 8.308594 25.136719 8.332031 L 25.085938 8.914062 L 24.210938 18.753906 C 23.539062 18.679688 22.914062 18.644531 22.316406 18.644531 C 20.035156 18.644531 18.320312 19.144531 17.109375 19.714844 C 19.632812 17.777344 23.375 17.195312 23.425781 17.191406 L 23.691406 17.148438 Z M 5.292969 19.539062 L 5.652344 19.496094 C 8.101562 19.167969 10.015625 19.425781 11.449219 19.867188 C 11.589844 19.914062 11.726562 19.957031 11.859375 20.003906 C 11.988281 20.050781 12.113281 20.097656 12.238281 20.148438 C 12.359375 20.195312 12.476562 20.246094 12.589844 20.296875 C 13.15625 20.550781 13.609375 20.824219 13.953125 21.0625 C 14.023438 21.109375 14.085938 21.15625 14.144531 21.203125 L 15.984375 21.203125 C 16.042969 21.15625 16.109375 21.109375 16.179688 21.0625 C 16.523438 20.824219 16.976562 20.550781 17.539062 20.296875 C 17.65625 20.246094 17.773438 20.195312 17.894531 20.148438 C 18.015625 20.097656 18.140625 20.050781 18.273438 20.003906 C 18.40625 19.957031 18.542969 19.914062 18.683594 19.867188 C 20.113281 19.425781 22.03125 19.167969 24.480469 19.496094 L 24.835938 19.539062 L 25.78125 8.914062 L 25.886719 7.710938 L 25.554688 7.671875 C 25.21875 7.632812 24.894531 7.597656 24.589844 7.578125 L 24.734375 6.027344 L 24.34375 6.039062 C 20.941406 6.128906 18.582031 7.125 17.054688 8.125 C 16.050781 8.78125 15.410156 9.4375 15.066406 9.84375 L 15.0625 9.84375 C 14.722656 9.4375 14.078125 8.78125 13.078125 8.125 C 11.550781 7.125 9.191406 6.128906 5.789062 6.039062 L 5.398438 6.027344 L 5.542969 7.578125 C 5.238281 7.597656 4.914062 7.632812 4.578125 7.671875 L 4.242188 7.710938 L 4.351562 8.914062 L 5.292969 19.539062 " fill-opacity="1" fill-rule="nonzero"/></g></svg>