<svg xmlns="http://www.w3.org/2000/svg" xmlns:xlink="http://www.w3.org/1999/xlink" width="40" zoomAndPan="magnify" viewBox="0 0 30 30.000001" height="40" preserveAspectRatio="xMidYMid meet" version="1.0"><defs><clipPath id="4611cca119"><path d="M 0.484375 0 L 29.515625 0 L 29.515625 29.03125 L 0.484375 29.03125 Z M 0.484375 0 " clip-rule="nonzero"/></clipPath><clipPath id="33aa2e1669"><path d="M 15 0 C 6.984375 0 0.484375 6.5 0.484375 14.515625 C 0.484375 22.53125 6.984375 29.03125 15 29.03125 C 23.015625 29.03125 29.515625 22.53125 29.515625 14.515625 C 29.515625 6.5 23.015625 0 15 0 " clip-rule="nonzero"/></clipPath><clipPath id="3f180af51f"><path d="M 2.363281 9 L 27.769531 9 L 27.769531 23.011719 L 2.363281 23.011719 Z M 2.363281 9 " clip-rule="nonzero"/></clipPath><clipPath id="bd1be9038f"><path d="M 4 6.320312 L 26 6.320312 L 26 22 L 4 22 Z M 4 6.320312 " clip-rule="nonzero"/></clipPath></defs><g clip-path="url(#4611cca119)"><g clip-path="url(#33aa2e1669)"><path fill="#adb5bd" d="M 0.484375 0 L 29.515625 0 L 29.515625 29.03125 L 0.484375 29.03125 Z M 0.484375 0 " fill-opacity="1" fill-rule="nonzero"/></g></g><g clip-path="url(#3f180af51f)"><path fill="#e9ecef" d="M 26.246094 9.203125 L 26.242188 9.246094 L 25.296875 19.871094 L 25.253906 20.355469 L 24.777344 20.292969 L 24.421875 20.246094 C 23.707031 20.152344 23.007812 20.105469 22.335938 20.105469 C 19.105469 20.105469 17.140625 21.210938 16.257812 21.867188 L 15.066406 21.960938 L 15.0625 21.960938 L 13.871094 21.867188 C 12.988281 21.210938 11.023438 20.105469 7.792969 20.105469 C 7.125 20.105469 6.425781 20.152344 5.710938 20.246094 L 5.355469 20.292969 L 4.878906 20.355469 L 4.835938 19.871094 L 3.890625 9.246094 L 3.886719 9.203125 L 2.378906 9.203125 L 3.914062 21.238281 L 14.050781 23.011719 L 16.078125 23.011719 L 26.214844 21.238281 L 27.753906 9.203125 L 26.246094 9.203125 " fill-opacity="1" fill-rule="nonzero"/></g><g clip-path="url(#bd1be9038f)"><path fill="#e9ecef" d="M 5.609375 8.5625 L 5.664062 9.175781 L 6.441406 17.441406 L 6.707031 17.480469 C 6.757812 17.488281 10.5 18.070312 13.023438 20.007812 C 11.8125 19.4375 10.09375 18.933594 7.816406 18.933594 C 7.21875 18.933594 6.589844 18.96875 5.917969 19.042969 L 5.046875 9.203125 L 4.996094 8.621094 C 5.207031 8.597656 5.410156 8.582031 5.609375 8.5625 Z M 11.882812 8.539062 C 13.5625 9.4375 14.449219 10.46875 14.707031 10.800781 L 14.707031 20.65625 C 12.527344 17.976562 8.210938 17.039062 7.078125 16.832031 L 6.355469 9.101562 L 6.160156 7.042969 C 8.644531 7.164062 10.523438 7.808594 11.882812 8.539062 Z M 15.421875 10.800781 C 15.683594 10.46875 16.570312 9.4375 18.25 8.539062 C 19.609375 7.808594 21.488281 7.164062 23.972656 7.042969 L 23.777344 9.101562 L 23.054688 16.832031 C 21.921875 17.039062 17.601562 17.976562 15.421875 20.65625 Z M 24.464844 9.175781 L 24.523438 8.5625 C 24.722656 8.582031 24.925781 8.597656 25.136719 8.621094 L 25.085938 9.203125 L 24.210938 19.042969 C 23.539062 18.96875 22.914062 18.933594 22.316406 18.933594 C 20.035156 18.933594 18.320312 19.4375 17.109375 20.007812 C 19.632812 18.070312 23.375 17.488281 23.425781 17.480469 L 23.691406 17.441406 Z M 5.292969 19.832031 L 5.652344 19.785156 C 8.101562 19.457031 10.015625 19.714844 11.449219 20.15625 C 11.589844 20.203125 11.726562 20.246094 11.859375 20.292969 C 11.988281 20.339844 12.113281 20.390625 12.238281 20.4375 C 12.359375 20.488281 12.476562 20.535156 12.589844 20.585938 C 13.15625 20.84375 13.609375 21.113281 13.953125 21.351562 C 14.023438 21.402344 14.085938 21.449219 14.144531 21.492188 L 15.984375 21.492188 C 16.042969 21.449219 16.109375 21.402344 16.179688 21.351562 C 16.523438 21.113281 16.976562 20.84375 17.539062 20.585938 C 17.65625 20.535156 17.773438 20.488281 17.894531 20.4375 C 18.015625 20.390625 18.140625 20.339844 18.273438 20.292969 C 18.40625 20.246094 18.542969 20.203125 18.683594 20.15625 C 20.113281 19.714844 22.03125 19.457031 24.480469 19.785156 L 24.835938 19.832031 L 25.78125 9.203125 L 25.886719 8 L 25.554688 7.960938 C 25.21875 7.921875 24.894531 7.886719 24.589844 7.867188 L 24.734375 6.320312 L 24.34375 6.328125 C 20.941406 6.417969 18.582031 7.414062 17.054688 8.414062 C 16.050781 9.070312 15.410156 9.730469 15.066406 10.132812 L 15.0625 10.132812 C 14.722656 9.730469 14.078125 9.070312 13.078125 8.414062 C 11.550781 7.414062 9.191406 6.417969 5.789062 6.328125 L 5.398438 6.320312 L 5.542969 7.867188 C 5.238281 7.886719 4.914062 7.921875 4.578125 7.960938 L 4.242188 8 L 4.351562 9.203125 L 5.292969 19.832031 " fill-opacity="1" fill-rule="nonzero"/></g></svg>