<svg xmlns="http://www.w3.org/2000/svg" xmlns:xlink="http://www.w3.org/1999/xlink" width="40" zoomAndPan="magnify" viewBox="0 0 30 30.000001" height="40" preserveAspectRatio="xMidYMid meet" version="1.0"><defs><clipPath id="9f210e7494"><path d="M 0.484375 0.144531 L 29.515625 0.144531 L 29.515625 29.03125 L 0.484375 29.03125 Z M 0.484375 0.144531 " clip-rule="nonzero"/></clipPath><clipPath id="820473600c"><path d="M 15 0.144531 C 6.984375 0.144531 0.484375 6.644531 0.484375 14.660156 C 0.484375 22.679688 6.984375 29.175781 15 29.175781 C 23.015625 29.175781 29.515625 22.679688 29.515625 14.660156 C 29.515625 6.644531 23.015625 0.144531 15 0.144531 " clip-rule="nonzero"/></clipPath><clipPath id="50f7d85c4b"><path d="M 9 7 L 25 7 L 25 27.066406 L 9 27.066406 Z M 9 7 " clip-rule="nonzero"/></clipPath><clipPath id="2db68e329f"><path d="M 2.820312 2.386719 L 27.496094 2.386719 L 27.496094 27 L 2.820312 27 Z M 2.820312 2.386719 " clip-rule="nonzero"/></clipPath></defs><g clip-path="url(#9f210e7494)"><g clip-path="url(#820473600c)"><path fill="#f8f9fa" d="M 0.484375 0.144531 L 29.515625 0.144531 L 29.515625 29.175781 L 0.484375 29.175781 Z M 0.484375 0.144531 " fill-opacity="1" fill-rule="nonzero"/></g></g><g clip-path="url(#50f7d85c4b)"><path fill="#727880" d="M 14.332031 18.296875 C 14.386719 18.285156 14.433594 18.269531 14.480469 18.257812 C 14.523438 18.246094 14.5625 18.234375 14.597656 18.226562 C 14.660156 18.207031 14.703125 18.195312 14.703125 18.195312 C 14.59375 18.214844 14.5 18.234375 14.410156 18.25 C 14.390625 18.257812 14.367188 18.261719 14.347656 18.265625 C 14.328125 18.269531 14.308594 18.273438 14.289062 18.277344 C 14.25 18.289062 14.210938 18.296875 14.179688 18.304688 C 14.039062 18.335938 13.933594 18.363281 13.851562 18.382812 C 13.773438 18.402344 13.71875 18.417969 13.683594 18.429688 C 13.648438 18.4375 13.636719 18.441406 13.636719 18.441406 C 13.855469 18.417969 14.121094 18.355469 14.332031 18.296875 Z M 10.777344 17.019531 C 10.761719 16.894531 10.757812 16.769531 10.765625 16.636719 C 10.769531 16.574219 10.773438 16.507812 10.78125 16.445312 C 10.789062 16.410156 10.792969 16.378906 10.796875 16.347656 C 10.804688 16.3125 10.8125 16.28125 10.820312 16.25 C 10.851562 16.121094 10.894531 15.992188 10.945312 15.867188 C 10.976562 15.796875 11.007812 15.722656 11.039062 15.65625 C 11.074219 15.585938 11.113281 15.519531 11.152344 15.453125 C 11.191406 15.386719 11.230469 15.324219 11.277344 15.261719 C 11.300781 15.234375 11.324219 15.203125 11.347656 15.175781 C 11.359375 15.160156 11.371094 15.144531 11.382812 15.128906 C 11.394531 15.117188 11.410156 15.101562 11.421875 15.089844 C 11.574219 14.933594 11.691406 14.789062 11.789062 14.652344 C 11.886719 14.515625 11.964844 14.382812 12.035156 14.257812 C 12.101562 14.128906 12.164062 14.003906 12.230469 13.882812 C 12.265625 13.820312 12.296875 13.757812 12.335938 13.699219 C 12.351562 13.667969 12.371094 13.636719 12.390625 13.605469 C 12.410156 13.578125 12.433594 13.546875 12.453125 13.515625 C 12.453125 13.558594 12.453125 13.601562 12.453125 13.644531 C 12.453125 13.6875 12.453125 13.726562 12.453125 13.769531 C 12.453125 13.851562 12.457031 13.929688 12.460938 14.007812 C 12.464844 14.085938 12.46875 14.160156 12.472656 14.230469 C 12.476562 14.265625 12.480469 14.300781 12.484375 14.335938 C 12.484375 14.355469 12.488281 14.371094 12.488281 14.386719 C 12.488281 14.40625 12.492188 14.421875 12.492188 14.4375 C 12.527344 14.707031 12.570312 14.933594 12.613281 15.113281 C 12.636719 15.207031 12.660156 15.285156 12.679688 15.355469 C 12.703125 15.425781 12.722656 15.484375 12.738281 15.53125 C 12.769531 15.625 12.792969 15.671875 12.792969 15.671875 C 12.769531 15.59375 12.746094 15.511719 12.730469 15.421875 C 12.710938 15.332031 12.695312 15.242188 12.683594 15.144531 C 12.65625 14.953125 12.644531 14.742188 12.640625 14.523438 C 12.640625 14.496094 12.640625 14.46875 12.640625 14.441406 C 12.640625 14.414062 12.640625 14.382812 12.640625 14.355469 C 12.640625 14.300781 12.640625 14.246094 12.644531 14.1875 C 12.648438 14.074219 12.652344 13.957031 12.660156 13.839844 C 12.664062 13.824219 12.664062 13.8125 12.664062 13.796875 C 12.667969 13.78125 12.667969 13.765625 12.667969 13.753906 C 12.671875 13.722656 12.675781 13.695312 12.675781 13.664062 C 12.683594 13.605469 12.6875 13.546875 12.695312 13.488281 C 12.707031 13.371094 12.722656 13.25 12.738281 13.132812 C 12.84375 13.003906 12.953125 12.863281 13.074219 12.707031 C 13.089844 12.691406 13.105469 12.671875 13.121094 12.652344 C 13.136719 12.632812 13.152344 12.613281 13.167969 12.59375 C 13.203125 12.554688 13.234375 12.515625 13.269531 12.476562 C 13.300781 12.4375 13.335938 12.398438 13.371094 12.359375 C 13.386719 12.335938 13.40625 12.316406 13.425781 12.296875 C 13.441406 12.277344 13.460938 12.257812 13.480469 12.238281 C 13.554688 12.160156 13.632812 12.078125 13.714844 12 C 13.753906 11.960938 13.796875 11.921875 13.839844 11.882812 C 13.882812 11.84375 13.925781 11.808594 13.972656 11.769531 C 14.0625 11.695312 14.15625 11.625 14.253906 11.554688 C 14.277344 11.535156 14.304688 11.519531 14.332031 11.503906 C 14.355469 11.488281 14.382812 11.46875 14.40625 11.453125 C 14.460938 11.421875 14.511719 11.390625 14.566406 11.359375 C 14.621094 11.328125 14.675781 11.296875 14.726562 11.265625 C 14.78125 11.234375 14.832031 11.207031 14.878906 11.175781 C 14.976562 11.117188 15.070312 11.054688 15.15625 10.996094 C 15.175781 10.980469 15.199219 10.964844 15.21875 10.949219 C 15.242188 10.933594 15.261719 10.921875 15.285156 10.90625 C 15.324219 10.875 15.367188 10.847656 15.40625 10.816406 C 15.445312 10.789062 15.484375 10.757812 15.523438 10.730469 C 15.542969 10.714844 15.5625 10.699219 15.582031 10.683594 C 15.601562 10.667969 15.621094 10.65625 15.640625 10.640625 C 15.714844 10.582031 15.789062 10.523438 15.867188 10.464844 C 15.882812 10.453125 15.902344 10.4375 15.921875 10.421875 C 15.941406 10.40625 15.960938 10.394531 15.980469 10.378906 C 16.015625 10.351562 16.054688 10.320312 16.09375 10.292969 C 16.171875 10.238281 16.253906 10.179688 16.335938 10.121094 C 16.421875 10.066406 16.507812 10.011719 16.601562 9.957031 C 16.570312 10.050781 16.542969 10.140625 16.515625 10.230469 C 16.511719 10.253906 16.503906 10.277344 16.496094 10.296875 C 16.492188 10.320312 16.484375 10.34375 16.480469 10.363281 C 16.46875 10.410156 16.457031 10.453125 16.445312 10.496094 C 16.421875 10.582031 16.402344 10.664062 16.382812 10.746094 C 16.378906 10.765625 16.371094 10.785156 16.367188 10.804688 C 16.363281 10.828125 16.359375 10.847656 16.355469 10.867188 C 16.347656 10.90625 16.339844 10.945312 16.332031 10.980469 C 16.3125 11.058594 16.300781 11.128906 16.285156 11.199219 C 16.28125 11.230469 16.273438 11.265625 16.265625 11.296875 C 16.261719 11.328125 16.253906 11.359375 16.25 11.390625 C 16.230469 11.511719 16.214844 11.617188 16.199219 11.703125 C 16.1875 11.785156 16.175781 11.867188 16.167969 11.945312 C 16.167969 11.945312 16.167969 11.9375 16.171875 11.929688 C 16.171875 11.917969 16.171875 11.902344 16.175781 11.882812 C 16.183594 11.839844 16.191406 11.78125 16.199219 11.703125 C 16.203125 11.691406 16.207031 11.675781 16.207031 11.664062 C 16.21875 11.597656 16.234375 11.527344 16.25 11.460938 C 16.253906 11.445312 16.257812 11.425781 16.261719 11.410156 C 16.265625 11.394531 16.269531 11.375 16.277344 11.359375 C 16.285156 11.328125 16.296875 11.292969 16.304688 11.261719 C 16.328125 11.195312 16.351562 11.128906 16.375 11.066406 C 16.386719 11.03125 16.402344 11 16.414062 10.96875 C 16.425781 10.9375 16.441406 10.902344 16.457031 10.871094 C 16.515625 10.746094 16.582031 10.621094 16.65625 10.5 L 16.671875 10.476562 L 16.683594 10.453125 C 16.695312 10.441406 16.703125 10.425781 16.714844 10.410156 C 16.734375 10.378906 16.753906 10.351562 16.773438 10.320312 C 16.816406 10.265625 16.859375 10.207031 16.902344 10.148438 C 17.261719 9.703125 17.738281 9.328125 18.277344 9.085938 C 18.6875 8.898438 19.09375 8.726562 19.5 8.574219 C 19.902344 8.425781 20.300781 8.300781 20.691406 8.214844 C 20.761719 8.199219 20.832031 8.183594 20.902344 8.167969 C 20.9375 8.160156 20.972656 8.15625 21.007812 8.148438 C 21.042969 8.140625 21.078125 8.132812 21.113281 8.125 C 21.148438 8.121094 21.179688 8.113281 21.214844 8.105469 C 21.234375 8.101562 21.25 8.097656 21.265625 8.097656 C 21.285156 8.09375 21.300781 8.089844 21.316406 8.085938 C 21.382812 8.074219 21.449219 8.0625 21.515625 8.050781 C 21.578125 8.039062 21.644531 8.027344 21.707031 8.015625 C 21.738281 8.011719 21.769531 8.003906 21.800781 8 C 21.832031 7.996094 21.863281 7.992188 21.894531 7.984375 C 21.925781 7.980469 21.953125 7.976562 21.984375 7.972656 C 22.015625 7.96875 22.046875 7.960938 22.074219 7.957031 C 22.132812 7.949219 22.191406 7.941406 22.25 7.933594 C 22.265625 7.929688 22.277344 7.929688 22.292969 7.925781 C 22.308594 7.925781 22.320312 7.921875 22.335938 7.921875 C 22.363281 7.917969 22.390625 7.914062 22.417969 7.910156 C 22.472656 7.902344 22.527344 7.894531 22.582031 7.886719 C 22.632812 7.882812 22.6875 7.875 22.738281 7.871094 C 22.789062 7.863281 22.839844 7.859375 22.886719 7.855469 C 22.914062 7.851562 22.9375 7.847656 22.960938 7.847656 C 22.984375 7.84375 23.007812 7.839844 23.03125 7.839844 C 23.078125 7.835938 23.125 7.832031 23.167969 7.828125 C 23.214844 7.824219 23.257812 7.820312 23.300781 7.816406 C 23.339844 7.8125 23.382812 7.808594 23.421875 7.804688 C 23.503906 7.800781 23.578125 7.796875 23.648438 7.792969 C 23.683594 7.789062 23.71875 7.789062 23.753906 7.789062 C 23.769531 7.785156 23.785156 7.785156 23.800781 7.785156 C 23.816406 7.785156 23.832031 7.785156 23.847656 7.78125 C 23.972656 7.777344 24.074219 7.777344 24.160156 7.773438 C 24.179688 7.773438 24.199219 7.773438 24.21875 7.773438 C 24.238281 7.773438 24.253906 7.773438 24.269531 7.773438 C 24.285156 7.773438 24.300781 7.773438 24.3125 7.777344 C 24.328125 7.777344 24.339844 7.777344 24.351562 7.777344 C 24.394531 7.777344 24.414062 7.777344 24.414062 7.777344 C 24.425781 7.847656 24.257812 7.972656 23.976562 8.175781 C 23.835938 8.273438 23.667969 8.394531 23.476562 8.53125 C 23.285156 8.667969 23.074219 8.824219 22.851562 8.996094 C 22.613281 9.179688 22.359375 9.386719 22.101562 9.609375 C 21.816406 9.851562 21.511719 10.066406 21.191406 10.253906 C 20.867188 10.4375 20.527344 10.59375 20.164062 10.714844 C 20.117188 10.734375 20.070312 10.75 20.03125 10.761719 C 20.011719 10.769531 19.992188 10.777344 19.976562 10.78125 C 19.96875 10.785156 19.957031 10.789062 19.953125 10.789062 C 19.945312 10.792969 19.9375 10.796875 19.929688 10.796875 C 19.875 10.816406 19.84375 10.828125 19.84375 10.828125 C 19.871094 10.835938 19.902344 10.839844 19.9375 10.839844 C 19.957031 10.84375 19.972656 10.84375 19.992188 10.84375 C 20.011719 10.84375 20.03125 10.839844 20.050781 10.839844 C 20.128906 10.835938 20.222656 10.824219 20.320312 10.804688 C 20.332031 10.804688 20.34375 10.800781 20.355469 10.796875 C 20.367188 10.796875 20.382812 10.792969 20.394531 10.792969 C 20.417969 10.785156 20.445312 10.78125 20.472656 10.773438 C 20.527344 10.765625 20.582031 10.75 20.636719 10.738281 C 20.648438 10.734375 20.664062 10.730469 20.679688 10.726562 C 20.691406 10.722656 20.707031 10.71875 20.722656 10.714844 C 20.75 10.707031 20.777344 10.699219 20.808594 10.691406 C 20.867188 10.679688 20.925781 10.660156 20.988281 10.644531 C 20.914062 10.71875 20.839844 10.792969 20.761719 10.863281 C 20.6875 10.9375 20.609375 11.007812 20.535156 11.082031 C 20.457031 11.152344 20.382812 11.226562 20.304688 11.296875 C 20.230469 11.371094 20.152344 11.445312 20.078125 11.519531 C 20.003906 11.597656 19.929688 11.671875 19.859375 11.753906 C 19.839844 11.773438 19.820312 11.792969 19.804688 11.8125 C 19.785156 11.832031 19.769531 11.855469 19.75 11.875 C 19.714844 11.917969 19.683594 11.957031 19.648438 12 C 19.511719 12.175781 19.386719 12.359375 19.273438 12.5625 C 19.230469 12.570312 19.1875 12.574219 19.144531 12.582031 C 19.125 12.582031 19.101562 12.585938 19.082031 12.589844 C 19.0625 12.59375 19.042969 12.59375 19.019531 12.597656 C 18.9375 12.609375 18.859375 12.621094 18.785156 12.632812 C 18.746094 12.640625 18.710938 12.644531 18.675781 12.648438 C 18.640625 12.65625 18.605469 12.660156 18.574219 12.667969 C 18.507812 12.679688 18.445312 12.6875 18.386719 12.699219 C 18.332031 12.707031 18.28125 12.714844 18.234375 12.722656 C 18.222656 12.726562 18.214844 12.726562 18.203125 12.730469 C 18.191406 12.730469 18.183594 12.734375 18.171875 12.734375 C 18.152344 12.738281 18.136719 12.742188 18.121094 12.746094 C 18.058594 12.757812 18.023438 12.761719 18.023438 12.761719 C 18.082031 12.769531 18.148438 12.769531 18.230469 12.769531 C 18.3125 12.773438 18.40625 12.769531 18.503906 12.765625 C 18.703125 12.761719 18.9375 12.75 19.183594 12.742188 C 19.152344 12.800781 19.125 12.859375 19.089844 12.917969 C 19.058594 12.972656 19.027344 13.027344 18.992188 13.085938 C 18.960938 13.140625 18.925781 13.195312 18.890625 13.25 C 18.871094 13.273438 18.855469 13.300781 18.835938 13.328125 C 18.828125 13.339844 18.816406 13.355469 18.808594 13.367188 C 18.800781 13.378906 18.792969 13.394531 18.78125 13.40625 C 18.746094 13.460938 18.710938 13.511719 18.671875 13.5625 C 18.652344 13.585938 18.632812 13.613281 18.617188 13.636719 C 18.605469 13.648438 18.597656 13.664062 18.585938 13.675781 C 18.578125 13.6875 18.566406 13.699219 18.558594 13.714844 C 18.484375 13.8125 18.40625 13.910156 18.332031 14.007812 C 18.277344 14.078125 18.222656 14.144531 18.164062 14.207031 C 18.132812 14.238281 18.105469 14.269531 18.074219 14.300781 C 18.042969 14.328125 18.011719 14.359375 17.980469 14.390625 C 17.917969 14.449219 17.855469 14.503906 17.785156 14.558594 C 17.753906 14.585938 17.71875 14.613281 17.683594 14.640625 C 17.648438 14.664062 17.613281 14.691406 17.578125 14.714844 C 17.542969 14.738281 17.507812 14.761719 17.46875 14.785156 C 17.453125 14.796875 17.433594 14.808594 17.414062 14.820312 C 17.394531 14.832031 17.375 14.84375 17.359375 14.855469 C 17.285156 14.898438 17.207031 14.941406 17.125 14.980469 C 17.085938 15 17.046875 15.019531 17.007812 15.035156 C 16.984375 15.046875 16.964844 15.054688 16.945312 15.0625 C 16.925781 15.074219 16.902344 15.082031 16.882812 15.089844 C 16.800781 15.125 16.714844 15.15625 16.628906 15.183594 C 16.574219 15.203125 16.515625 15.21875 16.460938 15.238281 C 16.449219 15.242188 16.433594 15.246094 16.421875 15.25 C 16.40625 15.253906 16.394531 15.257812 16.378906 15.261719 C 16.355469 15.273438 16.328125 15.28125 16.300781 15.289062 C 16.199219 15.324219 16.101562 15.355469 16.011719 15.382812 C 15.964844 15.394531 15.921875 15.410156 15.878906 15.421875 C 15.855469 15.429688 15.835938 15.4375 15.816406 15.441406 C 15.796875 15.449219 15.777344 15.453125 15.757812 15.460938 C 15.679688 15.484375 15.609375 15.507812 15.542969 15.523438 C 15.414062 15.5625 15.316406 15.589844 15.25 15.605469 C 15.214844 15.617188 15.191406 15.621094 15.171875 15.628906 C 15.15625 15.632812 15.148438 15.632812 15.148438 15.632812 C 15.210938 15.644531 15.269531 15.652344 15.328125 15.660156 C 15.386719 15.667969 15.441406 15.675781 15.496094 15.679688 C 15.605469 15.6875 15.703125 15.691406 15.800781 15.683594 C 15.894531 15.679688 15.980469 15.667969 16.066406 15.648438 C 16.085938 15.644531 16.105469 15.640625 16.128906 15.632812 C 16.148438 15.628906 16.167969 15.621094 16.1875 15.617188 C 16.226562 15.605469 16.265625 15.589844 16.304688 15.578125 C 16.382812 15.546875 16.453125 15.511719 16.527344 15.46875 C 16.5625 15.449219 16.597656 15.425781 16.632812 15.402344 C 16.667969 15.378906 16.703125 15.351562 16.738281 15.328125 C 16.808594 15.277344 16.878906 15.21875 16.949219 15.15625 C 16.96875 15.140625 16.984375 15.125 17.003906 15.109375 C 17.023438 15.09375 17.039062 15.078125 17.058594 15.058594 C 17.09375 15.027344 17.132812 14.992188 17.171875 14.957031 C 17.140625 15.007812 17.109375 15.0625 17.085938 15.117188 C 17.078125 15.132812 17.074219 15.148438 17.066406 15.164062 C 17.0625 15.175781 17.054688 15.191406 17.050781 15.207031 C 17.039062 15.238281 17.027344 15.269531 17.019531 15.300781 C 17 15.367188 16.984375 15.429688 16.96875 15.496094 C 16.960938 15.527344 16.953125 15.5625 16.945312 15.59375 C 16.941406 15.609375 16.9375 15.628906 16.933594 15.644531 C 16.929688 15.660156 16.925781 15.675781 16.925781 15.691406 C 16.898438 15.824219 16.875 15.949219 16.84375 16.058594 C 16.839844 16.082031 16.832031 16.109375 16.820312 16.136719 C 16.8125 16.160156 16.804688 16.183594 16.796875 16.207031 C 16.78125 16.25 16.757812 16.289062 16.734375 16.324219 C 16.699219 16.371094 16.664062 16.417969 16.628906 16.460938 C 16.613281 16.480469 16.59375 16.503906 16.574219 16.527344 L 16.5625 16.542969 L 16.546875 16.558594 L 16.519531 16.589844 C 16.449219 16.675781 16.375 16.761719 16.300781 16.855469 C 16.28125 16.878906 16.261719 16.898438 16.242188 16.925781 C 16.226562 16.949219 16.207031 16.972656 16.1875 17 C 16.152344 17.050781 16.117188 17.105469 16.082031 17.160156 C 16.042969 17.21875 16.007812 17.28125 15.972656 17.347656 C 15.9375 17.414062 15.902344 17.484375 15.871094 17.5625 C 15.753906 17.820312 15.617188 18.058594 15.460938 18.273438 C 15.304688 18.496094 15.128906 18.699219 14.949219 18.90625 C 14.902344 18.960938 14.855469 19.011719 14.8125 19.0625 C 14.789062 19.089844 14.765625 19.113281 14.742188 19.140625 C 14.71875 19.167969 14.695312 19.191406 14.671875 19.21875 C 14.578125 19.324219 14.488281 19.429688 14.394531 19.539062 C 14.382812 19.554688 14.371094 19.566406 14.359375 19.582031 C 14.347656 19.59375 14.335938 19.609375 14.324219 19.621094 C 14.300781 19.648438 14.28125 19.679688 14.257812 19.707031 C 14.210938 19.761719 14.167969 19.820312 14.125 19.878906 C 14.078125 19.9375 14.035156 19.996094 13.992188 20.058594 C 13.980469 20.074219 13.972656 20.089844 13.960938 20.105469 C 13.949219 20.121094 13.941406 20.136719 13.929688 20.152344 C 13.910156 20.183594 13.890625 20.214844 13.871094 20.246094 C 13.808594 20.265625 13.746094 20.285156 13.683594 20.300781 C 13.589844 20.316406 13.5 20.332031 13.414062 20.347656 C 13.371094 20.355469 13.328125 20.363281 13.289062 20.371094 C 13.265625 20.375 13.246094 20.378906 13.226562 20.382812 C 13.207031 20.386719 13.1875 20.390625 13.167969 20.394531 C 13.011719 20.425781 12.871094 20.453125 12.75 20.476562 C 12.515625 20.523438 12.371094 20.550781 12.371094 20.550781 C 12.554688 20.546875 12.761719 20.515625 12.984375 20.472656 C 13.039062 20.460938 13.097656 20.449219 13.152344 20.433594 C 13.183594 20.429688 13.210938 20.421875 13.238281 20.414062 C 13.269531 20.40625 13.296875 20.402344 13.328125 20.394531 C 13.445312 20.363281 13.5625 20.332031 13.683594 20.300781 C 13.734375 20.292969 13.789062 20.28125 13.84375 20.273438 C 13.765625 20.351562 13.6875 20.429688 13.605469 20.503906 C 13.585938 20.523438 13.566406 20.539062 13.546875 20.558594 C 13.527344 20.578125 13.503906 20.59375 13.484375 20.613281 C 13.445312 20.648438 13.40625 20.679688 13.363281 20.714844 C 13.28125 20.777344 13.199219 20.839844 13.113281 20.894531 C 13.074219 20.921875 13.03125 20.949219 12.988281 20.976562 C 12.964844 20.988281 12.945312 21 12.921875 21.011719 C 12.902344 21.023438 12.878906 21.035156 12.859375 21.046875 C 12.6875 21.140625 12.511719 21.207031 12.328125 21.25 C 12.234375 21.269531 12.144531 21.285156 12.050781 21.292969 C 11.953125 21.296875 11.859375 21.296875 11.761719 21.289062 C 11.703125 21.425781 11.640625 21.5625 11.582031 21.703125 C 11.566406 21.738281 11.550781 21.773438 11.535156 21.808594 C 11.527344 21.824219 11.519531 21.84375 11.511719 21.859375 C 11.503906 21.878906 11.496094 21.894531 11.492188 21.914062 C 11.460938 21.984375 11.433594 22.054688 11.402344 22.128906 C 11.375 22.199219 11.347656 22.273438 11.320312 22.347656 C 11.304688 22.382812 11.289062 22.417969 11.277344 22.457031 C 11.261719 22.492188 11.25 22.527344 11.234375 22.566406 C 11.183594 22.710938 11.128906 22.859375 11.078125 23.007812 C 11.054688 23.082031 11.027344 23.15625 11.003906 23.230469 C 10.980469 23.304688 10.957031 23.378906 10.933594 23.453125 C 10.886719 23.597656 10.839844 23.746094 10.796875 23.890625 C 10.789062 23.910156 10.785156 23.925781 10.777344 23.945312 C 10.773438 23.964844 10.769531 23.980469 10.761719 24 C 10.753906 24.035156 10.742188 24.074219 10.734375 24.109375 C 10.710938 24.179688 10.691406 24.253906 10.671875 24.324219 C 10.652344 24.394531 10.632812 24.464844 10.613281 24.535156 C 10.605469 24.570312 10.597656 24.601562 10.585938 24.636719 C 10.582031 24.65625 10.578125 24.671875 10.574219 24.6875 C 10.570312 24.707031 10.5625 24.722656 10.558594 24.742188 C 10.527344 24.878906 10.492188 25.011719 10.460938 25.140625 C 10.445312 25.207031 10.429688 25.269531 10.417969 25.332031 C 10.410156 25.363281 10.402344 25.394531 10.394531 25.425781 C 10.390625 25.433594 10.390625 25.441406 10.386719 25.449219 C 10.386719 25.457031 10.386719 25.464844 10.382812 25.46875 C 10.378906 25.484375 10.378906 25.5 10.375 25.515625 C 10.320312 25.757812 10.273438 25.984375 10.234375 26.179688 C 10.230469 26.207031 10.226562 26.230469 10.222656 26.253906 C 10.21875 26.277344 10.214844 26.300781 10.207031 26.324219 C 10.199219 26.371094 10.191406 26.417969 10.183594 26.460938 C 10.171875 26.546875 10.15625 26.625 10.144531 26.695312 C 10.125 26.839844 10.109375 26.949219 10.101562 27.023438 C 10.09375 27.0625 10.042969 27.0625 10.039062 27.027344 C 10.007812 26.832031 9.957031 26.640625 9.878906 26.457031 C 9.84375 26.367188 9.800781 26.28125 9.75 26.195312 C 9.738281 26.171875 9.726562 26.152344 9.714844 26.132812 C 9.699219 26.109375 9.6875 26.089844 9.675781 26.070312 C 9.648438 26.027344 9.621094 25.988281 9.59375 25.949219 C 9.5625 25.90625 9.558594 25.851562 9.578125 25.804688 L 9.714844 25.476562 C 9.730469 25.4375 9.746094 25.402344 9.761719 25.363281 C 9.769531 25.34375 9.777344 25.324219 9.785156 25.304688 C 9.789062 25.292969 9.792969 25.285156 9.796875 25.273438 C 9.800781 25.265625 9.804688 25.253906 9.808594 25.242188 C 9.84375 25.164062 9.875 25.082031 9.910156 25 C 9.941406 24.914062 9.976562 24.828125 10.007812 24.742188 C 10.027344 24.699219 10.042969 24.652344 10.058594 24.609375 C 10.066406 24.585938 10.074219 24.5625 10.085938 24.542969 C 10.09375 24.519531 10.101562 24.496094 10.109375 24.472656 C 10.179688 24.292969 10.25 24.109375 10.320312 23.917969 C 10.328125 23.894531 10.335938 23.871094 10.347656 23.847656 C 10.355469 23.824219 10.363281 23.800781 10.371094 23.777344 C 10.390625 23.730469 10.410156 23.683594 10.425781 23.636719 C 10.460938 23.539062 10.5 23.445312 10.535156 23.347656 C 10.550781 23.300781 10.570312 23.253906 10.585938 23.207031 L 10.613281 23.132812 C 10.621094 23.109375 10.628906 23.085938 10.640625 23.0625 C 10.675781 22.96875 10.710938 22.871094 10.746094 22.777344 C 10.78125 22.683594 10.816406 22.589844 10.851562 22.496094 C 10.859375 22.472656 10.867188 22.449219 10.878906 22.425781 C 10.882812 22.414062 10.886719 22.402344 10.890625 22.390625 C 10.894531 22.378906 10.898438 22.367188 10.902344 22.359375 C 10.921875 22.3125 10.9375 22.265625 10.957031 22.222656 C 10.992188 22.128906 11.023438 22.039062 11.058594 21.953125 C 11.074219 21.910156 11.089844 21.863281 11.105469 21.820312 C 11.113281 21.800781 11.121094 21.777344 11.128906 21.757812 C 11.136719 21.746094 11.140625 21.734375 11.144531 21.722656 C 11.148438 21.714844 11.152344 21.703125 11.15625 21.691406 C 11.222656 21.523438 11.285156 21.359375 11.339844 21.207031 L 11.417969 21.019531 L 11.5 20.832031 L 11.660156 20.457031 C 11.671875 20.425781 11.6875 20.398438 11.703125 20.367188 L 11.742188 20.273438 L 11.828125 20.089844 L 11.910156 19.902344 C 11.925781 19.871094 11.9375 19.839844 11.953125 19.808594 L 11.996094 19.71875 C 12.113281 19.472656 12.230469 19.226562 12.351562 18.988281 L 12.445312 18.804688 L 12.488281 18.714844 C 12.503906 18.683594 12.519531 18.652344 12.535156 18.625 L 12.726562 18.265625 L 12.773438 18.175781 L 12.796875 18.128906 C 12.804688 18.113281 12.8125 18.097656 12.820312 18.085938 L 12.921875 17.90625 L 13.019531 17.730469 L 13.066406 17.640625 L 13.09375 17.597656 C 13.101562 17.582031 13.109375 17.566406 13.117188 17.550781 L 13.320312 17.199219 L 13.371094 17.113281 C 13.390625 17.082031 13.40625 17.054688 13.425781 17.023438 L 13.53125 16.851562 L 13.636719 16.675781 C 13.671875 16.621094 13.707031 16.5625 13.742188 16.503906 L 13.960938 16.160156 C 13.980469 16.132812 13.996094 16.105469 14.015625 16.078125 L 14.074219 15.992188 L 14.1875 15.824219 L 14.296875 15.652344 C 14.316406 15.625 14.335938 15.597656 14.355469 15.570312 L 14.414062 15.488281 L 14.589844 15.238281 C 14.609375 15.210938 14.628906 15.179688 14.648438 15.152344 L 14.886719 14.824219 L 14.917969 14.785156 C 14.929688 14.769531 14.9375 14.757812 14.949219 14.742188 L 15.011719 14.664062 L 15.132812 14.5 C 15.175781 14.449219 15.214844 14.394531 15.257812 14.339844 L 15.382812 14.183594 L 15.511719 14.023438 L 15.542969 13.984375 C 15.554688 13.96875 15.5625 13.957031 15.574219 13.945312 L 15.640625 13.867188 L 15.769531 13.710938 L 15.835938 13.632812 C 15.855469 13.605469 15.878906 13.578125 15.898438 13.554688 L 16.167969 13.246094 C 16.1875 13.222656 16.210938 13.195312 16.234375 13.171875 L 16.304688 13.097656 L 16.441406 12.945312 C 16.808594 12.546875 17.1875 12.164062 17.585938 11.792969 C 17.984375 11.425781 18.394531 11.074219 18.820312 10.738281 C 18.386719 11.0625 17.960938 11.402344 17.554688 11.761719 C 17.144531 12.117188 16.75 12.492188 16.371094 12.882812 L 16.226562 13.03125 L 16.15625 13.101562 C 16.132812 13.128906 16.109375 13.152344 16.085938 13.175781 L 15.808594 13.476562 C 15.785156 13.5 15.765625 13.527344 15.742188 13.554688 L 15.671875 13.628906 L 15.539062 13.78125 L 15.46875 13.859375 C 15.457031 13.871094 15.449219 13.886719 15.4375 13.898438 L 15.402344 13.9375 L 15.140625 14.25 C 15.097656 14.300781 15.054688 14.355469 15.011719 14.40625 L 14.882812 14.566406 L 14.816406 14.648438 C 14.804688 14.660156 14.796875 14.671875 14.785156 14.6875 L 14.753906 14.726562 L 14.503906 15.050781 C 14.480469 15.078125 14.460938 15.105469 14.441406 15.132812 L 14.378906 15.214844 L 14.257812 15.378906 L 14.195312 15.460938 C 14.175781 15.488281 14.15625 15.515625 14.136719 15.542969 L 14.019531 15.710938 L 13.898438 15.878906 L 13.839844 15.960938 C 13.820312 15.988281 13.800781 16.019531 13.78125 16.046875 L 13.550781 16.386719 C 13.511719 16.441406 13.476562 16.5 13.4375 16.554688 L 13.328125 16.726562 L 13.214844 16.898438 C 13.195312 16.929688 13.179688 16.957031 13.160156 16.988281 L 13.105469 17.074219 L 12.890625 17.421875 L 12.875 17.445312 L 12.863281 17.464844 L 12.835938 17.511719 L 12.785156 17.597656 L 12.679688 17.777344 L 12.5625 17.972656 L 12.550781 17.996094 L 12.523438 18.042969 L 12.472656 18.128906 L 12.273438 18.488281 C 12.253906 18.515625 12.238281 18.546875 12.222656 18.578125 L 12.171875 18.667969 L 12.074219 18.847656 C 11.945312 19.089844 11.820312 19.332031 11.695312 19.578125 L 11.648438 19.667969 C 11.632812 19.699219 11.617188 19.730469 11.605469 19.761719 L 11.511719 19.945312 L 11.421875 20.128906 L 11.378906 20.222656 C 11.363281 20.253906 11.347656 20.285156 11.332031 20.316406 L 11.160156 20.6875 L 11.074219 20.875 L 11.050781 20.921875 L 11.03125 20.96875 L 10.988281 21.0625 C 10.824219 20.976562 10.667969 20.875 10.527344 20.753906 C 10.492188 20.726562 10.457031 20.695312 10.425781 20.664062 C 10.390625 20.632812 10.359375 20.597656 10.328125 20.566406 C 10.269531 20.496094 10.214844 20.425781 10.167969 20.351562 C 10.070312 20.203125 10.003906 20.042969 9.972656 19.867188 C 9.964844 19.824219 9.960938 19.78125 9.957031 19.734375 C 9.957031 19.714844 9.957031 19.691406 9.957031 19.667969 C 9.957031 19.644531 9.957031 19.621094 9.960938 19.597656 C 9.964844 19.507812 9.984375 19.414062 10.011719 19.316406 C 10.042969 19.222656 10.066406 19.132812 10.085938 19.042969 C 10.097656 19 10.109375 18.957031 10.117188 18.914062 C 10.128906 18.871094 10.136719 18.828125 10.144531 18.785156 C 10.164062 18.84375 10.1875 18.898438 10.207031 18.949219 C 10.21875 18.976562 10.230469 19 10.238281 19.027344 C 10.25 19.050781 10.261719 19.078125 10.273438 19.101562 C 10.316406 19.195312 10.363281 19.285156 10.40625 19.363281 C 10.496094 19.519531 10.585938 19.644531 10.664062 19.742188 C 10.742188 19.835938 10.808594 19.90625 10.855469 19.949219 C 10.902344 19.992188 10.933594 20.011719 10.933594 20.011719 C 10.773438 19.882812 10.628906 19.675781 10.5 19.425781 C 10.46875 19.363281 10.4375 19.300781 10.410156 19.234375 C 10.394531 19.199219 10.378906 19.164062 10.367188 19.128906 C 10.359375 19.113281 10.351562 19.097656 10.34375 19.078125 C 10.339844 19.0625 10.332031 19.042969 10.324219 19.027344 C 10.273438 18.882812 10.226562 18.738281 10.183594 18.589844 C 10.195312 18.515625 10.207031 18.441406 10.214844 18.367188 C 10.222656 18.332031 10.226562 18.296875 10.230469 18.257812 C 10.238281 18.222656 10.242188 18.1875 10.246094 18.152344 C 10.269531 18.007812 10.289062 17.867188 10.3125 17.722656 C 10.316406 17.6875 10.324219 17.652344 10.332031 17.613281 C 10.335938 17.597656 10.339844 17.578125 10.339844 17.558594 C 10.34375 17.542969 10.347656 17.523438 10.351562 17.503906 C 10.367188 17.433594 10.386719 17.359375 10.40625 17.28125 C 10.425781 17.207031 10.449219 17.132812 10.472656 17.054688 C 10.488281 17.015625 10.5 16.976562 10.515625 16.9375 C 10.523438 16.917969 10.527344 16.898438 10.535156 16.878906 C 10.542969 16.855469 10.554688 16.835938 10.5625 16.816406 C 10.597656 16.929688 10.640625 17.039062 10.679688 17.140625 C 10.722656 17.242188 10.761719 17.335938 10.804688 17.429688 C 10.886719 17.609375 10.972656 17.765625 11.042969 17.894531 C 11.117188 18.019531 11.183594 18.121094 11.230469 18.191406 C 11.273438 18.257812 11.300781 18.292969 11.300781 18.292969 C 11.257812 18.234375 11.21875 18.167969 11.179688 18.101562 C 11.15625 18.066406 11.136719 18.03125 11.117188 17.996094 C 11.101562 17.957031 11.082031 17.921875 11.0625 17.882812 C 10.992188 17.730469 10.925781 17.5625 10.863281 17.386719 C 10.824219 17.269531 10.796875 17.148438 10.777344 17.019531 " fill-opacity="1" fill-rule="nonzero"/></g><g clip-path="url(#2db68e329f)"><path fill="#727880" d="M 9.363281 26.351562 C 8.917969 26.101562 8.484375 25.824219 8.070312 25.527344 C 8.019531 25.488281 7.96875 25.449219 7.917969 25.410156 L 7.765625 25.296875 L 7.613281 25.175781 C 7.5625 25.136719 7.511719 25.097656 7.464844 25.054688 L 7.316406 24.933594 C 7.292969 24.914062 7.269531 24.890625 7.246094 24.871094 L 7.171875 24.808594 C 7.125 24.765625 7.074219 24.722656 7.027344 24.679688 L 6.886719 24.550781 C 6.511719 24.203125 6.160156 23.828125 5.828125 23.4375 C 5.5 23.046875 5.195312 22.632812 4.914062 22.203125 C 3.789062 20.488281 3.085938 18.5 2.882812 16.453125 L 2.867188 16.261719 C 2.863281 16.230469 2.859375 16.199219 2.855469 16.164062 L 2.851562 16.070312 L 2.839844 15.878906 L 2.828125 15.683594 L 2.824219 15.589844 C 2.824219 15.554688 2.824219 15.523438 2.824219 15.492188 L 2.820312 15.300781 C 2.820312 15.234375 2.820312 15.171875 2.820312 15.105469 C 2.820312 15.042969 2.820312 14.976562 2.824219 14.914062 C 2.828125 14.785156 2.828125 14.65625 2.835938 14.527344 C 2.839844 14.464844 2.84375 14.402344 2.847656 14.335938 L 2.863281 14.144531 C 2.867188 14.113281 2.867188 14.082031 2.871094 14.046875 L 2.882812 13.953125 L 2.902344 13.761719 L 2.925781 13.570312 C 2.933594 13.503906 2.941406 13.441406 2.953125 13.378906 C 3.101562 12.359375 3.378906 11.359375 3.777344 10.40625 C 3.976562 9.933594 4.203125 9.46875 4.460938 9.023438 C 4.71875 8.574219 5.003906 8.144531 5.3125 7.730469 C 5.9375 6.90625 6.667969 6.164062 7.480469 5.519531 C 8.292969 4.878906 9.1875 4.335938 10.128906 3.90625 C 10.1875 3.878906 10.246094 3.855469 10.304688 3.828125 C 10.367188 3.804688 10.425781 3.777344 10.484375 3.753906 L 10.664062 3.679688 L 10.753906 3.640625 L 10.84375 3.609375 L 11.027344 3.539062 L 11.210938 3.472656 C 11.332031 3.429688 11.457031 3.390625 11.578125 3.347656 C 11.640625 3.328125 11.703125 3.308594 11.761719 3.289062 C 11.824219 3.273438 11.886719 3.25 11.949219 3.234375 C 12.074219 3.199219 12.199219 3.164062 12.324219 3.132812 C 12.574219 3.066406 12.828125 3.007812 13.082031 2.957031 C 14.097656 2.757812 15.136719 2.664062 16.171875 2.699219 C 17.207031 2.730469 18.238281 2.886719 19.234375 3.164062 L 19.515625 3.246094 L 19.605469 3.277344 L 19.792969 3.335938 L 19.976562 3.398438 L 20.066406 3.433594 L 20.15625 3.464844 L 20.339844 3.535156 L 20.519531 3.609375 L 20.609375 3.644531 L 20.699219 3.683594 C 20.933594 3.785156 21.167969 3.898438 21.398438 4.015625 L 21.484375 4.058594 C 21.511719 4.074219 21.542969 4.089844 21.570312 4.105469 L 21.738281 4.199219 L 21.90625 4.296875 C 21.933594 4.3125 21.960938 4.328125 21.988281 4.34375 L 22.070312 4.394531 C 22.511719 4.664062 22.9375 4.960938 23.332031 5.289062 C 23.730469 5.617188 24.105469 5.96875 24.457031 6.34375 C 24.808594 6.71875 25.136719 7.117188 25.4375 7.527344 C 25.742188 7.941406 26.019531 8.371094 26.269531 8.816406 C 26.777344 9.703125 27.191406 10.640625 27.496094 11.609375 C 27.410156 11.371094 27.320312 11.132812 27.222656 10.898438 C 27.125 10.664062 27.019531 10.433594 26.910156 10.203125 C 26.800781 9.972656 26.683594 9.75 26.566406 9.523438 L 26.472656 9.359375 C 26.457031 9.332031 26.441406 9.300781 26.425781 9.273438 L 26.285156 9.027344 L 26.1875 8.867188 C 25.660156 8 25.039062 7.1875 24.332031 6.464844 C 23.976562 6.101562 23.601562 5.761719 23.203125 5.449219 C 22.804688 5.136719 22.386719 4.851562 21.949219 4.597656 L 21.871094 4.546875 C 21.84375 4.53125 21.816406 4.515625 21.789062 4.5 L 21.453125 4.320312 C 21.425781 4.304688 21.398438 4.289062 21.371094 4.277344 L 21.285156 4.234375 C 21.058594 4.121094 20.828125 4.015625 20.59375 3.921875 L 20.507812 3.882812 L 20.417969 3.847656 L 20.066406 3.714844 L 19.886719 3.652344 L 19.707031 3.59375 L 19.523438 3.539062 L 19.34375 3.484375 L 19.160156 3.433594 C 15.246094 2.390625 10.863281 3.296875 7.703125 5.796875 C 6.914062 6.421875 6.203125 7.144531 5.59375 7.941406 C 5.292969 8.339844 5.011719 8.757812 4.761719 9.191406 C 4.726562 9.246094 4.699219 9.300781 4.667969 9.355469 C 4.636719 9.410156 4.605469 9.464844 4.578125 9.519531 L 4.488281 9.6875 L 4.445312 9.769531 C 4.429688 9.796875 4.417969 9.828125 4.402344 9.855469 L 4.320312 10.023438 C 4.292969 10.078125 4.265625 10.136719 4.242188 10.195312 C 4.214844 10.25 4.1875 10.308594 4.164062 10.363281 L 4.085938 10.539062 C 3.890625 11 3.722656 11.472656 3.585938 11.957031 C 3.445312 12.4375 3.339844 12.929688 3.261719 13.425781 C 3.109375 14.414062 3.074219 15.425781 3.160156 16.425781 C 3.332031 18.429688 3.992188 20.394531 5.058594 22.109375 C 5.59375 22.96875 6.230469 23.765625 6.957031 24.480469 C 7.679688 25.191406 8.492188 25.820312 9.363281 26.351562 " fill-opacity="1" fill-rule="nonzero"/></g></svg>