<svg xmlns="http://www.w3.org/2000/svg" xmlns:xlink="http://www.w3.org/1999/xlink" width="40" zoomAndPan="magnify" viewBox="0 0 30 30.000001" height="40" preserveAspectRatio="xMidYMid meet" version="1.0"><defs><g/><clipPath id="62f8bf5e86"><path d="M 0.484375 0 L 29.515625 0 L 29.515625 28.886719 L 0.484375 28.886719 Z M 0.484375 0 " clip-rule="nonzero"/></clipPath><clipPath id="89591a281e"><path d="M 15 -0.144531 C 6.984375 -0.144531 0.484375 6.355469 0.484375 14.371094 C 0.484375 22.386719 6.984375 28.886719 15 28.886719 C 23.015625 28.886719 29.515625 22.386719 29.515625 14.371094 C 29.515625 6.355469 23.015625 -0.144531 15 -0.144531 " clip-rule="nonzero"/></clipPath></defs><g clip-path="url(#62f8bf5e86)"><g clip-path="url(#89591a281e)"><path fill="#dee2e6" d="M 0.484375 -0.144531 L 29.515625 -0.144531 L 29.515625 28.886719 L 0.484375 28.886719 Z M 0.484375 -0.144531 " fill-opacity="1" fill-rule="nonzero"/></g></g><g fill="#6c757d" fill-opacity="1"><g transform="translate(19.958287, 23.177461)"><g><path d="M 1.132812 4.402344 C 4.628906 3.96875 8.070312 1.339844 8.070312 -0.90625 C 8.070312 -3.195312 4.949219 -5.421875 1.777344 -5.421875 L 1.53125 -5.421875 L 2.324219 -9.257812 L 6.953125 -9.296875 L 7.066406 -9.957031 L 7.160156 -10.394531 L 7.046875 -10.394531 C 6.992188 -10.335938 6.558594 -10.296875 6.105469 -10.296875 L 6.085938 -10.28125 L 2.097656 -10.28125 L 0.925781 -4.402344 L 1.152344 -4.234375 L 1.644531 -4.214844 C 4.382812 -4.214844 7.066406 -2.382812 7.066406 -0.527344 C 7.066406 1.492188 4.121094 3.816406 1.113281 4.195312 Z M 1.132812 4.402344 "/></g></g></g></svg>