<svg xmlns="http://www.w3.org/2000/svg" xmlns:xlink="http://www.w3.org/1999/xlink" width="246" zoomAndPan="magnify" viewBox="0 0 184.5 258.749997" height="345" preserveAspectRatio="xMidYMid meet" version="1.0"><defs><g/><clipPath id="6f428ba59f"><path d="M 0 0.226562 L 184 0.226562 L 184 258.277344 L 0 258.277344 Z M 0 0.226562 " clip-rule="nonzero"/></clipPath><clipPath id="7f092ddbdb"><path d="M 33 196 L 50 196 L 50 258.277344 L 33 258.277344 Z M 33 196 " clip-rule="nonzero"/></clipPath><clipPath id="916b36e500"><path d="M 33 196 L 49 196 L 49 258.277344 L 33 258.277344 Z M 33 196 " clip-rule="nonzero"/></clipPath><clipPath id="75a90beb6f"><path d="M 37 0.226562 L 48 0.226562 L 48 73 L 37 73 Z M 37 0.226562 " clip-rule="nonzero"/></clipPath><clipPath id="a1d6445709"><path d="M 31 0.226562 L 54 0.226562 L 54 73 L 31 73 Z M 31 0.226562 " clip-rule="nonzero"/></clipPath><clipPath id="04c5d05358"><path d="M 26 0.226562 L 59 0.226562 L 59 73 L 26 73 Z M 26 0.226562 " clip-rule="nonzero"/></clipPath><clipPath id="96ee31a938"><path d="M 21 0.226562 L 64 0.226562 L 64 73 L 21 73 Z M 21 0.226562 " clip-rule="nonzero"/></clipPath><clipPath id="4a0023916c"><path d="M 142.335938 201.019531 L 162.585938 201.019531 L 162.585938 202.519531 L 142.335938 202.519531 Z M 142.335938 201.019531 " clip-rule="nonzero"/></clipPath></defs><g clip-path="url(#6f428ba59f)"><path fill="#ffffff" d="M 0 0.226562 L 184.5 0.226562 L 184.5 258.976562 L 0 258.976562 Z M 0 0.226562 " fill-opacity="1" fill-rule="nonzero"/><path fill="#5d7466" d="M 0 0.226562 L 184.5 0.226562 L 184.5 258.976562 L 0 258.976562 Z M 0 0.226562 " fill-opacity="1" fill-rule="nonzero"/></g><path fill="#ffffff" d="M 41.617188 194.441406 C 42.851562 170.816406 45.128906 125.546875 45.128906 113.632812 C 45.128906 95.414062 42.898438 85.289062 41.617188 84.609375 C 40.335938 85.289062 38.105469 95.414062 38.105469 113.632812 C 38.105469 125.546875 40.382812 170.816406 41.617188 194.441406 Z M 41.617188 83.050781 C 46.621094 83.050781 46.675781 112.382812 46.675781 113.632812 C 46.675781 129.925781 42.429688 208.277344 42.386719 209.066406 L 40.847656 209.066406 C 40.804688 208.277344 36.558594 129.925781 36.558594 113.632812 C 36.558594 112.382812 36.621094 83.050781 41.617188 83.050781 " fill-opacity="1" fill-rule="nonzero"/><path fill="#ffffff" d="M 41.617188 202.683594 C 43.929688 183.691406 50.667969 127.140625 50.667969 113.632812 C 50.667969 96.265625 45.988281 84.597656 41.617188 84.597656 C 37.246094 84.597656 32.566406 96.265625 32.566406 113.632812 C 32.566406 127.144531 39.304688 183.691406 41.617188 202.683594 Z M 41.617188 83.050781 C 47.558594 83.050781 52.210938 96.484375 52.210938 113.632812 C 52.210938 129.953125 42.484375 208.332031 42.382812 209.121094 L 41.617188 215.273438 L 40.855469 209.121094 C 40.753906 208.332031 31.023438 129.953125 31.023438 113.632812 C 31.023438 96.484375 35.675781 83.050781 41.617188 83.050781 " fill-opacity="1" fill-rule="nonzero"/><path fill="#ffffff" d="M 41.617188 204.972656 C 44.726562 188.859375 56.347656 127.734375 56.347656 113.632812 C 56.347656 97.621094 49.738281 84.597656 41.617188 84.597656 C 33.5 84.597656 26.890625 97.621094 26.890625 113.632812 C 26.890625 127.734375 38.507812 188.859375 41.617188 204.972656 Z M 41.617188 83.050781 C 50.589844 83.050781 57.890625 96.769531 57.890625 113.632812 C 57.890625 129.980469 43.007812 205.945312 42.375 209.171875 L 41.617188 213.03125 L 40.859375 209.171875 C 40.226562 205.945312 25.347656 129.980469 25.347656 113.632812 C 25.347656 96.769531 32.648438 83.050781 41.617188 83.050781 " fill-opacity="1" fill-rule="nonzero"/><path fill="#ffffff" d="M 41.617188 205.832031 C 45.234375 191.230469 60.695312 127.988281 60.695312 113.632812 C 60.695312 97.621094 52.136719 84.597656 41.617188 84.597656 C 31.097656 84.597656 22.539062 97.621094 22.539062 113.632812 C 22.539062 127.988281 38.003906 191.230469 41.617188 205.832031 Z M 41.617188 83.050781 C 52.992188 83.050781 62.242188 96.769531 62.242188 113.632812 C 62.242188 130 43.179688 205.984375 42.367188 209.214844 L 41.617188 212.191406 L 40.867188 209.214844 C 40.058594 205.984375 20.996094 130 20.996094 113.632812 C 20.996094 96.769531 30.246094 83.050781 41.617188 83.050781 " fill-opacity="1" fill-rule="nonzero"/><path fill="#ffffff" d="M 48.035156 198.707031 L 35.199219 198.707031 C 34.078125 198.707031 33.160156 197.785156 33.160156 196.660156 L 33.160156 193.878906 C 33.160156 192.757812 34.078125 191.839844 35.199219 191.839844 L 48.035156 191.839844 C 49.160156 191.839844 50.074219 192.757812 50.074219 193.878906 L 50.074219 196.660156 C 50.074219 197.785156 49.160156 198.707031 48.035156 198.707031 " fill-opacity="1" fill-rule="nonzero"/><g clip-path="url(#7f092ddbdb)"><path fill="#bdbdbd" d="M 46.808594 196.820312 C 47.011719 197.886719 49.839844 244.496094 49.839844 252.609375 C 49.839844 268.6875 46.160156 271.695312 41.617188 271.695312 C 37.074219 271.695312 33.394531 268.6875 33.394531 252.605469 C 33.394531 244.496094 36.222656 197.886719 36.425781 196.816406 L 46.808594 196.816406 " fill-opacity="1" fill-rule="nonzero"/></g><path fill="#bdbdbd" d="M 48.035156 198.707031 L 35.199219 198.707031 C 34.078125 198.707031 33.160156 197.785156 33.160156 196.660156 L 33.160156 193.878906 C 33.160156 192.757812 34.078125 191.839844 35.199219 191.839844 L 48.035156 191.839844 C 49.160156 191.839844 50.074219 192.757812 50.074219 193.878906 L 50.074219 196.660156 C 50.074219 197.785156 49.160156 198.707031 48.035156 198.707031 " fill-opacity="1" fill-rule="nonzero"/><g clip-path="url(#916b36e500)"><path fill="#bdbdbd" d="M 34.4375 262.03125 C 34.4375 248.304688 40.082031 235.644531 48.617188 225.902344 C 47.949219 217.34375 46.898438 197.304688 46.808594 196.820312 L 36.425781 196.820312 C 36.222656 197.886719 33.394531 244.496094 33.394531 252.609375 C 33.394531 257.933594 33.800781 261.820312 34.503906 264.644531 C 34.460938 263.777344 34.4375 262.90625 34.4375 262.03125 " fill-opacity="1" fill-rule="nonzero"/></g><path fill="#bdbdbd" d="M 36.21875 198.644531 L 35.503906 210.773438 C 35.503906 210.773438 47.714844 201.105469 36.21875 198.644531 " fill-opacity="1" fill-rule="nonzero"/><g clip-path="url(#75a90beb6f)"><path fill="#ffffff" d="M 42.535156 -39.292969 C 41.300781 -15.667969 39.023438 29.605469 39.023438 41.515625 C 39.023438 59.738281 41.253906 69.859375 42.535156 70.542969 C 43.816406 69.859375 46.046875 59.738281 46.046875 41.515625 C 46.046875 29.605469 43.769531 -15.667969 42.535156 -39.292969 Z M 42.535156 72.097656 C 37.535156 72.097656 37.476562 42.765625 37.476562 41.515625 C 37.476562 25.222656 41.722656 -53.125 41.765625 -53.917969 L 43.304688 -53.917969 C 43.347656 -53.125 47.59375 25.222656 47.59375 41.515625 C 47.59375 42.765625 47.535156 72.097656 42.535156 72.097656 " fill-opacity="1" fill-rule="nonzero"/></g><g clip-path="url(#a1d6445709)"><path fill="#ffffff" d="M 42.535156 -47.53125 C 40.222656 -28.542969 33.484375 28.007812 33.484375 41.515625 C 33.484375 58.886719 38.164062 70.550781 42.535156 70.550781 C 46.90625 70.550781 51.585938 58.886719 51.585938 41.515625 C 51.585938 28.003906 44.847656 -28.542969 42.535156 -47.53125 Z M 42.535156 72.097656 C 36.59375 72.097656 31.941406 58.664062 31.941406 41.515625 C 31.941406 25.199219 41.671875 -53.183594 41.769531 -53.96875 L 42.535156 -60.125 L 43.296875 -53.96875 C 43.398438 -53.183594 53.128906 25.199219 53.128906 41.515625 C 53.128906 58.664062 48.476562 72.097656 42.535156 72.097656 " fill-opacity="1" fill-rule="nonzero"/></g><g clip-path="url(#04c5d05358)"><path fill="#ffffff" d="M 42.535156 -49.824219 C 39.425781 -33.707031 27.808594 27.414062 27.808594 41.515625 C 27.808594 57.53125 34.417969 70.550781 42.535156 70.550781 C 50.652344 70.550781 57.261719 57.53125 57.261719 41.515625 C 57.261719 27.414062 45.644531 -33.707031 42.535156 -49.824219 Z M 42.535156 72.097656 C 33.5625 72.097656 26.261719 58.382812 26.261719 41.515625 C 26.261719 25.167969 41.144531 -50.796875 41.777344 -54.023438 L 42.535156 -57.882812 L 43.292969 -54.023438 C 43.925781 -50.796875 58.804688 25.167969 58.804688 41.515625 C 58.804688 58.382812 51.503906 72.097656 42.535156 72.097656 " fill-opacity="1" fill-rule="nonzero"/></g><g clip-path="url(#96ee31a938)"><path fill="#ffffff" d="M 42.535156 -50.679688 C 38.917969 -36.082031 23.457031 27.160156 23.457031 41.515625 C 23.457031 57.53125 32.015625 70.550781 42.535156 70.550781 C 53.058594 70.550781 61.613281 57.53125 61.613281 41.515625 C 61.613281 27.160156 46.148438 -36.082031 42.535156 -50.679688 Z M 42.535156 72.097656 C 31.164062 72.097656 21.914062 58.382812 21.914062 41.515625 C 21.914062 25.148438 40.972656 -50.835938 41.785156 -54.066406 L 42.535156 -57.042969 L 43.285156 -54.066406 C 44.09375 -50.835938 63.160156 25.148438 63.160156 41.515625 C 63.160156 58.382812 53.90625 72.097656 42.535156 72.097656 " fill-opacity="1" fill-rule="nonzero"/></g><g fill="#ffffff" fill-opacity="1"><g transform="translate(92.108576, 126.738608)"><g><path d="M 0.96875 0 L 0.96875 -13.984375 L 3.859375 -13.984375 L 3.859375 -7.46875 L 3.890625 -7.46875 C 4.640625 -8.21875 5.4375 -8.59375 6.28125 -8.59375 C 6.6875 -8.59375 7.09375 -8.535156 7.5 -8.421875 C 7.90625 -8.316406 8.296875 -8.148438 8.671875 -7.921875 C 9.046875 -7.691406 9.347656 -7.367188 9.578125 -6.953125 C 9.816406 -6.535156 9.9375 -6.050781 9.9375 -5.5 L 9.9375 0 L 7.0625 0 L 7.0625 -4.71875 C 7.0625 -5.15625 6.921875 -5.535156 6.640625 -5.859375 C 6.367188 -6.179688 6.007812 -6.34375 5.5625 -6.34375 C 5.125 -6.34375 4.726562 -6.171875 4.375 -5.828125 C 4.03125 -5.492188 3.859375 -5.125 3.859375 -4.71875 L 3.859375 0 Z M 0.96875 0 "/></g></g><g transform="translate(102.864697, 126.738608)"><g><path d="M 1.25 -12.984375 C 1.582031 -13.328125 1.984375 -13.5 2.453125 -13.5 C 2.921875 -13.5 3.320312 -13.328125 3.65625 -12.984375 C 3.988281 -12.648438 4.15625 -12.25 4.15625 -11.78125 C 4.15625 -11.320312 3.988281 -10.921875 3.65625 -10.578125 C 3.320312 -10.242188 2.921875 -10.078125 2.453125 -10.078125 C 1.984375 -10.078125 1.582031 -10.242188 1.25 -10.578125 C 0.914062 -10.921875 0.75 -11.320312 0.75 -11.78125 C 0.75 -12.25 0.914062 -12.648438 1.25 -12.984375 Z M 0.96875 -8.34375 L 0.96875 0 L 3.859375 0 L 3.859375 -8.34375 Z M 0.96875 -8.34375 "/></g></g><g transform="translate(107.778992, 126.738608)"><g><path d="M 4.609375 -8.59375 C 5.078125 -8.59375 5.546875 -8.535156 6.015625 -8.421875 C 6.484375 -8.316406 6.832031 -8.207031 7.0625 -8.09375 L 7.40625 -7.9375 L 6.453125 -6.046875 C 5.804688 -6.398438 5.191406 -6.578125 4.609375 -6.578125 C 4.273438 -6.578125 4.039062 -6.539062 3.90625 -6.46875 C 3.769531 -6.394531 3.703125 -6.257812 3.703125 -6.0625 C 3.703125 -6.019531 3.707031 -5.976562 3.71875 -5.9375 C 3.726562 -5.894531 3.75 -5.851562 3.78125 -5.8125 C 3.820312 -5.78125 3.851562 -5.75 3.875 -5.71875 C 3.90625 -5.6875 3.953125 -5.65625 4.015625 -5.625 C 4.078125 -5.59375 4.128906 -5.566406 4.171875 -5.546875 C 4.210938 -5.535156 4.273438 -5.515625 4.359375 -5.484375 C 4.441406 -5.453125 4.503906 -5.425781 4.546875 -5.40625 C 4.597656 -5.394531 4.671875 -5.367188 4.765625 -5.328125 C 4.867188 -5.296875 4.953125 -5.273438 5.015625 -5.265625 C 5.347656 -5.171875 5.640625 -5.0625 5.890625 -4.9375 C 6.140625 -4.820312 6.398438 -4.660156 6.671875 -4.453125 C 6.953125 -4.242188 7.164062 -3.984375 7.3125 -3.671875 C 7.46875 -3.359375 7.546875 -3.003906 7.546875 -2.609375 C 7.546875 -0.703125 6.226562 0.25 3.59375 0.25 C 3 0.25 2.429688 0.15625 1.890625 -0.03125 C 1.359375 -0.21875 0.972656 -0.398438 0.734375 -0.578125 L 0.375 -0.875 L 1.546875 -2.84375 C 1.628906 -2.769531 1.738281 -2.679688 1.875 -2.578125 C 2.019531 -2.472656 2.273438 -2.332031 2.640625 -2.15625 C 3.015625 -1.976562 3.335938 -1.890625 3.609375 -1.890625 C 4.203125 -1.890625 4.5 -2.085938 4.5 -2.484375 C 4.5 -2.671875 4.421875 -2.816406 4.265625 -2.921875 C 4.117188 -3.023438 3.863281 -3.140625 3.5 -3.265625 C 3.132812 -3.398438 2.851562 -3.519531 2.65625 -3.625 C 2.132812 -3.894531 1.71875 -4.203125 1.40625 -4.546875 C 1.101562 -4.890625 0.953125 -5.34375 0.953125 -5.90625 C 0.953125 -6.75 1.28125 -7.40625 1.9375 -7.875 C 2.59375 -8.351562 3.484375 -8.59375 4.609375 -8.59375 Z M 4.609375 -8.59375 "/></g></g><g transform="translate(115.785061, 126.738608)"><g><path d="M 1.46875 -8.34375 L 1.46875 -11.453125 L 4.34375 -11.453125 L 4.34375 -8.34375 L 6.09375 -8.34375 L 6.09375 -6.140625 L 4.34375 -6.140625 L 4.34375 -3.5 C 4.34375 -2.726562 4.5625 -2.34375 5 -2.34375 C 5.101562 -2.34375 5.210938 -2.363281 5.328125 -2.40625 C 5.453125 -2.445312 5.546875 -2.488281 5.609375 -2.53125 L 5.703125 -2.609375 L 6.421875 -0.28125 C 5.804688 0.0703125 5.101562 0.25 4.3125 0.25 C 3.769531 0.25 3.300781 0.15625 2.90625 -0.03125 C 2.519531 -0.226562 2.222656 -0.484375 2.015625 -0.796875 C 1.816406 -1.117188 1.675781 -1.457031 1.59375 -1.8125 C 1.507812 -2.164062 1.46875 -2.539062 1.46875 -2.9375 L 1.46875 -6.140625 L 0.265625 -6.140625 L 0.265625 -8.34375 Z M 1.46875 -8.34375 "/></g></g><g transform="translate(122.212698, 126.738608)"><g><path d="M 3.78125 -10.796875 L 7.078125 -13.65625 L 8.5625 -11.796875 L 4.6875 -9.546875 Z M 1.8125 -7.34375 C 0.851562 -6.507812 0.375 -5.445312 0.375 -4.15625 C 0.375 -2.875 0.835938 -1.816406 1.765625 -0.984375 C 2.691406 -0.160156 3.90625 0.25 5.40625 0.25 C 6.84375 0.25 8.03125 -0.164062 8.96875 -1 C 9.90625 -1.832031 10.375 -2.882812 10.375 -4.15625 C 10.375 -5.4375 9.894531 -6.492188 8.9375 -7.328125 C 7.976562 -8.171875 6.800781 -8.59375 5.40625 -8.59375 C 3.976562 -8.59375 2.78125 -8.175781 1.8125 -7.34375 Z M 3.96875 -2.75 C 3.613281 -3.113281 3.4375 -3.582031 3.4375 -4.15625 C 3.4375 -4.738281 3.617188 -5.210938 3.984375 -5.578125 C 4.359375 -5.941406 4.828125 -6.125 5.390625 -6.125 C 5.929688 -6.125 6.382812 -5.941406 6.75 -5.578125 C 7.125 -5.210938 7.3125 -4.738281 7.3125 -4.15625 C 7.3125 -3.59375 7.128906 -3.128906 6.765625 -2.765625 C 6.410156 -2.398438 5.953125 -2.21875 5.390625 -2.21875 C 4.796875 -2.21875 4.320312 -2.394531 3.96875 -2.75 Z M 3.96875 -2.75 "/></g></g><g transform="translate(132.96882, 126.738608)"><g><path d="M 0.96875 0 L 0.96875 -8.34375 L 3.859375 -8.34375 L 3.859375 -7.140625 L 3.890625 -7.140625 C 3.910156 -7.179688 3.941406 -7.234375 3.984375 -7.296875 C 4.035156 -7.367188 4.140625 -7.484375 4.296875 -7.640625 C 4.460938 -7.804688 4.640625 -7.953125 4.828125 -8.078125 C 5.015625 -8.210938 5.253906 -8.332031 5.546875 -8.4375 C 5.835938 -8.539062 6.132812 -8.59375 6.4375 -8.59375 C 6.75 -8.59375 7.054688 -8.546875 7.359375 -8.453125 C 7.671875 -8.367188 7.894531 -8.285156 8.03125 -8.203125 L 8.265625 -8.0625 L 7.0625 -5.625 C 6.695312 -5.925781 6.195312 -6.078125 5.5625 -6.078125 C 5.21875 -6.078125 4.921875 -6 4.671875 -5.84375 C 4.421875 -5.695312 4.242188 -5.515625 4.140625 -5.296875 C 4.035156 -5.085938 3.960938 -4.90625 3.921875 -4.75 C 3.878906 -4.59375 3.859375 -4.472656 3.859375 -4.390625 L 3.859375 0 Z M 0.96875 0 "/></g></g><g transform="translate(141.072524, 126.738608)"><g><path d="M 1.25 -12.984375 C 1.582031 -13.328125 1.984375 -13.5 2.453125 -13.5 C 2.921875 -13.5 3.320312 -13.328125 3.65625 -12.984375 C 3.988281 -12.648438 4.15625 -12.25 4.15625 -11.78125 C 4.15625 -11.320312 3.988281 -10.921875 3.65625 -10.578125 C 3.320312 -10.242188 2.921875 -10.078125 2.453125 -10.078125 C 1.984375 -10.078125 1.582031 -10.242188 1.25 -10.578125 C 0.914062 -10.921875 0.75 -11.320312 0.75 -11.78125 C 0.75 -12.25 0.914062 -12.648438 1.25 -12.984375 Z M 0.96875 -8.34375 L 0.96875 0 L 3.859375 0 L 3.859375 -8.34375 Z M 0.96875 -8.34375 "/></g></g><g transform="translate(145.986819, 126.738608)"><g><path d="M 1.546875 -1.03125 C 0.765625 -1.882812 0.375 -2.925781 0.375 -4.15625 C 0.375 -5.394531 0.765625 -6.441406 1.546875 -7.296875 C 2.328125 -8.160156 3.316406 -8.59375 4.515625 -8.59375 C 5.628906 -8.59375 6.539062 -8.242188 7.25 -7.546875 L 7.25 -8.34375 L 10.140625 -8.34375 L 10.140625 0 L 7.28125 0 L 7.28125 -0.9375 L 7.25 -0.9375 C 6.539062 -0.144531 5.628906 0.25 4.515625 0.25 C 3.316406 0.25 2.328125 -0.175781 1.546875 -1.03125 Z M 3.984375 -5.578125 C 3.617188 -5.210938 3.4375 -4.738281 3.4375 -4.15625 C 3.4375 -3.582031 3.613281 -3.113281 3.96875 -2.75 C 4.320312 -2.394531 4.796875 -2.21875 5.390625 -2.21875 C 5.953125 -2.21875 6.410156 -2.398438 6.765625 -2.765625 C 7.128906 -3.128906 7.3125 -3.59375 7.3125 -4.15625 C 7.3125 -4.738281 7.125 -5.210938 6.75 -5.578125 C 6.382812 -5.941406 5.929688 -6.125 5.390625 -6.125 C 4.828125 -6.125 4.359375 -5.941406 3.984375 -5.578125 Z M 3.984375 -5.578125 "/></g></g><g transform="translate(157.100935, 126.738608)"><g><path d="M 2.828125 -3.484375 C 3.347656 -3.484375 3.789062 -3.300781 4.15625 -2.9375 C 4.519531 -2.570312 4.703125 -2.128906 4.703125 -1.609375 C 4.703125 -0.00390625 3.789062 1.550781 1.96875 3.0625 L 1.140625 2.375 C 1.210938 2.3125 1.304688 2.210938 1.421875 2.078125 C 1.535156 1.953125 1.703125 1.691406 1.921875 1.296875 C 2.148438 0.898438 2.300781 0.5 2.375 0.09375 C 1.957031 0 1.617188 -0.195312 1.359375 -0.5 C 1.097656 -0.8125 0.96875 -1.179688 0.96875 -1.609375 C 0.96875 -2.128906 1.148438 -2.570312 1.515625 -2.9375 C 1.878906 -3.300781 2.316406 -3.484375 2.828125 -3.484375 Z M 2.828125 -3.484375 "/></g></g></g><g fill="#ffffff" fill-opacity="1"><g transform="translate(88.708889, 147.783606)"><g><path d="M 5.421875 -6.234375 C 4.878906 -6.234375 4.410156 -6.03125 4.015625 -5.625 C 3.628906 -5.226562 3.4375 -4.75 3.4375 -4.1875 C 3.4375 -3.601562 3.628906 -3.109375 4.015625 -2.703125 C 4.410156 -2.304688 4.878906 -2.109375 5.421875 -2.109375 C 5.679688 -2.109375 5.925781 -2.140625 6.15625 -2.203125 C 6.382812 -2.273438 6.554688 -2.34375 6.671875 -2.40625 L 6.8125 -2.5 L 7.796875 -0.5 C 7.710938 -0.445312 7.601562 -0.378906 7.46875 -0.296875 C 7.332031 -0.210938 7.023438 -0.101562 6.546875 0.03125 C 6.066406 0.175781 5.550781 0.25 5 0.25 C 3.769531 0.25 2.691406 -0.179688 1.765625 -1.046875 C 0.835938 -1.910156 0.375 -2.941406 0.375 -4.140625 C 0.375 -5.359375 0.835938 -6.40625 1.765625 -7.28125 C 2.691406 -8.15625 3.769531 -8.59375 5 -8.59375 C 5.550781 -8.59375 6.054688 -8.523438 6.515625 -8.390625 C 6.984375 -8.265625 7.316406 -8.132812 7.515625 -8 L 7.796875 -7.8125 L 6.8125 -5.84375 C 6.457031 -6.101562 5.992188 -6.234375 5.421875 -6.234375 Z M 5.421875 -6.234375 "/></g></g><g transform="translate(96.698685, 147.783606)"><g><path d="M 3.6875 -8.34375 L 3.6875 -4.375 C 3.6875 -3.550781 3.8125 -2.960938 4.0625 -2.609375 C 4.3125 -2.265625 4.734375 -2.09375 5.328125 -2.09375 C 5.929688 -2.09375 6.359375 -2.265625 6.609375 -2.609375 C 6.859375 -2.960938 6.984375 -3.550781 6.984375 -4.375 L 6.984375 -8.34375 L 9.859375 -8.34375 L 9.859375 -3.671875 C 9.859375 -2.285156 9.492188 -1.285156 8.765625 -0.671875 C 8.046875 -0.0546875 6.898438 0.25 5.328125 0.25 C 3.765625 0.25 2.617188 -0.0546875 1.890625 -0.671875 C 1.171875 -1.285156 0.8125 -2.285156 0.8125 -3.671875 L 0.8125 -8.34375 Z M 3.6875 -8.34375 "/></g></g><g transform="translate(107.373444, 147.783606)"><g><path d="M 0.96875 0 L 0.96875 -13.984375 L 3.859375 -13.984375 L 3.859375 0 Z M 0.96875 0 "/></g></g><g transform="translate(112.206377, 147.783606)"><g><path d="M 1.46875 -8.34375 L 1.46875 -11.453125 L 4.34375 -11.453125 L 4.34375 -8.34375 L 6.09375 -8.34375 L 6.09375 -6.140625 L 4.34375 -6.140625 L 4.34375 -3.5 C 4.34375 -2.726562 4.5625 -2.34375 5 -2.34375 C 5.101562 -2.34375 5.210938 -2.363281 5.328125 -2.40625 C 5.453125 -2.445312 5.546875 -2.488281 5.609375 -2.53125 L 5.703125 -2.609375 L 6.421875 -0.28125 C 5.804688 0.0703125 5.101562 0.25 4.3125 0.25 C 3.769531 0.25 3.300781 0.15625 2.90625 -0.03125 C 2.519531 -0.226562 2.222656 -0.484375 2.015625 -0.796875 C 1.816406 -1.117188 1.675781 -1.457031 1.59375 -1.8125 C 1.507812 -2.164062 1.46875 -2.539062 1.46875 -2.9375 L 1.46875 -6.140625 L 0.265625 -6.140625 L 0.265625 -8.34375 Z M 1.46875 -8.34375 "/></g></g><g transform="translate(118.634013, 147.783606)"><g><path d="M 3.6875 -8.34375 L 3.6875 -4.375 C 3.6875 -3.550781 3.8125 -2.960938 4.0625 -2.609375 C 4.3125 -2.265625 4.734375 -2.09375 5.328125 -2.09375 C 5.929688 -2.09375 6.359375 -2.265625 6.609375 -2.609375 C 6.859375 -2.960938 6.984375 -3.550781 6.984375 -4.375 L 6.984375 -8.34375 L 9.859375 -8.34375 L 9.859375 -3.671875 C 9.859375 -2.285156 9.492188 -1.285156 8.765625 -0.671875 C 8.046875 -0.0546875 6.898438 0.25 5.328125 0.25 C 3.765625 0.25 2.617188 -0.0546875 1.890625 -0.671875 C 1.171875 -1.285156 0.8125 -2.285156 0.8125 -3.671875 L 0.8125 -8.34375 Z M 3.6875 -8.34375 "/></g></g><g transform="translate(129.308773, 147.783606)"><g><path d="M 0.96875 0 L 0.96875 -8.34375 L 3.859375 -8.34375 L 3.859375 -7.140625 L 3.890625 -7.140625 C 3.910156 -7.179688 3.941406 -7.234375 3.984375 -7.296875 C 4.035156 -7.367188 4.140625 -7.484375 4.296875 -7.640625 C 4.460938 -7.804688 4.640625 -7.953125 4.828125 -8.078125 C 5.015625 -8.210938 5.253906 -8.332031 5.546875 -8.4375 C 5.835938 -8.539062 6.132812 -8.59375 6.4375 -8.59375 C 6.75 -8.59375 7.054688 -8.546875 7.359375 -8.453125 C 7.671875 -8.367188 7.894531 -8.285156 8.03125 -8.203125 L 8.265625 -8.0625 L 7.0625 -5.625 C 6.695312 -5.925781 6.195312 -6.078125 5.5625 -6.078125 C 5.21875 -6.078125 4.921875 -6 4.671875 -5.84375 C 4.421875 -5.695312 4.242188 -5.515625 4.140625 -5.296875 C 4.035156 -5.085938 3.960938 -4.90625 3.921875 -4.75 C 3.878906 -4.59375 3.859375 -4.472656 3.859375 -4.390625 L 3.859375 0 Z M 0.96875 0 "/></g></g><g transform="translate(137.412477, 147.783606)"><g><path d="M 1.546875 -1.03125 C 0.765625 -1.882812 0.375 -2.925781 0.375 -4.15625 C 0.375 -5.394531 0.765625 -6.441406 1.546875 -7.296875 C 2.328125 -8.160156 3.316406 -8.59375 4.515625 -8.59375 C 5.628906 -8.59375 6.539062 -8.242188 7.25 -7.546875 L 7.25 -8.34375 L 10.140625 -8.34375 L 10.140625 0 L 7.28125 0 L 7.28125 -0.9375 L 7.25 -0.9375 C 6.539062 -0.144531 5.628906 0.25 4.515625 0.25 C 3.316406 0.25 2.328125 -0.175781 1.546875 -1.03125 Z M 3.984375 -5.578125 C 3.617188 -5.210938 3.4375 -4.738281 3.4375 -4.15625 C 3.4375 -3.582031 3.613281 -3.113281 3.96875 -2.75 C 4.320312 -2.394531 4.796875 -2.21875 5.390625 -2.21875 C 5.953125 -2.21875 6.410156 -2.398438 6.765625 -2.765625 C 7.128906 -3.128906 7.3125 -3.59375 7.3125 -4.15625 C 7.3125 -4.738281 7.125 -5.210938 6.75 -5.578125 C 6.382812 -5.941406 5.929688 -6.125 5.390625 -6.125 C 4.828125 -6.125 4.359375 -5.941406 3.984375 -5.578125 Z M 3.984375 -5.578125 "/></g></g><g transform="translate(148.526593, 147.783606)"><g/></g><g transform="translate(152.968986, 147.783606)"><g><path d="M 9.421875 -3.78125 L 3.359375 -3.78125 C 3.359375 -3.1875 3.546875 -2.75 3.921875 -2.46875 C 4.304688 -2.1875 4.722656 -2.046875 5.171875 -2.046875 C 5.640625 -2.046875 6.007812 -2.109375 6.28125 -2.234375 C 6.550781 -2.359375 6.859375 -2.609375 7.203125 -2.984375 L 9.28125 -1.9375 C 8.414062 -0.476562 6.976562 0.25 4.96875 0.25 C 3.707031 0.25 2.625 -0.179688 1.71875 -1.046875 C 0.820312 -1.910156 0.375 -2.945312 0.375 -4.15625 C 0.375 -5.375 0.820312 -6.414062 1.71875 -7.28125 C 2.625 -8.15625 3.707031 -8.59375 4.96875 -8.59375 C 6.289062 -8.59375 7.363281 -8.207031 8.1875 -7.4375 C 9.019531 -6.675781 9.4375 -5.582031 9.4375 -4.15625 C 9.4375 -3.96875 9.429688 -3.84375 9.421875 -3.78125 Z M 3.453125 -5.375 L 6.625 -5.375 C 6.550781 -5.800781 6.375 -6.128906 6.09375 -6.359375 C 5.820312 -6.597656 5.472656 -6.71875 5.046875 -6.71875 C 4.566406 -6.71875 4.1875 -6.59375 3.90625 -6.34375 C 3.625 -6.09375 3.472656 -5.769531 3.453125 -5.375 Z M 3.453125 -5.375 "/></g></g></g><g fill="#ffffff" fill-opacity="1"><g transform="translate(77.821624, 168.828605)"><g><path d="M 0.609375 2.046875 L 2.953125 0.890625 C 3.390625 1.609375 4.144531 1.96875 5.21875 1.96875 C 5.71875 1.96875 6.179688 1.804688 6.609375 1.484375 C 7.035156 1.171875 7.25 0.679688 7.25 0.015625 L 7.25 -0.609375 C 6.738281 -0.0351562 5.828125 0.25 4.515625 0.25 C 3.316406 0.25 2.328125 -0.175781 1.546875 -1.03125 C 0.765625 -1.882812 0.375 -2.925781 0.375 -4.15625 C 0.375 -5.394531 0.765625 -6.441406 1.546875 -7.296875 C 2.328125 -8.160156 3.316406 -8.59375 4.515625 -8.59375 C 5.585938 -8.59375 6.484375 -8.257812 7.203125 -7.59375 L 7.25 -7.59375 L 7.25 -8.34375 L 10.140625 -8.34375 L 10.140625 0.234375 C 10.140625 1.585938 9.6875 2.628906 8.78125 3.359375 C 7.882812 4.097656 6.695312 4.46875 5.21875 4.46875 C 2.832031 4.46875 1.296875 3.660156 0.609375 2.046875 Z M 3.984375 -5.578125 C 3.617188 -5.210938 3.4375 -4.738281 3.4375 -4.15625 C 3.4375 -3.582031 3.613281 -3.113281 3.96875 -2.75 C 4.320312 -2.394531 4.796875 -2.21875 5.390625 -2.21875 C 5.953125 -2.21875 6.410156 -2.398438 6.765625 -2.765625 C 7.128906 -3.128906 7.3125 -3.59375 7.3125 -4.15625 C 7.3125 -4.738281 7.125 -5.210938 6.75 -5.578125 C 6.382812 -5.941406 5.929688 -6.125 5.390625 -6.125 C 4.828125 -6.125 4.359375 -5.941406 3.984375 -5.578125 Z M 3.984375 -5.578125 "/></g></g><g transform="translate(88.93574, 168.828605)"><g><path d="M 1.765625 -0.984375 C 0.835938 -1.816406 0.375 -2.875 0.375 -4.15625 C 0.375 -5.445312 0.851562 -6.507812 1.8125 -7.34375 C 2.78125 -8.175781 3.976562 -8.59375 5.40625 -8.59375 C 6.800781 -8.59375 7.976562 -8.171875 8.9375 -7.328125 C 9.894531 -6.492188 10.375 -5.4375 10.375 -4.15625 C 10.375 -2.882812 9.90625 -1.832031 8.96875 -1 C 8.03125 -0.164062 6.84375 0.25 5.40625 0.25 C 3.90625 0.25 2.691406 -0.160156 1.765625 -0.984375 Z M 3.984375 -5.578125 C 3.617188 -5.210938 3.4375 -4.738281 3.4375 -4.15625 C 3.4375 -3.582031 3.613281 -3.113281 3.96875 -2.75 C 4.320312 -2.394531 4.796875 -2.21875 5.390625 -2.21875 C 5.953125 -2.21875 6.410156 -2.398438 6.765625 -2.765625 C 7.128906 -3.128906 7.3125 -3.59375 7.3125 -4.15625 C 7.3125 -4.738281 7.125 -5.210938 6.75 -5.578125 C 6.382812 -5.941406 5.929688 -6.125 5.390625 -6.125 C 4.828125 -6.125 4.359375 -5.941406 3.984375 -5.578125 Z M 3.984375 -5.578125 "/></g></g><g transform="translate(99.691862, 168.828605)"><g><path d="M 4.609375 -8.59375 C 5.078125 -8.59375 5.546875 -8.535156 6.015625 -8.421875 C 6.484375 -8.316406 6.832031 -8.207031 7.0625 -8.09375 L 7.40625 -7.9375 L 6.453125 -6.046875 C 5.804688 -6.398438 5.191406 -6.578125 4.609375 -6.578125 C 4.273438 -6.578125 4.039062 -6.539062 3.90625 -6.46875 C 3.769531 -6.394531 3.703125 -6.257812 3.703125 -6.0625 C 3.703125 -6.019531 3.707031 -5.976562 3.71875 -5.9375 C 3.726562 -5.894531 3.75 -5.851562 3.78125 -5.8125 C 3.820312 -5.78125 3.851562 -5.75 3.875 -5.71875 C 3.90625 -5.6875 3.953125 -5.65625 4.015625 -5.625 C 4.078125 -5.59375 4.128906 -5.566406 4.171875 -5.546875 C 4.210938 -5.535156 4.273438 -5.515625 4.359375 -5.484375 C 4.441406 -5.453125 4.503906 -5.425781 4.546875 -5.40625 C 4.597656 -5.394531 4.671875 -5.367188 4.765625 -5.328125 C 4.867188 -5.296875 4.953125 -5.273438 5.015625 -5.265625 C 5.347656 -5.171875 5.640625 -5.0625 5.890625 -4.9375 C 6.140625 -4.820312 6.398438 -4.660156 6.671875 -4.453125 C 6.953125 -4.242188 7.164062 -3.984375 7.3125 -3.671875 C 7.46875 -3.359375 7.546875 -3.003906 7.546875 -2.609375 C 7.546875 -0.703125 6.226562 0.25 3.59375 0.25 C 3 0.25 2.429688 0.15625 1.890625 -0.03125 C 1.359375 -0.21875 0.972656 -0.398438 0.734375 -0.578125 L 0.375 -0.875 L 1.546875 -2.84375 C 1.628906 -2.769531 1.738281 -2.679688 1.875 -2.578125 C 2.019531 -2.472656 2.273438 -2.332031 2.640625 -2.15625 C 3.015625 -1.976562 3.335938 -1.890625 3.609375 -1.890625 C 4.203125 -1.890625 4.5 -2.085938 4.5 -2.484375 C 4.5 -2.671875 4.421875 -2.816406 4.265625 -2.921875 C 4.117188 -3.023438 3.863281 -3.140625 3.5 -3.265625 C 3.132812 -3.398438 2.851562 -3.519531 2.65625 -3.625 C 2.132812 -3.894531 1.71875 -4.203125 1.40625 -4.546875 C 1.101562 -4.890625 0.953125 -5.34375 0.953125 -5.90625 C 0.953125 -6.75 1.28125 -7.40625 1.9375 -7.875 C 2.59375 -8.351562 3.484375 -8.59375 4.609375 -8.59375 Z M 4.609375 -8.59375 "/></g></g><g transform="translate(107.697931, 168.828605)"><g><path d="M 1.46875 -8.34375 L 1.46875 -11.453125 L 4.34375 -11.453125 L 4.34375 -8.34375 L 6.09375 -8.34375 L 6.09375 -6.140625 L 4.34375 -6.140625 L 4.34375 -3.5 C 4.34375 -2.726562 4.5625 -2.34375 5 -2.34375 C 5.101562 -2.34375 5.210938 -2.363281 5.328125 -2.40625 C 5.453125 -2.445312 5.546875 -2.488281 5.609375 -2.53125 L 5.703125 -2.609375 L 6.421875 -0.28125 C 5.804688 0.0703125 5.101562 0.25 4.3125 0.25 C 3.769531 0.25 3.300781 0.15625 2.90625 -0.03125 C 2.519531 -0.226562 2.222656 -0.484375 2.015625 -0.796875 C 1.816406 -1.117188 1.675781 -1.457031 1.59375 -1.8125 C 1.507812 -2.164062 1.46875 -2.539062 1.46875 -2.9375 L 1.46875 -6.140625 L 0.265625 -6.140625 L 0.265625 -8.34375 Z M 1.46875 -8.34375 "/></g></g></g><g fill="#ffffff" fill-opacity="1"><g transform="translate(114.125571, 168.828605)"><g><path d="M 1.765625 -0.984375 C 0.835938 -1.816406 0.375 -2.875 0.375 -4.15625 C 0.375 -5.445312 0.851562 -6.507812 1.8125 -7.34375 C 2.78125 -8.175781 3.976562 -8.59375 5.40625 -8.59375 C 6.800781 -8.59375 7.976562 -8.171875 8.9375 -7.328125 C 9.894531 -6.492188 10.375 -5.4375 10.375 -4.15625 C 10.375 -2.882812 9.90625 -1.832031 8.96875 -1 C 8.03125 -0.164062 6.84375 0.25 5.40625 0.25 C 3.90625 0.25 2.691406 -0.160156 1.765625 -0.984375 Z M 3.984375 -5.578125 C 3.617188 -5.210938 3.4375 -4.738281 3.4375 -4.15625 C 3.4375 -3.582031 3.613281 -3.113281 3.96875 -2.75 C 4.320312 -2.394531 4.796875 -2.21875 5.390625 -2.21875 C 5.953125 -2.21875 6.410156 -2.398438 6.765625 -2.765625 C 7.128906 -3.128906 7.3125 -3.59375 7.3125 -4.15625 C 7.3125 -4.738281 7.125 -5.210938 6.75 -5.578125 C 6.382812 -5.941406 5.929688 -6.125 5.390625 -6.125 C 4.828125 -6.125 4.359375 -5.941406 3.984375 -5.578125 Z M 3.984375 -5.578125 "/></g></g><g transform="translate(124.881692, 168.828605)"><g><path d="M 4.609375 -8.59375 C 5.078125 -8.59375 5.546875 -8.535156 6.015625 -8.421875 C 6.484375 -8.316406 6.832031 -8.207031 7.0625 -8.09375 L 7.40625 -7.9375 L 6.453125 -6.046875 C 5.804688 -6.398438 5.191406 -6.578125 4.609375 -6.578125 C 4.273438 -6.578125 4.039062 -6.539062 3.90625 -6.46875 C 3.769531 -6.394531 3.703125 -6.257812 3.703125 -6.0625 C 3.703125 -6.019531 3.707031 -5.976562 3.71875 -5.9375 C 3.726562 -5.894531 3.75 -5.851562 3.78125 -5.8125 C 3.820312 -5.78125 3.851562 -5.75 3.875 -5.71875 C 3.90625 -5.6875 3.953125 -5.65625 4.015625 -5.625 C 4.078125 -5.59375 4.128906 -5.566406 4.171875 -5.546875 C 4.210938 -5.535156 4.273438 -5.515625 4.359375 -5.484375 C 4.441406 -5.453125 4.503906 -5.425781 4.546875 -5.40625 C 4.597656 -5.394531 4.671875 -5.367188 4.765625 -5.328125 C 4.867188 -5.296875 4.953125 -5.273438 5.015625 -5.265625 C 5.347656 -5.171875 5.640625 -5.0625 5.890625 -4.9375 C 6.140625 -4.820312 6.398438 -4.660156 6.671875 -4.453125 C 6.953125 -4.242188 7.164062 -3.984375 7.3125 -3.671875 C 7.46875 -3.359375 7.546875 -3.003906 7.546875 -2.609375 C 7.546875 -0.703125 6.226562 0.25 3.59375 0.25 C 3 0.25 2.429688 0.15625 1.890625 -0.03125 C 1.359375 -0.21875 0.972656 -0.398438 0.734375 -0.578125 L 0.375 -0.875 L 1.546875 -2.84375 C 1.628906 -2.769531 1.738281 -2.679688 1.875 -2.578125 C 2.019531 -2.472656 2.273438 -2.332031 2.640625 -2.15625 C 3.015625 -1.976562 3.335938 -1.890625 3.609375 -1.890625 C 4.203125 -1.890625 4.5 -2.085938 4.5 -2.484375 C 4.5 -2.671875 4.421875 -2.816406 4.265625 -2.921875 C 4.117188 -3.023438 3.863281 -3.140625 3.5 -3.265625 C 3.132812 -3.398438 2.851562 -3.519531 2.65625 -3.625 C 2.132812 -3.894531 1.71875 -4.203125 1.40625 -4.546875 C 1.101562 -4.890625 0.953125 -5.34375 0.953125 -5.90625 C 0.953125 -6.75 1.28125 -7.40625 1.9375 -7.875 C 2.59375 -8.351562 3.484375 -8.59375 4.609375 -8.59375 Z M 4.609375 -8.59375 "/></g></g></g><g fill="#ffffff" fill-opacity="1"><g transform="translate(132.887759, 168.828605)"><g><path d="M 3.6875 -8.34375 L 3.6875 -4.375 C 3.6875 -3.550781 3.8125 -2.960938 4.0625 -2.609375 C 4.3125 -2.265625 4.734375 -2.09375 5.328125 -2.09375 C 5.929688 -2.09375 6.359375 -2.265625 6.609375 -2.609375 C 6.859375 -2.960938 6.984375 -3.550781 6.984375 -4.375 L 6.984375 -8.34375 L 9.859375 -8.34375 L 9.859375 -3.671875 C 9.859375 -2.285156 9.492188 -1.285156 8.765625 -0.671875 C 8.046875 -0.0546875 6.898438 0.25 5.328125 0.25 C 3.765625 0.25 2.617188 -0.0546875 1.890625 -0.671875 C 1.171875 -1.285156 0.8125 -2.285156 0.8125 -3.671875 L 0.8125 -8.34375 Z M 3.6875 -8.34375 "/></g></g></g><g fill="#ffffff" fill-opacity="1"><g transform="translate(143.562522, 168.828605)"><g><path d="M 0.96875 0 L 0.96875 -8.34375 L 3.859375 -8.34375 L 3.859375 -7.140625 L 3.890625 -7.140625 C 3.910156 -7.179688 3.941406 -7.234375 3.984375 -7.296875 C 4.035156 -7.367188 4.140625 -7.484375 4.296875 -7.640625 C 4.460938 -7.804688 4.640625 -7.953125 4.828125 -8.078125 C 5.015625 -8.210938 5.253906 -8.332031 5.546875 -8.4375 C 5.835938 -8.539062 6.132812 -8.59375 6.4375 -8.59375 C 6.75 -8.59375 7.054688 -8.546875 7.359375 -8.453125 C 7.671875 -8.367188 7.894531 -8.285156 8.03125 -8.203125 L 8.265625 -8.0625 L 7.0625 -5.625 C 6.695312 -5.925781 6.195312 -6.078125 5.5625 -6.078125 C 5.21875 -6.078125 4.921875 -6 4.671875 -5.84375 C 4.421875 -5.695312 4.242188 -5.515625 4.140625 -5.296875 C 4.035156 -5.085938 3.960938 -4.90625 3.921875 -4.75 C 3.878906 -4.59375 3.859375 -4.472656 3.859375 -4.390625 L 3.859375 0 Z M 0.96875 0 "/></g></g></g><g fill="#ffffff" fill-opacity="1"><g transform="translate(151.666224, 168.828605)"><g><path d="M 1.546875 -1.03125 C 0.765625 -1.882812 0.375 -2.925781 0.375 -4.15625 C 0.375 -5.394531 0.765625 -6.441406 1.546875 -7.296875 C 2.328125 -8.160156 3.316406 -8.59375 4.515625 -8.59375 C 5.628906 -8.59375 6.539062 -8.242188 7.25 -7.546875 L 7.25 -8.34375 L 10.140625 -8.34375 L 10.140625 0 L 7.28125 0 L 7.28125 -0.9375 L 7.25 -0.9375 C 6.539062 -0.144531 5.628906 0.25 4.515625 0.25 C 3.316406 0.25 2.328125 -0.175781 1.546875 -1.03125 Z M 3.984375 -5.578125 C 3.617188 -5.210938 3.4375 -4.738281 3.4375 -4.15625 C 3.4375 -3.582031 3.613281 -3.113281 3.96875 -2.75 C 4.320312 -2.394531 4.796875 -2.21875 5.390625 -2.21875 C 5.953125 -2.21875 6.410156 -2.398438 6.765625 -2.765625 C 7.128906 -3.128906 7.3125 -3.59375 7.3125 -4.15625 C 7.3125 -4.738281 7.125 -5.210938 6.75 -5.578125 C 6.382812 -5.941406 5.929688 -6.125 5.390625 -6.125 C 4.828125 -6.125 4.359375 -5.941406 3.984375 -5.578125 Z M 3.984375 -5.578125 "/></g></g></g><g fill="#ffffff" fill-opacity="1"><g transform="translate(121.649051, 216.539613)"><g><path d="M 0.6875 -1.59375 L 0.6875 -2.910156 L 1.4375 -2.910156 C 1.632812 -2.910156 1.789062 -2.847656 1.90625 -2.722656 C 2.023438 -2.601562 2.082031 -2.449219 2.082031 -2.257812 C 2.082031 -2.070312 2.023438 -1.914062 1.898438 -1.785156 C 1.773438 -1.65625 1.625 -1.59375 1.4375 -1.59375 Z M 2.414062 -2.253906 C 2.414062 -2.53125 2.3125 -2.765625 2.113281 -2.953125 C 1.917969 -3.132812 1.675781 -3.226562 1.390625 -3.226562 L 0.355469 -3.226562 L 0.355469 0 L 0.6875 0 L 0.6875 -1.277344 L 1.074219 -1.277344 L 2.023438 0 L 2.46875 0 L 1.472656 -1.277344 C 1.722656 -1.289062 1.9375 -1.382812 2.113281 -1.546875 C 2.3125 -1.730469 2.414062 -1.96875 2.414062 -2.253906 Z M 2.414062 -2.253906 "/></g></g></g><g fill="#ffffff" fill-opacity="1"><g transform="translate(125.179892, 216.539613)"><g><path d="M 2.273438 0 L 2.273438 -0.308594 L 0.6875 -0.308594 L 0.6875 -1.457031 L 2.226562 -1.457031 L 2.226562 -1.769531 L 0.6875 -1.769531 L 0.6875 -2.917969 L 2.273438 -2.917969 L 2.273438 -3.226562 L 0.355469 -3.226562 L 0.355469 0 Z M 2.273438 0 "/></g></g></g><g fill="#ffffff" fill-opacity="1"><g transform="translate(128.758186, 216.539613)"><g><path d="M 3.316406 -0.988281 L 2.953125 -0.988281 C 2.839844 -0.777344 2.679688 -0.609375 2.480469 -0.484375 C 2.28125 -0.355469 2.058594 -0.292969 1.824219 -0.292969 C 1.464844 -0.292969 1.164062 -0.421875 0.910156 -0.6875 C 0.664062 -0.941406 0.546875 -1.25 0.546875 -1.609375 C 0.546875 -1.96875 0.664062 -2.277344 0.910156 -2.535156 C 1.023438 -2.652344 1.164062 -2.746094 1.320312 -2.820312 C 1.472656 -2.890625 1.625 -2.929688 1.773438 -2.929688 C 1.921875 -2.929688 2.050781 -2.910156 2.164062 -2.875 C 2.511719 -2.773438 2.773438 -2.5625 2.949219 -2.246094 L 3.3125 -2.246094 C 3.1875 -2.546875 2.996094 -2.796875 2.722656 -2.984375 C 2.449219 -3.175781 2.148438 -3.269531 1.824219 -3.269531 C 1.371094 -3.269531 0.992188 -3.105469 0.679688 -2.777344 C 0.53125 -2.625 0.417969 -2.445312 0.335938 -2.246094 C 0.25 -2.046875 0.214844 -1.832031 0.214844 -1.609375 C 0.214844 -1.152344 0.367188 -0.769531 0.679688 -0.445312 C 0.992188 -0.113281 1.371094 0.046875 1.824219 0.046875 C 2.148438 0.046875 2.449219 -0.046875 2.730469 -0.238281 C 3 -0.425781 3.195312 -0.675781 3.316406 -0.988281 Z M 3.316406 -0.988281 "/></g></g></g><g fill="#ffffff" fill-opacity="1"><g transform="translate(133.166954, 216.539613)"><g><path d="M 2.273438 0 L 2.273438 -0.308594 L 0.6875 -0.308594 L 0.6875 -1.457031 L 2.226562 -1.457031 L 2.226562 -1.769531 L 0.6875 -1.769531 L 0.6875 -2.917969 L 2.273438 -2.917969 L 2.273438 -3.226562 L 0.355469 -3.226562 L 0.355469 0 Z M 2.273438 0 "/></g></g></g><g fill="#ffffff" fill-opacity="1"><g transform="translate(136.745248, 216.539613)"><g><path d="M 0.6875 0 L 0.6875 -3.226562 L 0.355469 -3.226562 L 0.355469 0 Z M 0.6875 0 "/></g></g></g><g fill="#ffffff" fill-opacity="1"><g transform="translate(138.738526, 216.539613)"><g><path d="M 0.09375 -2.929688 L 0.878906 -2.929688 L 0.878906 -0.0078125 L 1.210938 -0.0078125 L 1.210938 -2.929688 L 1.992188 -2.929688 L 1.992188 -3.238281 L 0.09375 -3.238281 Z M 0.09375 -2.929688 "/></g></g></g><g fill="#ffffff" fill-opacity="1"><g transform="translate(141.775827, 216.539613)"><g><path d="M 0.878906 -1.1875 L 1.464844 -2.671875 L 2.050781 -1.1875 Z M 2.878906 0 L 1.464844 -3.449219 L 0.046875 0 L 0.40625 0 L 0.753906 -0.878906 L 2.171875 -0.878906 L 2.519531 0 Z M 2.878906 0 "/></g></g></g><g fill="#ffffff" fill-opacity="1"><g transform="translate(145.653092, 216.539613)"><g><path d="M 1.25 -1.519531 C 1.664062 -1.417969 1.949219 -1.308594 2.101562 -1.1875 C 2.207031 -1.101562 2.257812 -0.992188 2.257812 -0.859375 C 2.257812 -0.726562 2.230469 -0.617188 2.171875 -0.542969 C 2.03125 -0.339844 1.773438 -0.242188 1.414062 -0.242188 C 0.910156 -0.242188 0.625 -0.414062 0.566406 -0.753906 L 0.175781 -0.753906 C 0.289062 -0.207031 0.703125 0.0625 1.414062 0.0625 C 1.730469 0.0625 2 -0.00390625 2.210938 -0.148438 C 2.46875 -0.3125 2.601562 -0.558594 2.601562 -0.882812 C 2.601562 -1.148438 2.496094 -1.351562 2.289062 -1.496094 C 2.140625 -1.597656 1.902344 -1.695312 1.574219 -1.78125 C 1.242188 -1.863281 1.03125 -1.9375 0.929688 -1.988281 C 0.710938 -2.097656 0.601562 -2.25 0.609375 -2.449219 C 0.609375 -2.554688 0.625 -2.644531 0.675781 -2.710938 C 0.796875 -2.894531 1.015625 -2.988281 1.328125 -2.988281 C 1.769531 -2.988281 2.023438 -2.847656 2.089844 -2.574219 L 2.449219 -2.574219 C 2.332031 -3.039062 1.957031 -3.273438 1.328125 -3.273438 C 1.042969 -3.273438 0.792969 -3.199219 0.582031 -3.046875 C 0.371094 -2.894531 0.261719 -2.671875 0.261719 -2.367188 C 0.261719 -1.957031 0.59375 -1.671875 1.25 -1.519531 Z M 1.25 -1.519531 "/></g></g></g><g fill="#ffffff" fill-opacity="1"><g transform="translate(149.326297, 216.539613)"><g/></g></g><g fill="#ffffff" fill-opacity="1"><g transform="translate(151.556854, 216.539613)"><g><path d="M 3.53125 -1.609375 C 3.53125 -1.835938 3.484375 -2.050781 3.398438 -2.253906 C 3.3125 -2.453125 3.195312 -2.628906 3.042969 -2.78125 C 2.890625 -2.933594 2.714844 -3.050781 2.515625 -3.136719 C 2.3125 -3.222656 2.097656 -3.269531 1.871094 -3.269531 C 1.640625 -3.269531 1.421875 -3.222656 1.222656 -3.136719 C 1.023438 -3.050781 0.847656 -2.933594 0.699219 -2.78125 C 0.546875 -2.628906 0.425781 -2.453125 0.339844 -2.253906 C 0.257812 -2.050781 0.214844 -1.835938 0.214844 -1.609375 C 0.214844 -1.382812 0.257812 -1.164062 0.339844 -0.964844 C 0.425781 -0.765625 0.546875 -0.589844 0.699219 -0.4375 C 0.847656 -0.285156 1.023438 -0.167969 1.222656 -0.0820312 C 1.421875 0.00390625 1.640625 0.046875 1.871094 0.046875 C 2.003906 0.046875 2.136719 0.0351562 2.265625 0 L 3.578125 0 L 3.578125 -0.269531 L 3.09375 -0.269531 C 2.976562 -0.242188 2.851562 -0.214844 2.71875 -0.183594 C 2.839844 -0.257812 2.949219 -0.339844 3.042969 -0.4375 C 3.195312 -0.589844 3.3125 -0.765625 3.398438 -0.964844 C 3.484375 -1.164062 3.53125 -1.382812 3.53125 -1.609375 Z M 3.199219 -1.609375 C 3.199219 -1.242188 3.066406 -0.929688 2.808594 -0.675781 C 2.546875 -0.414062 2.234375 -0.285156 1.871094 -0.285156 C 1.503906 -0.285156 1.191406 -0.414062 0.933594 -0.675781 C 0.675781 -0.929688 0.546875 -1.242188 0.546875 -1.609375 C 0.546875 -1.972656 0.675781 -2.289062 0.933594 -2.546875 C 1.191406 -2.804688 1.503906 -2.9375 1.871094 -2.9375 C 2.234375 -2.9375 2.546875 -2.804688 2.808594 -2.546875 C 3.066406 -2.289062 3.199219 -1.972656 3.199219 -1.609375 Z M 3.199219 -1.609375 "/></g></g></g><g fill="#ffffff" fill-opacity="1"><g transform="translate(156.226626, 216.539613)"><g><path d="M 2.691406 -1.066406 L 2.691406 -3.226562 L 2.359375 -3.226562 L 2.359375 -1.019531 C 2.359375 -0.886719 2.335938 -0.777344 2.289062 -0.6875 C 2.148438 -0.421875 1.882812 -0.289062 1.492188 -0.289062 C 1.234375 -0.289062 1.03125 -0.347656 0.878906 -0.460938 C 0.703125 -0.589844 0.617188 -0.773438 0.617188 -1.019531 L 0.617188 -3.226562 L 0.285156 -3.226562 L 0.285156 -1.066406 C 0.285156 -0.714844 0.398438 -0.441406 0.625 -0.242188 C 0.839844 -0.0507812 1.128906 0.0429688 1.492188 0.0429688 C 1.847656 0.0429688 2.132812 -0.0507812 2.347656 -0.242188 C 2.578125 -0.441406 2.691406 -0.714844 2.691406 -1.066406 Z M 2.691406 -1.066406 "/></g></g></g><g fill="#ffffff" fill-opacity="1"><g transform="translate(160.151348, 216.539613)"><g><path d="M 2.273438 0 L 2.273438 -0.308594 L 0.6875 -0.308594 L 0.6875 -1.457031 L 2.226562 -1.457031 L 2.226562 -1.769531 L 0.6875 -1.769531 L 0.6875 -2.917969 L 2.273438 -2.917969 L 2.273438 -3.226562 L 0.355469 -3.226562 L 0.355469 0 Z M 2.273438 0 "/></g></g></g><g fill="#ffffff" fill-opacity="1"><g transform="translate(99.770303, 223.669612)"><g><path d="M 0.6875 -1.597656 L 0.6875 -2.910156 L 1.4375 -2.910156 C 1.632812 -2.910156 1.789062 -2.847656 1.90625 -2.730469 C 2.023438 -2.605469 2.082031 -2.453125 2.082031 -2.265625 C 2.082031 -2.070312 2.023438 -1.914062 1.898438 -1.785156 C 1.773438 -1.660156 1.625 -1.597656 1.4375 -1.597656 Z M 2.414062 -2.253906 C 2.414062 -2.539062 2.3125 -2.773438 2.113281 -2.957031 C 1.914062 -3.136719 1.675781 -3.226562 1.390625 -3.226562 L 0.355469 -3.226562 L 0.355469 0 L 0.6875 0 L 0.6875 -1.277344 L 1.390625 -1.277344 C 1.675781 -1.277344 1.917969 -1.367188 2.113281 -1.546875 C 2.3125 -1.738281 2.414062 -1.96875 2.414062 -2.253906 Z M 2.414062 -2.253906 "/></g></g></g><g fill="#ffffff" fill-opacity="1"><g transform="translate(103.22996, 223.669612)"><g><path d="M 0.878906 -1.1875 L 1.464844 -2.671875 L 2.050781 -1.1875 Z M 2.878906 0 L 1.464844 -3.449219 L 0.046875 0 L 0.40625 0 L 0.753906 -0.878906 L 2.171875 -0.878906 L 2.519531 0 Z M 2.878906 0 "/></g></g></g><g fill="#ffffff" fill-opacity="1"><g transform="translate(107.107225, 223.669612)"><g><path d="M 1.25 -1.519531 C 1.664062 -1.417969 1.949219 -1.308594 2.101562 -1.1875 C 2.207031 -1.101562 2.257812 -0.992188 2.257812 -0.859375 C 2.257812 -0.726562 2.230469 -0.617188 2.171875 -0.542969 C 2.03125 -0.339844 1.773438 -0.242188 1.414062 -0.242188 C 0.910156 -0.242188 0.625 -0.414062 0.566406 -0.753906 L 0.175781 -0.753906 C 0.289062 -0.207031 0.703125 0.0625 1.414062 0.0625 C 1.730469 0.0625 2 -0.00390625 2.210938 -0.148438 C 2.46875 -0.3125 2.601562 -0.558594 2.601562 -0.882812 C 2.601562 -1.148438 2.496094 -1.351562 2.289062 -1.496094 C 2.140625 -1.597656 1.902344 -1.695312 1.574219 -1.78125 C 1.242188 -1.863281 1.03125 -1.9375 0.929688 -1.988281 C 0.710938 -2.097656 0.601562 -2.25 0.609375 -2.449219 C 0.609375 -2.554688 0.625 -2.644531 0.675781 -2.710938 C 0.796875 -2.894531 1.015625 -2.988281 1.328125 -2.988281 C 1.769531 -2.988281 2.023438 -2.847656 2.089844 -2.574219 L 2.449219 -2.574219 C 2.332031 -3.039062 1.957031 -3.273438 1.328125 -3.273438 C 1.042969 -3.273438 0.792969 -3.199219 0.582031 -3.046875 C 0.371094 -2.894531 0.261719 -2.671875 0.261719 -2.367188 C 0.261719 -1.957031 0.59375 -1.671875 1.25 -1.519531 Z M 1.25 -1.519531 "/></g></g></g><g fill="#ffffff" fill-opacity="1"><g transform="translate(110.780431, 223.669612)"><g><path d="M 1.25 -1.519531 C 1.664062 -1.417969 1.949219 -1.308594 2.101562 -1.1875 C 2.207031 -1.101562 2.257812 -0.992188 2.257812 -0.859375 C 2.257812 -0.726562 2.230469 -0.617188 2.171875 -0.542969 C 2.03125 -0.339844 1.773438 -0.242188 1.414062 -0.242188 C 0.910156 -0.242188 0.625 -0.414062 0.566406 -0.753906 L 0.175781 -0.753906 C 0.289062 -0.207031 0.703125 0.0625 1.414062 0.0625 C 1.730469 0.0625 2 -0.00390625 2.210938 -0.148438 C 2.46875 -0.3125 2.601562 -0.558594 2.601562 -0.882812 C 2.601562 -1.148438 2.496094 -1.351562 2.289062 -1.496094 C 2.140625 -1.597656 1.902344 -1.695312 1.574219 -1.78125 C 1.242188 -1.863281 1.03125 -1.9375 0.929688 -1.988281 C 0.710938 -2.097656 0.601562 -2.25 0.609375 -2.449219 C 0.609375 -2.554688 0.625 -2.644531 0.675781 -2.710938 C 0.796875 -2.894531 1.015625 -2.988281 1.328125 -2.988281 C 1.769531 -2.988281 2.023438 -2.847656 2.089844 -2.574219 L 2.449219 -2.574219 C 2.332031 -3.039062 1.957031 -3.273438 1.328125 -3.273438 C 1.042969 -3.273438 0.792969 -3.199219 0.582031 -3.046875 C 0.371094 -2.894531 0.261719 -2.671875 0.261719 -2.367188 C 0.261719 -1.957031 0.59375 -1.671875 1.25 -1.519531 Z M 1.25 -1.519531 "/></g></g></g><g fill="#ffffff" fill-opacity="1"><g transform="translate(114.453637, 223.669612)"><g><path d="M 0.878906 -1.1875 L 1.464844 -2.671875 L 2.050781 -1.1875 Z M 2.878906 0 L 1.464844 -3.449219 L 0.046875 0 L 0.40625 0 L 0.753906 -0.878906 L 2.171875 -0.878906 L 2.519531 0 Z M 2.878906 0 "/></g></g></g><g fill="#ffffff" fill-opacity="1"><g transform="translate(118.330904, 223.669612)"><g><path d="M 3.332031 0 L 3.667969 0 L 2.917969 -3.441406 L 1.859375 -0.679688 L 0.800781 -3.441406 L 0.046875 0 L 0.390625 0 L 0.886719 -2.296875 L 1.859375 0.191406 L 2.828125 -2.296875 Z M 3.332031 0 "/></g></g></g><g fill="#ffffff" fill-opacity="1"><g transform="translate(122.995931, 223.669612)"><g/></g></g><g fill="#ffffff" fill-opacity="1"><g transform="translate(125.226486, 223.669612)"><g><path d="M 2.863281 -1.613281 C 2.863281 -1.847656 2.8125 -2.058594 2.730469 -2.257812 C 2.644531 -2.457031 2.523438 -2.628906 2.378906 -2.773438 C 2.226562 -2.914062 2.050781 -3.023438 1.851562 -3.105469 C 1.648438 -3.183594 1.429688 -3.226562 1.199219 -3.226562 L 0.355469 -3.226562 L 0.355469 0 L 1.199219 0 C 1.429688 0 1.648438 -0.0390625 1.851562 -0.117188 C 2.050781 -0.199219 2.226562 -0.3125 2.378906 -0.457031 C 2.523438 -0.597656 2.644531 -0.765625 2.730469 -0.964844 C 2.8125 -1.164062 2.863281 -1.375 2.863281 -1.613281 Z M 2.539062 -1.613281 C 2.539062 -1.242188 2.40625 -0.933594 2.148438 -0.691406 C 1.894531 -0.449219 1.582031 -0.332031 1.210938 -0.332031 L 0.6875 -0.332031 L 0.6875 -2.894531 L 1.210938 -2.894531 C 1.582031 -2.894531 1.894531 -2.773438 2.148438 -2.535156 C 2.40625 -2.289062 2.539062 -1.980469 2.539062 -1.613281 Z M 2.539062 -1.613281 "/></g></g></g><g fill="#ffffff" fill-opacity="1"><g transform="translate(129.250863, 223.669612)"><g><path d="M 2.273438 0 L 2.273438 -0.308594 L 0.6875 -0.308594 L 0.6875 -1.457031 L 2.226562 -1.457031 L 2.226562 -1.769531 L 0.6875 -1.769531 L 0.6875 -2.917969 L 2.273438 -2.917969 L 2.273438 -3.226562 L 0.355469 -3.226562 L 0.355469 0 Z M 2.273438 0 "/></g></g></g><g fill="#ffffff" fill-opacity="1"><g transform="translate(132.829157, 223.669612)"><g/></g></g><g fill="#ffffff" fill-opacity="1"><g transform="translate(135.059714, 223.669612)"><g><path d="M 3.539062 -1.507812 L 1.859375 -1.507812 L 1.859375 -1.21875 L 3.171875 -1.21875 C 3.070312 -0.941406 2.90625 -0.710938 2.667969 -0.546875 C 2.429688 -0.375 2.164062 -0.292969 1.875 -0.292969 C 1.503906 -0.292969 1.191406 -0.421875 0.929688 -0.683594 C 0.675781 -0.945312 0.546875 -1.261719 0.546875 -1.628906 C 0.546875 -1.992188 0.675781 -2.304688 0.933594 -2.566406 C 1.191406 -2.824219 1.503906 -2.957031 1.875 -2.957031 C 2.148438 -2.957031 2.402344 -2.875 2.625 -2.71875 C 2.851562 -2.5625 3.015625 -2.359375 3.117188 -2.097656 L 3.46875 -2.097656 C 3.359375 -2.453125 3.15625 -2.738281 2.863281 -2.957031 C 2.566406 -3.175781 2.226562 -3.289062 1.839844 -3.289062 C 1.632812 -3.289062 1.429688 -3.242188 1.230469 -3.15625 C 1.023438 -3.070312 0.847656 -2.953125 0.699219 -2.800781 C 0.546875 -2.648438 0.425781 -2.472656 0.339844 -2.273438 C 0.257812 -2.070312 0.214844 -1.851562 0.214844 -1.625 C 0.214844 -1.394531 0.257812 -1.175781 0.339844 -0.976562 C 0.425781 -0.773438 0.546875 -0.597656 0.699219 -0.445312 C 0.847656 -0.292969 1.023438 -0.175781 1.230469 -0.0898438 C 1.429688 -0.00390625 1.648438 0.0390625 1.875 0.0390625 C 2.265625 0.0390625 2.613281 -0.0859375 2.929688 -0.335938 C 3.242188 -0.59375 3.4375 -0.914062 3.507812 -1.308594 Z M 3.539062 -1.507812 "/></g></g></g><g fill="#ffffff" fill-opacity="1"><g transform="translate(139.762707, 223.669612)"><g><path d="M 2.273438 0 L 2.273438 -0.308594 L 0.6875 -0.308594 L 0.6875 -1.457031 L 2.226562 -1.457031 L 2.226562 -1.769531 L 0.6875 -1.769531 L 0.6875 -2.917969 L 2.273438 -2.917969 L 2.273438 -3.226562 L 0.355469 -3.226562 L 0.355469 0 Z M 2.273438 0 "/></g></g></g><g fill="#ffffff" fill-opacity="1"><g transform="translate(143.341001, 223.669612)"><g><path d="M 0.6875 -1.59375 L 0.6875 -2.910156 L 1.4375 -2.910156 C 1.632812 -2.910156 1.789062 -2.847656 1.90625 -2.722656 C 2.023438 -2.601562 2.082031 -2.449219 2.082031 -2.257812 C 2.082031 -2.070312 2.023438 -1.914062 1.898438 -1.785156 C 1.773438 -1.65625 1.625 -1.59375 1.4375 -1.59375 Z M 2.414062 -2.253906 C 2.414062 -2.53125 2.3125 -2.765625 2.113281 -2.953125 C 1.917969 -3.132812 1.675781 -3.226562 1.390625 -3.226562 L 0.355469 -3.226562 L 0.355469 0 L 0.6875 0 L 0.6875 -1.277344 L 1.074219 -1.277344 L 2.023438 0 L 2.46875 0 L 1.472656 -1.277344 C 1.722656 -1.289062 1.9375 -1.382812 2.113281 -1.546875 C 2.3125 -1.730469 2.414062 -1.96875 2.414062 -2.253906 Z M 2.414062 -2.253906 "/></g></g></g><g fill="#ffffff" fill-opacity="1"><g transform="translate(146.871843, 223.669612)"><g><path d="M 0.878906 -1.1875 L 1.464844 -2.671875 L 2.050781 -1.1875 Z M 2.878906 0 L 1.464844 -3.449219 L 0.046875 0 L 0.40625 0 L 0.753906 -0.878906 L 2.171875 -0.878906 L 2.519531 0 Z M 2.878906 0 "/></g></g></g><g fill="#ffffff" fill-opacity="1"><g transform="translate(150.749109, 223.669612)"><g><path d="M 3.316406 -0.988281 L 2.953125 -0.988281 C 2.839844 -0.777344 2.679688 -0.609375 2.480469 -0.484375 C 2.28125 -0.355469 2.058594 -0.292969 1.824219 -0.292969 C 1.464844 -0.292969 1.164062 -0.421875 0.910156 -0.6875 C 0.664062 -0.941406 0.546875 -1.25 0.546875 -1.609375 C 0.546875 -1.96875 0.664062 -2.277344 0.910156 -2.535156 C 1.023438 -2.652344 1.164062 -2.746094 1.320312 -2.820312 C 1.472656 -2.890625 1.625 -2.929688 1.773438 -2.929688 C 1.921875 -2.929688 2.050781 -2.910156 2.164062 -2.875 C 2.511719 -2.773438 2.773438 -2.5625 2.949219 -2.246094 L 3.3125 -2.246094 C 3.1875 -2.546875 2.996094 -2.796875 2.722656 -2.984375 C 2.449219 -3.175781 2.148438 -3.269531 1.824219 -3.269531 C 1.371094 -3.269531 0.992188 -3.105469 0.679688 -2.777344 C 0.53125 -2.625 0.417969 -2.445312 0.335938 -2.246094 C 0.25 -2.046875 0.214844 -1.832031 0.214844 -1.609375 C 0.214844 -1.152344 0.367188 -0.769531 0.679688 -0.445312 C 0.941406 -0.167969 1.253906 -0.00390625 1.613281 0.0390625 L 1.410156 0.488281 C 1.472656 0.480469 1.539062 0.46875 1.613281 0.457031 C 1.683594 0.445312 1.757812 0.441406 1.824219 0.449219 C 2 0.480469 2.074219 0.574219 2.046875 0.742188 C 2.03125 0.84375 1.941406 0.902344 1.773438 0.921875 C 1.613281 0.941406 1.441406 0.914062 1.265625 0.847656 L 1.148438 1.097656 C 1.371094 1.1875 1.589844 1.214844 1.808594 1.1875 C 2.039062 1.152344 2.191406 1.050781 2.269531 0.875 C 2.335938 0.714844 2.324219 0.566406 2.25 0.421875 C 2.210938 0.359375 2.164062 0.308594 2.105469 0.269531 C 2.050781 0.234375 1.980469 0.214844 1.902344 0.214844 C 1.828125 0.214844 1.789062 0.21875 1.785156 0.21875 L 1.863281 0.046875 C 2.171875 0.0429688 2.464844 -0.0507812 2.730469 -0.238281 C 3 -0.425781 3.195312 -0.675781 3.316406 -0.988281 Z M 3.316406 -0.988281 "/></g></g></g><g fill="#ffffff" fill-opacity="1"><g transform="translate(155.157878, 223.669612)"><g><path d="M 0.878906 -1.1875 L 1.464844 -2.671875 L 2.050781 -1.1875 Z M 2.878906 0 L 1.464844 -3.449219 L 0.046875 0 L 0.40625 0 L 0.753906 -0.878906 L 2.171875 -0.878906 L 2.519531 0 Z M 0.683594 -3.558594 L 0.914062 -3.558594 C 0.90625 -3.617188 0.910156 -3.671875 0.925781 -3.722656 C 0.949219 -3.828125 1.015625 -3.886719 1.121094 -3.886719 C 1.183594 -3.886719 1.234375 -3.863281 1.273438 -3.824219 C 1.308594 -3.789062 1.347656 -3.738281 1.386719 -3.691406 C 1.421875 -3.644531 1.476562 -3.597656 1.53125 -3.558594 C 1.589844 -3.523438 1.675781 -3.503906 1.796875 -3.503906 C 1.921875 -3.503906 2.011719 -3.53125 2.078125 -3.59375 C 2.207031 -3.714844 2.257812 -3.882812 2.238281 -4.097656 L 2.007812 -4.097656 C 2.007812 -3.972656 2 -3.898438 1.984375 -3.859375 C 1.96875 -3.828125 1.949219 -3.804688 1.921875 -3.792969 C 1.894531 -3.773438 1.851562 -3.769531 1.792969 -3.769531 C 1.738281 -3.769531 1.691406 -3.789062 1.652344 -3.824219 C 1.613281 -3.863281 1.574219 -3.910156 1.539062 -3.957031 C 1.5 -4.003906 1.453125 -4.046875 1.394531 -4.085938 C 1.339844 -4.125 1.25 -4.148438 1.132812 -4.148438 C 1.015625 -4.148438 0.925781 -4.113281 0.859375 -4.054688 C 0.734375 -3.933594 0.675781 -3.769531 0.683594 -3.558594 Z M 0.683594 -3.558594 "/></g></g></g><g fill="#ffffff" fill-opacity="1"><g transform="translate(159.035145, 223.669612)"><g><path d="M 3.199219 -1.625 C 3.199219 -1.253906 3.066406 -0.941406 2.808594 -0.683594 C 2.546875 -0.421875 2.234375 -0.292969 1.871094 -0.292969 C 1.503906 -0.292969 1.191406 -0.421875 0.933594 -0.683594 C 0.675781 -0.941406 0.546875 -1.253906 0.546875 -1.625 C 0.546875 -1.984375 0.675781 -2.296875 0.933594 -2.558594 C 1.191406 -2.8125 1.503906 -2.949219 1.871094 -2.949219 C 2.234375 -2.949219 2.546875 -2.8125 2.808594 -2.558594 C 3.066406 -2.296875 3.199219 -1.984375 3.199219 -1.625 Z M 3.53125 -1.625 C 3.53125 -1.851562 3.484375 -2.066406 3.398438 -2.269531 C 3.3125 -2.46875 3.195312 -2.644531 3.042969 -2.796875 C 2.890625 -2.941406 2.714844 -3.0625 2.515625 -3.148438 C 2.3125 -3.230469 2.097656 -3.28125 1.871094 -3.28125 C 1.640625 -3.28125 1.421875 -3.230469 1.222656 -3.148438 C 1.023438 -3.0625 0.847656 -2.941406 0.699219 -2.796875 C 0.546875 -2.644531 0.425781 -2.46875 0.339844 -2.269531 C 0.257812 -2.066406 0.214844 -1.851562 0.214844 -1.625 C 0.214844 -1.394531 0.257812 -1.175781 0.339844 -0.976562 C 0.425781 -0.773438 0.546875 -0.597656 0.699219 -0.445312 C 0.847656 -0.292969 1.023438 -0.175781 1.222656 -0.0898438 C 1.421875 -0.00390625 1.640625 0.0390625 1.871094 0.0390625 C 2.097656 0.0390625 2.3125 -0.00390625 2.515625 -0.0898438 C 2.714844 -0.175781 2.890625 -0.292969 3.042969 -0.445312 C 3.195312 -0.597656 3.3125 -0.773438 3.398438 -0.976562 C 3.484375 -1.175781 3.53125 -1.394531 3.53125 -1.625 Z M 3.53125 -1.625 "/></g></g></g><g fill="#ffffff" fill-opacity="1"><g transform="translate(118.084052, 230.799612)"><g><path d="M 0.6875 -1.597656 L 0.6875 -2.910156 L 1.4375 -2.910156 C 1.632812 -2.910156 1.789062 -2.847656 1.90625 -2.730469 C 2.023438 -2.605469 2.082031 -2.453125 2.082031 -2.265625 C 2.082031 -2.070312 2.023438 -1.914062 1.898438 -1.785156 C 1.773438 -1.660156 1.625 -1.597656 1.4375 -1.597656 Z M 2.414062 -2.253906 C 2.414062 -2.539062 2.3125 -2.773438 2.113281 -2.957031 C 1.914062 -3.136719 1.675781 -3.226562 1.390625 -3.226562 L 0.355469 -3.226562 L 0.355469 0 L 0.6875 0 L 0.6875 -1.277344 L 1.390625 -1.277344 C 1.675781 -1.277344 1.917969 -1.367188 2.113281 -1.546875 C 2.3125 -1.738281 2.414062 -1.96875 2.414062 -2.253906 Z M 2.414062 -2.253906 "/></g></g></g><g fill="#ffffff" fill-opacity="1"><g transform="translate(121.543708, 230.799612)"><g><path d="M 0.878906 -1.1875 L 1.464844 -2.671875 L 2.050781 -1.1875 Z M 2.878906 0 L 1.464844 -3.449219 L 0.046875 0 L 0.40625 0 L 0.753906 -0.878906 L 2.171875 -0.878906 L 2.519531 0 Z M 2.878906 0 "/></g></g></g><g fill="#ffffff" fill-opacity="1"><g transform="translate(125.420972, 230.799612)"><g><path d="M 0.6875 -1.59375 L 0.6875 -2.910156 L 1.4375 -2.910156 C 1.632812 -2.910156 1.789062 -2.847656 1.90625 -2.722656 C 2.023438 -2.601562 2.082031 -2.449219 2.082031 -2.257812 C 2.082031 -2.070312 2.023438 -1.914062 1.898438 -1.785156 C 1.773438 -1.65625 1.625 -1.59375 1.4375 -1.59375 Z M 2.414062 -2.253906 C 2.414062 -2.53125 2.3125 -2.765625 2.113281 -2.953125 C 1.917969 -3.132812 1.675781 -3.226562 1.390625 -3.226562 L 0.355469 -3.226562 L 0.355469 0 L 0.6875 0 L 0.6875 -1.277344 L 1.074219 -1.277344 L 2.023438 0 L 2.46875 0 L 1.472656 -1.277344 C 1.722656 -1.289062 1.9375 -1.382812 2.113281 -1.546875 C 2.3125 -1.730469 2.414062 -1.96875 2.414062 -2.253906 Z M 2.414062 -2.253906 "/></g></g></g><g fill="#ffffff" fill-opacity="1"><g transform="translate(128.951812, 230.799612)"><g><path d="M 0.878906 -1.1875 L 1.464844 -2.671875 L 2.050781 -1.1875 Z M 2.878906 0 L 1.464844 -3.449219 L 0.046875 0 L 0.40625 0 L 0.753906 -0.878906 L 2.171875 -0.878906 L 2.519531 0 Z M 2.878906 0 "/></g></g></g><g fill="#ffffff" fill-opacity="1"><g transform="translate(132.829077, 230.799612)"><g/></g></g><g fill="#ffffff" fill-opacity="1"><g transform="translate(135.059632, 230.799612)"><g><path d="M 3.539062 -1.507812 L 1.859375 -1.507812 L 1.859375 -1.21875 L 3.171875 -1.21875 C 3.070312 -0.941406 2.90625 -0.710938 2.667969 -0.546875 C 2.429688 -0.375 2.164062 -0.292969 1.875 -0.292969 C 1.503906 -0.292969 1.191406 -0.421875 0.929688 -0.683594 C 0.675781 -0.945312 0.546875 -1.261719 0.546875 -1.628906 C 0.546875 -1.992188 0.675781 -2.304688 0.933594 -2.566406 C 1.191406 -2.824219 1.503906 -2.957031 1.875 -2.957031 C 2.148438 -2.957031 2.402344 -2.875 2.625 -2.71875 C 2.851562 -2.5625 3.015625 -2.359375 3.117188 -2.097656 L 3.46875 -2.097656 C 3.359375 -2.453125 3.15625 -2.738281 2.863281 -2.957031 C 2.566406 -3.175781 2.226562 -3.289062 1.839844 -3.289062 C 1.632812 -3.289062 1.429688 -3.242188 1.230469 -3.15625 C 1.023438 -3.070312 0.847656 -2.953125 0.699219 -2.800781 C 0.546875 -2.648438 0.425781 -2.472656 0.339844 -2.273438 C 0.257812 -2.070312 0.214844 -1.851562 0.214844 -1.625 C 0.214844 -1.394531 0.257812 -1.175781 0.339844 -0.976562 C 0.425781 -0.773438 0.546875 -0.597656 0.699219 -0.445312 C 0.847656 -0.292969 1.023438 -0.175781 1.230469 -0.0898438 C 1.429688 -0.00390625 1.648438 0.0390625 1.875 0.0390625 C 2.265625 0.0390625 2.613281 -0.0859375 2.929688 -0.335938 C 3.242188 -0.59375 3.4375 -0.914062 3.507812 -1.308594 Z M 3.539062 -1.507812 "/></g></g></g><g fill="#ffffff" fill-opacity="1"><g transform="translate(139.762624, 230.799612)"><g><path d="M 2.273438 0 L 2.273438 -0.308594 L 0.6875 -0.308594 L 0.6875 -1.457031 L 2.226562 -1.457031 L 2.226562 -1.769531 L 0.6875 -1.769531 L 0.6875 -2.917969 L 2.273438 -2.917969 L 2.273438 -3.226562 L 0.355469 -3.226562 L 0.355469 0 Z M 2.273438 0 "/></g></g></g><g fill="#ffffff" fill-opacity="1"><g transform="translate(143.340917, 230.799612)"><g><path d="M 0.6875 -1.59375 L 0.6875 -2.910156 L 1.4375 -2.910156 C 1.632812 -2.910156 1.789062 -2.847656 1.90625 -2.722656 C 2.023438 -2.601562 2.082031 -2.449219 2.082031 -2.257812 C 2.082031 -2.070312 2.023438 -1.914062 1.898438 -1.785156 C 1.773438 -1.65625 1.625 -1.59375 1.4375 -1.59375 Z M 2.414062 -2.253906 C 2.414062 -2.53125 2.3125 -2.765625 2.113281 -2.953125 C 1.917969 -3.132812 1.675781 -3.226562 1.390625 -3.226562 L 0.355469 -3.226562 L 0.355469 0 L 0.6875 0 L 0.6875 -1.277344 L 1.074219 -1.277344 L 2.023438 0 L 2.46875 0 L 1.472656 -1.277344 C 1.722656 -1.289062 1.9375 -1.382812 2.113281 -1.546875 C 2.3125 -1.730469 2.414062 -1.96875 2.414062 -2.253906 Z M 2.414062 -2.253906 "/></g></g></g><g fill="#ffffff" fill-opacity="1"><g transform="translate(146.871757, 230.799612)"><g><path d="M 0.878906 -1.1875 L 1.464844 -2.671875 L 2.050781 -1.1875 Z M 2.878906 0 L 1.464844 -3.449219 L 0.046875 0 L 0.40625 0 L 0.753906 -0.878906 L 2.171875 -0.878906 L 2.519531 0 Z M 2.878906 0 "/></g></g></g><g fill="#ffffff" fill-opacity="1"><g transform="translate(150.749022, 230.799612)"><g><path d="M 3.316406 -0.988281 L 2.953125 -0.988281 C 2.839844 -0.777344 2.679688 -0.609375 2.480469 -0.484375 C 2.28125 -0.355469 2.058594 -0.292969 1.824219 -0.292969 C 1.464844 -0.292969 1.164062 -0.421875 0.910156 -0.6875 C 0.664062 -0.941406 0.546875 -1.25 0.546875 -1.609375 C 0.546875 -1.96875 0.664062 -2.277344 0.910156 -2.535156 C 1.023438 -2.652344 1.164062 -2.746094 1.320312 -2.820312 C 1.472656 -2.890625 1.625 -2.929688 1.773438 -2.929688 C 1.921875 -2.929688 2.050781 -2.910156 2.164062 -2.875 C 2.511719 -2.773438 2.773438 -2.5625 2.949219 -2.246094 L 3.3125 -2.246094 C 3.1875 -2.546875 2.996094 -2.796875 2.722656 -2.984375 C 2.449219 -3.175781 2.148438 -3.269531 1.824219 -3.269531 C 1.371094 -3.269531 0.992188 -3.105469 0.679688 -2.777344 C 0.53125 -2.625 0.417969 -2.445312 0.335938 -2.246094 C 0.25 -2.046875 0.214844 -1.832031 0.214844 -1.609375 C 0.214844 -1.152344 0.367188 -0.769531 0.679688 -0.445312 C 0.941406 -0.167969 1.253906 -0.00390625 1.613281 0.0390625 L 1.410156 0.488281 C 1.472656 0.480469 1.539062 0.46875 1.613281 0.457031 C 1.683594 0.445312 1.757812 0.441406 1.824219 0.449219 C 2 0.480469 2.074219 0.574219 2.046875 0.742188 C 2.03125 0.84375 1.941406 0.902344 1.773438 0.921875 C 1.613281 0.941406 1.441406 0.914062 1.265625 0.847656 L 1.148438 1.097656 C 1.371094 1.1875 1.589844 1.214844 1.808594 1.1875 C 2.039062 1.152344 2.191406 1.050781 2.269531 0.875 C 2.335938 0.714844 2.324219 0.566406 2.25 0.421875 C 2.210938 0.359375 2.164062 0.308594 2.105469 0.269531 C 2.050781 0.234375 1.980469 0.214844 1.902344 0.214844 C 1.828125 0.214844 1.789062 0.21875 1.785156 0.21875 L 1.863281 0.046875 C 2.171875 0.0429688 2.464844 -0.0507812 2.730469 -0.238281 C 3 -0.425781 3.195312 -0.675781 3.316406 -0.988281 Z M 3.316406 -0.988281 "/></g></g></g><g fill="#ffffff" fill-opacity="1"><g transform="translate(155.157791, 230.799612)"><g><path d="M 0.878906 -1.1875 L 1.464844 -2.671875 L 2.050781 -1.1875 Z M 2.878906 0 L 1.464844 -3.449219 L 0.046875 0 L 0.40625 0 L 0.753906 -0.878906 L 2.171875 -0.878906 L 2.519531 0 Z M 0.683594 -3.558594 L 0.914062 -3.558594 C 0.90625 -3.617188 0.910156 -3.671875 0.925781 -3.722656 C 0.949219 -3.828125 1.015625 -3.886719 1.121094 -3.886719 C 1.183594 -3.886719 1.234375 -3.863281 1.273438 -3.824219 C 1.308594 -3.789062 1.347656 -3.738281 1.386719 -3.691406 C 1.421875 -3.644531 1.476562 -3.597656 1.53125 -3.558594 C 1.589844 -3.523438 1.675781 -3.503906 1.796875 -3.503906 C 1.921875 -3.503906 2.011719 -3.53125 2.078125 -3.59375 C 2.207031 -3.714844 2.257812 -3.882812 2.238281 -4.097656 L 2.007812 -4.097656 C 2.007812 -3.972656 2 -3.898438 1.984375 -3.859375 C 1.96875 -3.828125 1.949219 -3.804688 1.921875 -3.792969 C 1.894531 -3.773438 1.851562 -3.769531 1.792969 -3.769531 C 1.738281 -3.769531 1.691406 -3.789062 1.652344 -3.824219 C 1.613281 -3.863281 1.574219 -3.910156 1.539062 -3.957031 C 1.5 -4.003906 1.453125 -4.046875 1.394531 -4.085938 C 1.339844 -4.125 1.25 -4.148438 1.132812 -4.148438 C 1.015625 -4.148438 0.925781 -4.113281 0.859375 -4.054688 C 0.734375 -3.933594 0.675781 -3.769531 0.683594 -3.558594 Z M 0.683594 -3.558594 "/></g></g></g><g fill="#ffffff" fill-opacity="1"><g transform="translate(159.035054, 230.799612)"><g><path d="M 3.199219 -1.625 C 3.199219 -1.253906 3.066406 -0.941406 2.808594 -0.683594 C 2.546875 -0.421875 2.234375 -0.292969 1.871094 -0.292969 C 1.503906 -0.292969 1.191406 -0.421875 0.933594 -0.683594 C 0.675781 -0.941406 0.546875 -1.253906 0.546875 -1.625 C 0.546875 -1.984375 0.675781 -2.296875 0.933594 -2.558594 C 1.191406 -2.8125 1.503906 -2.949219 1.871094 -2.949219 C 2.234375 -2.949219 2.546875 -2.8125 2.808594 -2.558594 C 3.066406 -2.296875 3.199219 -1.984375 3.199219 -1.625 Z M 3.53125 -1.625 C 3.53125 -1.851562 3.484375 -2.066406 3.398438 -2.269531 C 3.3125 -2.46875 3.195312 -2.644531 3.042969 -2.796875 C 2.890625 -2.941406 2.714844 -3.0625 2.515625 -3.148438 C 2.3125 -3.230469 2.097656 -3.28125 1.871094 -3.28125 C 1.640625 -3.28125 1.421875 -3.230469 1.222656 -3.148438 C 1.023438 -3.0625 0.847656 -2.941406 0.699219 -2.796875 C 0.546875 -2.644531 0.425781 -2.46875 0.339844 -2.269531 C 0.257812 -2.066406 0.214844 -1.851562 0.214844 -1.625 C 0.214844 -1.394531 0.257812 -1.175781 0.339844 -0.976562 C 0.425781 -0.773438 0.546875 -0.597656 0.699219 -0.445312 C 0.847656 -0.292969 1.023438 -0.175781 1.222656 -0.0898438 C 1.421875 -0.00390625 1.640625 0.0390625 1.871094 0.0390625 C 2.097656 0.0390625 2.3125 -0.00390625 2.515625 -0.0898438 C 2.714844 -0.175781 2.890625 -0.292969 3.042969 -0.445312 C 3.195312 -0.597656 3.3125 -0.773438 3.398438 -0.976562 C 3.484375 -1.175781 3.53125 -1.394531 3.53125 -1.625 Z M 3.53125 -1.625 "/></g></g></g><g fill="#ffffff" fill-opacity="1"><g transform="translate(125.114846, 246.051586)"><g><path d="M 0.996094 -1.152344 L 1 -1.152344 L 1.769531 0 L 2.671875 0 L 1.746094 -1.1875 C 2.15625 -1.285156 2.480469 -1.648438 2.480469 -2.191406 C 2.480469 -2.804688 2.015625 -3.226562 1.496094 -3.226562 L 0.285156 -3.226562 L 0.285156 0 L 0.996094 0 Z M 1.375 -2.667969 C 1.585938 -2.667969 1.804688 -2.488281 1.804688 -2.191406 C 1.804688 -1.882812 1.585938 -1.714844 1.375 -1.714844 L 0.996094 -1.714844 L 0.996094 -2.667969 Z M 1.375 -2.667969 "/></g></g></g><g fill="#ffffff" fill-opacity="1"><g transform="translate(127.966961, 246.051586)"><g><path d="M 1.363281 -0.492188 C 0.976562 -0.492188 0.875 -0.773438 0.875 -1.039062 C 0.875 -1.300781 0.988281 -1.582031 1.363281 -1.582031 C 1.730469 -1.582031 1.847656 -1.300781 1.847656 -1.039062 C 1.847656 -0.773438 1.742188 -0.492188 1.363281 -0.492188 Z M 1.363281 -2.136719 C 0.707031 -2.136719 0.167969 -1.699219 0.167969 -1.042969 C 0.167969 -0.375 0.691406 0.0429688 1.363281 0.0429688 C 2.027344 0.0429688 2.554688 -0.375 2.554688 -1.042969 C 2.554688 -1.699219 2.011719 -2.136719 1.363281 -2.136719 Z M 1.363281 -2.136719 "/></g></g></g><g fill="#ffffff" fill-opacity="1"><g transform="translate(130.92348, 246.051586)"><g><path d="M 2.222656 -1.457031 C 2.160156 -1.9375 1.757812 -2.140625 1.207031 -2.140625 C 0.511719 -2.140625 0.183594 -1.902344 0.183594 -1.476562 C 0.183594 -0.714844 1.539062 -1.0625 1.539062 -0.621094 C 1.539062 -0.507812 1.398438 -0.445312 1.238281 -0.445312 C 1.082031 -0.445312 0.800781 -0.464844 0.800781 -0.777344 L 0.09375 -0.777344 C 0.132812 -0.183594 0.601562 0.046875 1.222656 0.046875 C 1.832031 0.046875 2.253906 -0.132812 2.253906 -0.625 C 2.253906 -1.507812 0.902344 -1.210938 0.902344 -1.503906 C 0.902344 -1.628906 1.050781 -1.699219 1.1875 -1.699219 C 1.324219 -1.699219 1.5 -1.648438 1.523438 -1.457031 Z M 2.222656 -1.457031 "/></g></g></g><g fill="#ffffff" fill-opacity="1"><g transform="translate(133.5573, 246.051586)"><g><path d="M 0.929688 -1.296875 C 0.929688 -1.296875 0.953125 -1.683594 1.398438 -1.683594 C 1.832031 -1.683594 1.863281 -1.296875 1.863281 -1.296875 Z M 2.546875 -1.089844 C 2.546875 -1.761719 2.023438 -2.140625 1.386719 -2.140625 C 0.683594 -2.140625 0.167969 -1.699219 0.167969 -1.042969 C 0.167969 -0.378906 0.664062 0.046875 1.386719 0.046875 C 1.941406 0.046875 2.386719 -0.226562 2.511719 -0.777344 L 1.785156 -0.777344 C 1.78125 -0.625 1.625 -0.460938 1.371094 -0.460938 C 1.089844 -0.460938 0.921875 -0.714844 0.921875 -0.957031 L 2.542969 -0.957031 C 2.542969 -1 2.546875 -1.050781 2.546875 -1.089844 Z M 2.546875 -1.089844 "/></g></g></g><g fill="#ffffff" fill-opacity="1"><g transform="translate(136.509073, 246.051586)"><g><path d="M 2.398438 -1.0625 C 2.398438 -1.300781 2.507812 -1.566406 2.78125 -1.566406 C 3.019531 -1.566406 3.085938 -1.363281 3.085938 -1.15625 L 3.085938 0 L 3.796875 0 L 3.796875 -1.15625 C 3.796875 -1.699219 3.535156 -2.140625 2.988281 -2.140625 C 2.664062 -2.140625 2.429688 -2.046875 2.226562 -1.785156 C 2.078125 -2.023438 1.839844 -2.140625 1.574219 -2.140625 C 1.34375 -2.140625 1.140625 -2.015625 0.996094 -1.835938 L 0.996094 -2.09375 L 0.285156 -2.09375 L 0.285156 0 L 0.996094 0 L 0.996094 -1.042969 C 0.996094 -1.253906 1.140625 -1.566406 1.382812 -1.566406 C 1.617188 -1.566406 1.683594 -1.363281 1.683594 -1.15625 L 1.683594 0 L 2.398438 0 Z M 2.398438 -1.0625 "/></g></g></g><g fill="#ffffff" fill-opacity="1"><g transform="translate(140.756383, 246.051586)"><g><path d="M 1.921875 -1.042969 C 1.921875 -0.769531 1.707031 -0.523438 1.421875 -0.523438 C 1.140625 -0.523438 0.925781 -0.769531 0.925781 -1.042969 C 0.925781 -1.320312 1.140625 -1.566406 1.421875 -1.566406 C 1.707031 -1.566406 1.921875 -1.320312 1.921875 -1.042969 Z M 2.632812 -2.089844 L 1.921875 -2.089844 L 1.921875 -1.835938 C 1.738281 -2.066406 1.472656 -2.140625 1.207031 -2.140625 C 0.613281 -2.140625 0.167969 -1.625 0.167969 -1.042969 C 0.167969 -0.464844 0.613281 0.046875 1.207031 0.046875 C 1.472656 0.046875 1.78125 -0.0390625 1.921875 -0.25 L 1.921875 0 L 2.632812 0 Z M 2.632812 -2.089844 "/></g></g></g><g fill="#ffffff" fill-opacity="1"><g transform="translate(143.912215, 246.051586)"><g><path d="M 1.464844 -1.566406 C 1.574219 -1.566406 1.679688 -1.53125 1.75 -1.449219 L 1.761719 -1.449219 L 1.761719 -2.09375 C 1.703125 -2.121094 1.609375 -2.140625 1.546875 -2.140625 C 1.285156 -2.140625 1.105469 -1.992188 0.996094 -1.835938 L 0.996094 -2.09375 L 0.285156 -2.09375 L 0.285156 0 L 0.996094 0 L 0.996094 -1.042969 C 0.996094 -1.296875 1.199219 -1.566406 1.464844 -1.566406 Z M 1.464844 -1.566406 "/></g></g></g><g fill="#ffffff" fill-opacity="1"><g transform="translate(145.957586, 246.051586)"><g><path d="M 1.132812 1.1875 L 1.589844 0 L 2.386719 -2.09375 L 1.664062 -2.09375 L 1.167969 -0.597656 L 0.667969 -2.09375 L -0.046875 -2.09375 L 0.75 0 L 0.867188 0 L 0.394531 1.1875 Z M 1.132812 1.1875 "/></g></g></g><g fill="#ffffff" fill-opacity="1"><g transform="translate(148.534461, 246.051586)"><g/></g></g><g fill="#ffffff" fill-opacity="1"><g transform="translate(149.958165, 246.051586)"><g><path d="M 1.898438 -2.609375 C 2.210938 -2.609375 2.535156 -2.480469 2.691406 -2.140625 L 3.472656 -2.140625 C 3.25 -2.808594 2.609375 -3.273438 1.898438 -3.273438 C 0.988281 -3.273438 0.238281 -2.523438 0.238281 -1.613281 C 0.238281 -0.703125 0.988281 0.046875 1.898438 0.046875 C 2.820312 0.046875 3.554688 -0.699219 3.554688 -1.613281 L 3.554688 -1.722656 L 1.964844 -1.722656 L 1.964844 -1.1875 L 2.785156 -1.1875 C 2.609375 -0.699219 2.210938 -0.597656 1.898438 -0.597656 C 1.386719 -0.597656 0.957031 -1.058594 0.957031 -1.605469 C 0.957031 -2.148438 1.386719 -2.609375 1.898438 -2.609375 Z M 1.898438 -2.609375 "/></g></g></g><g fill="#ffffff" fill-opacity="1"><g transform="translate(153.915996, 246.051586)"><g><path d="M 0.996094 0 L 0.996094 -3.558594 L 0.285156 -3.558594 L 0.285156 0 Z M 0.996094 0 "/></g></g></g><g fill="#ffffff" fill-opacity="1"><g transform="translate(155.43461, 246.051586)"><g><path d="M 1.921875 -1.042969 C 1.921875 -0.769531 1.707031 -0.523438 1.421875 -0.523438 C 1.140625 -0.523438 0.925781 -0.769531 0.925781 -1.042969 C 0.925781 -1.320312 1.140625 -1.566406 1.421875 -1.566406 C 1.707031 -1.566406 1.921875 -1.320312 1.921875 -1.042969 Z M 2.632812 -2.089844 L 1.921875 -2.089844 L 1.921875 -1.835938 C 1.738281 -2.066406 1.472656 -2.140625 1.207031 -2.140625 C 0.613281 -2.140625 0.167969 -1.625 0.167969 -1.042969 C 0.167969 -0.464844 0.613281 0.046875 1.207031 0.046875 C 1.472656 0.046875 1.78125 -0.0390625 1.921875 -0.25 L 1.921875 0 L 2.632812 0 Z M 2.632812 -2.089844 "/></g></g></g><g fill="#ffffff" fill-opacity="1"><g transform="translate(158.590441, 246.051586)"><g><path d="M 1.183594 -1.542969 L 1.5625 -1.542969 L 1.5625 -2.09375 L 1.183594 -2.09375 L 1.183594 -2.890625 L 0.472656 -2.890625 L 0.472656 -2.09375 L 0.09375 -2.09375 L 0.09375 -1.542969 L 0.472656 -1.542969 L 0.472656 0 L 1.183594 0 Z M 1.183594 -1.542969 "/></g></g></g><g fill="#ffffff" fill-opacity="1"><g transform="translate(160.483954, 246.051586)"><g><path d="M 2.226562 -0.566406 L 1.210938 -0.566406 L 2.214844 -2.09375 L 0.117188 -2.09375 L 0.117188 -1.550781 L 1.125 -1.550781 L 0.0234375 0 L 2.226562 0 Z M 2.226562 -0.566406 "/></g></g></g><g fill="#ffffff" fill-opacity="1"><g transform="translate(89.706739, 16.98393)"><g><path d="M 0.820312 -1.898438 L 0.820312 -3.460938 L 1.710938 -3.460938 C 1.941406 -3.460938 2.128906 -3.386719 2.269531 -3.242188 C 2.40625 -3.09375 2.480469 -2.914062 2.480469 -2.6875 C 2.480469 -2.460938 2.40625 -2.277344 2.257812 -2.125 C 2.113281 -1.972656 1.929688 -1.898438 1.710938 -1.898438 Z M 2.875 -2.683594 C 2.875 -3.011719 2.75 -3.292969 2.511719 -3.511719 C 2.28125 -3.726562 1.992188 -3.839844 1.65625 -3.839844 L 0.421875 -3.839844 L 0.421875 0 L 0.820312 0 L 0.820312 -1.519531 L 1.277344 -1.519531 L 2.40625 0 L 2.9375 0 L 1.75 -1.519531 C 2.050781 -1.535156 2.304688 -1.644531 2.511719 -1.839844 C 2.75 -2.0625 2.875 -2.34375 2.875 -2.683594 Z M 2.875 -2.683594 "/></g></g></g><g fill="#ffffff" fill-opacity="1"><g transform="translate(93.908694, 16.98393)"><g><path d="M 2.707031 0 L 2.707031 -0.367188 L 0.820312 -0.367188 L 0.820312 -1.734375 L 2.648438 -1.734375 L 2.648438 -2.105469 L 0.820312 -2.105469 L 0.820312 -3.472656 L 2.707031 -3.472656 L 2.707031 -3.839844 L 0.421875 -3.839844 L 0.421875 0 Z M 2.707031 0 "/></g></g></g><g fill="#ffffff" fill-opacity="1"><g transform="translate(98.167123, 16.98393)"><g><path d="M 3.949219 -1.175781 L 3.511719 -1.175781 C 3.378906 -0.925781 3.191406 -0.722656 2.953125 -0.574219 C 2.714844 -0.421875 2.449219 -0.351562 2.167969 -0.351562 C 1.746094 -0.351562 1.382812 -0.503906 1.085938 -0.820312 C 0.789062 -1.117188 0.648438 -1.484375 0.648438 -1.914062 C 0.648438 -2.34375 0.789062 -2.710938 1.085938 -3.015625 C 1.21875 -3.15625 1.382812 -3.269531 1.570312 -3.355469 C 1.75 -3.4375 1.929688 -3.484375 2.113281 -3.484375 C 2.289062 -3.484375 2.441406 -3.460938 2.574219 -3.421875 C 2.988281 -3.296875 3.296875 -3.050781 3.507812 -2.671875 L 3.941406 -2.671875 C 3.796875 -3.03125 3.5625 -3.328125 3.242188 -3.550781 C 2.914062 -3.777344 2.558594 -3.890625 2.167969 -3.890625 C 1.632812 -3.890625 1.179688 -3.695312 0.808594 -3.304688 C 0.632812 -3.125 0.496094 -2.910156 0.402344 -2.671875 C 0.300781 -2.433594 0.253906 -2.179688 0.253906 -1.914062 C 0.253906 -1.371094 0.433594 -0.914062 0.808594 -0.53125 C 1.179688 -0.136719 1.632812 0.0546875 2.167969 0.0546875 C 2.558594 0.0546875 2.914062 -0.0546875 3.246094 -0.28125 C 3.570312 -0.507812 3.800781 -0.800781 3.949219 -1.175781 Z M 3.949219 -1.175781 "/></g></g></g><g fill="#ffffff" fill-opacity="1"><g transform="translate(103.413881, 16.98393)"><g><path d="M 2.707031 0 L 2.707031 -0.367188 L 0.820312 -0.367188 L 0.820312 -1.734375 L 2.648438 -1.734375 L 2.648438 -2.105469 L 0.820312 -2.105469 L 0.820312 -3.472656 L 2.707031 -3.472656 L 2.707031 -3.839844 L 0.421875 -3.839844 L 0.421875 0 Z M 2.707031 0 "/></g></g></g><g fill="#ffffff" fill-opacity="1"><g transform="translate(107.672311, 16.98393)"><g><path d="M 0.820312 0 L 0.820312 -3.839844 L 0.421875 -3.839844 L 0.421875 0 Z M 0.820312 0 "/></g></g></g><g fill="#ffffff" fill-opacity="1"><g transform="translate(110.044448, 16.98393)"><g><path d="M 0.113281 -3.484375 L 1.042969 -3.484375 L 1.042969 -0.0117188 L 1.441406 -0.0117188 L 1.441406 -3.484375 L 2.371094 -3.484375 L 2.371094 -3.851562 L 0.113281 -3.851562 Z M 0.113281 -3.484375 "/></g></g></g><g fill="#ffffff" fill-opacity="1"><g transform="translate(113.659054, 16.98393)"><g><path d="M 1.042969 -1.410156 L 1.746094 -3.179688 L 2.441406 -1.410156 Z M 3.429688 0 L 1.746094 -4.105469 L 0.0546875 0 L 0.484375 0 L 0.898438 -1.042969 L 2.585938 -1.042969 L 3 0 Z M 3.429688 0 "/></g></g></g><g fill="#ffffff" fill-opacity="1"><g transform="translate(118.273283, 16.98393)"><g><path d="M 1.484375 -1.808594 C 1.980469 -1.6875 2.320312 -1.558594 2.5 -1.410156 C 2.625 -1.308594 2.6875 -1.179688 2.6875 -1.023438 C 2.6875 -0.863281 2.65625 -0.734375 2.585938 -0.644531 C 2.417969 -0.40625 2.113281 -0.289062 1.683594 -0.289062 C 1.085938 -0.289062 0.746094 -0.492188 0.671875 -0.898438 L 0.207031 -0.898438 C 0.34375 -0.25 0.835938 0.0742188 1.683594 0.0742188 C 2.0625 0.0742188 2.378906 -0.00390625 2.632812 -0.175781 C 2.9375 -0.371094 3.09375 -0.667969 3.09375 -1.050781 C 3.09375 -1.367188 2.96875 -1.609375 2.722656 -1.777344 C 2.546875 -1.902344 2.265625 -2.015625 1.875 -2.117188 C 1.480469 -2.21875 1.226562 -2.304688 1.105469 -2.367188 C 0.847656 -2.496094 0.71875 -2.675781 0.722656 -2.914062 C 0.722656 -3.039062 0.746094 -3.144531 0.800781 -3.226562 C 0.949219 -3.445312 1.207031 -3.558594 1.582031 -3.558594 C 2.105469 -3.558594 2.40625 -3.386719 2.484375 -3.0625 L 2.914062 -3.0625 C 2.773438 -3.613281 2.328125 -3.898438 1.582031 -3.898438 C 1.242188 -3.898438 0.941406 -3.804688 0.695312 -3.625 C 0.441406 -3.445312 0.3125 -3.179688 0.3125 -2.816406 C 0.3125 -2.328125 0.707031 -1.988281 1.484375 -1.808594 Z M 1.484375 -1.808594 "/></g></g></g><g fill="#ffffff" fill-opacity="1"><g transform="translate(122.644666, 16.98393)"><g/></g></g><g fill="#ffffff" fill-opacity="1"><g transform="translate(125.29918, 16.98393)"><g><path d="M 3.40625 -1.921875 C 3.40625 -2.195312 3.347656 -2.449219 3.246094 -2.6875 C 3.144531 -2.925781 3.003906 -3.128906 2.828125 -3.296875 C 2.648438 -3.46875 2.441406 -3.597656 2.203125 -3.695312 C 1.960938 -3.789062 1.699219 -3.839844 1.429688 -3.839844 L 0.421875 -3.839844 L 0.421875 0 L 1.429688 0 C 1.699219 0 1.960938 -0.046875 2.203125 -0.140625 C 2.441406 -0.238281 2.648438 -0.371094 2.828125 -0.542969 C 3.003906 -0.710938 3.144531 -0.910156 3.246094 -1.144531 C 3.347656 -1.382812 3.40625 -1.636719 3.40625 -1.921875 Z M 3.023438 -1.921875 C 3.023438 -1.480469 2.863281 -1.113281 2.558594 -0.824219 C 2.253906 -0.535156 1.878906 -0.394531 1.441406 -0.394531 L 0.820312 -0.394531 L 0.820312 -3.445312 L 1.441406 -3.445312 C 1.878906 -3.445312 2.253906 -3.296875 2.558594 -3.015625 C 2.863281 -2.722656 3.023438 -2.355469 3.023438 -1.921875 Z M 3.023438 -1.921875 "/></g></g></g><g fill="#ffffff" fill-opacity="1"><g transform="translate(130.088483, 16.98393)"><g><path d="M 2.707031 0 L 2.707031 -0.367188 L 0.820312 -0.367188 L 0.820312 -1.734375 L 2.648438 -1.734375 L 2.648438 -2.105469 L 0.820312 -2.105469 L 0.820312 -3.472656 L 2.707031 -3.472656 L 2.707031 -3.839844 L 0.421875 -3.839844 L 0.421875 0 Z M 2.707031 0 "/></g></g></g><g fill="#ffffff" fill-opacity="1"><g transform="translate(134.346912, 16.98393)"><g/></g></g><g fill="#ffffff" fill-opacity="1"><g transform="translate(137.001426, 16.98393)"><g><path d="M 2.707031 -3.472656 L 2.707031 -3.839844 L 0.421875 -3.839844 L 0.421875 0 L 0.820312 0 L 0.820312 -1.734375 L 2.648438 -1.734375 L 2.648438 -2.105469 L 0.820312 -2.105469 L 0.820312 -3.472656 Z M 2.707031 -3.472656 "/></g></g></g><g fill="#ffffff" fill-opacity="1"><g transform="translate(140.949237, 16.98393)"><g><path d="M 1.042969 -1.410156 L 1.746094 -3.179688 L 2.441406 -1.410156 Z M 3.429688 0 L 1.746094 -4.105469 L 0.0546875 0 L 0.484375 0 L 0.898438 -1.042969 L 2.585938 -1.042969 L 3 0 Z M 3.429688 0 "/></g></g></g><g fill="#ffffff" fill-opacity="1"><g transform="translate(145.563464, 16.98393)"><g><path d="M 3.964844 0 L 4.367188 0 L 3.472656 -4.09375 L 2.214844 -0.808594 L 0.953125 -4.09375 L 0.0546875 0 L 0.464844 0 L 1.054688 -2.734375 L 2.214844 0.226562 L 3.367188 -2.734375 Z M 3.964844 0 "/></g></g></g><g fill="#ffffff" fill-opacity="1"><g transform="translate(151.11519, 16.98393)"><g><path d="M 0.820312 0 L 0.820312 -3.839844 L 0.421875 -3.839844 L 0.421875 0 Z M 1.433594 -5.042969 L 0.949219 -5.042969 L 0.496094 -4.234375 L 0.8125 -4.234375 Z M 1.433594 -5.042969 "/></g></g></g><g fill="#ffffff" fill-opacity="1"><g transform="translate(153.487324, 16.98393)"><g><path d="M 0.820312 -0.394531 L 0.820312 -3.839844 L 0.421875 -3.839844 L 0.421875 0 L 2.191406 0 L 2.191406 -0.394531 Z M 0.820312 -0.394531 "/></g></g></g><g fill="#ffffff" fill-opacity="1"><g transform="translate(156.921208, 16.98393)"><g><path d="M 0.820312 0 L 0.820312 -3.839844 L 0.421875 -3.839844 L 0.421875 0 Z M 0.820312 0 "/></g></g></g><g fill="#ffffff" fill-opacity="1"><g transform="translate(159.293342, 16.98393)"><g><path d="M 1.042969 -1.410156 L 1.746094 -3.179688 L 2.441406 -1.410156 Z M 3.429688 0 L 1.746094 -4.105469 L 0.0546875 0 L 0.484375 0 L 0.898438 -1.042969 L 2.585938 -1.042969 L 3 0 Z M 3.429688 0 "/></g></g></g><g clip-path="url(#4a0023916c)"><path fill="#ffffff" d="M 142.335938 201.019531 L 162.585938 201.019531 L 162.585938 202.519531 L 142.335938 202.519531 Z M 142.335938 201.019531 " fill-opacity="1" fill-rule="nonzero"/></g></svg>