<svg xmlns="http://www.w3.org/2000/svg" xmlns:xlink="http://www.w3.org/1999/xlink" width="40" zoomAndPan="magnify" viewBox="0 0 30 30.000001" height="40" preserveAspectRatio="xMidYMid meet" version="1.0"><defs><clipPath id="9baa3ee4c9"><path d="M 2.304688 0 L 27.707031 0 L 27.707031 29.03125 L 2.304688 29.03125 Z M 2.304688 0 " clip-rule="nonzero"/></clipPath></defs><g clip-path="url(#9baa3ee4c9)"><path fill="#522888" d="M 12.542969 2.824219 C 11.882812 3.511719 11.378906 4.625 11.378906 6.28125 L 11.378906 8.171875 L 18.636719 8.171875 L 18.636719 6.28125 C 18.636719 3.285156 16.734375 1.871094 14.984375 1.828125 C 14.089844 1.804688 13.207031 2.132812 12.542969 2.824219 Z M 20.449219 8.171875 L 20.449219 6.28125 C 20.449219 2.359375 17.816406 0.0859375 15.03125 0.015625 C 13.65625 -0.0195312 12.269531 0.488281 11.234375 1.570312 C 10.191406 2.652344 9.5625 4.246094 9.5625 6.28125 L 9.5625 8.171875 L 2.304688 8.171875 L 2.304688 24.488281 C 2.304688 26.988281 4.335938 29.019531 6.839844 29.019531 L 23.171875 29.019531 C 25.675781 29.019531 27.707031 26.988281 27.707031 24.488281 L 27.707031 8.171875 Z M 18.636719 9.984375 L 18.636719 10.890625 L 20.449219 10.890625 L 20.449219 9.984375 L 25.894531 9.984375 L 25.894531 24.488281 C 25.894531 25.988281 24.675781 27.207031 23.171875 27.207031 L 6.839844 27.207031 C 5.339844 27.207031 4.121094 25.988281 4.121094 24.488281 L 4.121094 9.984375 L 9.5625 9.984375 L 9.5625 10.890625 L 11.378906 10.890625 L 11.378906 9.984375 Z M 18.636719 9.984375 " fill-opacity="1" fill-rule="evenodd"/></g></svg>