<svg xmlns="http://www.w3.org/2000/svg" xmlns:xlink="http://www.w3.org/1999/xlink" width="40" zoomAndPan="magnify" viewBox="0 0 30 30.000001" height="40" preserveAspectRatio="xMidYMid meet" version="1.0"><defs><clipPath id="cd8221752b"><path d="M 0.484375 0.144531 L 29.515625 0.144531 L 29.515625 29.03125 L 0.484375 29.03125 Z M 0.484375 0.144531 " clip-rule="nonzero"/></clipPath><clipPath id="79f5874b35"><path d="M 15 0.144531 C 6.984375 0.144531 0.484375 6.644531 0.484375 14.660156 C 0.484375 22.679688 6.984375 29.175781 15 29.175781 C 23.015625 29.175781 29.515625 22.679688 29.515625 14.660156 C 29.515625 6.644531 23.015625 0.144531 15 0.144531 " clip-rule="nonzero"/></clipPath><clipPath id="91177fbdfd"><path d="M 5.195312 9 L 23 9 L 23 19 L 5.195312 19 Z M 5.195312 9 " clip-rule="nonzero"/></clipPath><clipPath id="7c666aaee3"><path d="M 16 2 L 24.789062 2 L 24.789062 25.941406 L 16 25.941406 Z M 16 2 " clip-rule="nonzero"/></clipPath></defs><g clip-path="url(#cd8221752b)"><g clip-path="url(#79f5874b35)"><path fill="#dee2e6" d="M 0.484375 0.144531 L 29.515625 0.144531 L 29.515625 29.175781 L 0.484375 29.175781 Z M 0.484375 0.144531 " fill-opacity="1" fill-rule="nonzero"/></g></g><path fill="#6c757d" d="M 9.621094 13.792969 L 9.421875 13.597656 L 7.582031 15.078125 L 7.730469 15.273438 Z M 9.621094 13.792969 " fill-opacity="1" fill-rule="nonzero"/><path fill="#6c757d" d="M 7.980469 14.335938 L 9.867188 12.855469 L 9.71875 12.65625 L 7.828125 14.140625 Z M 7.980469 14.335938 " fill-opacity="1" fill-rule="nonzero"/><g clip-path="url(#91177fbdfd)"><path fill="#6c757d" d="M 9.421875 18.238281 C 11.359375 18.042969 12.851562 15.671875 13.203125 13.644531 C 13.699219 13.546875 14.195312 13.597656 14.644531 13.695312 L 14.644531 13.742188 C 15.089844 15.769531 15.988281 17.101562 17.328125 17.894531 C 18.425781 18.585938 21.757812 18.632812 22.105469 16.707031 C 22.402344 15.078125 22.652344 13.152344 21.804688 11.570312 C 21.558594 11.078125 21.058594 10.730469 20.511719 10.582031 C 18.027344 9.742188 9.421875 9.742188 7.332031 10.582031 C 6.785156 10.78125 6.335938 11.125 6.039062 11.570312 C 5.195312 13.152344 5.441406 15.078125 5.742188 16.707031 C 5.789062 17.054688 5.941406 17.398438 6.238281 17.597656 C 6.886719 18.191406 7.929688 18.4375 9.421875 18.238281 Z M 16.78125 11.125 C 18.671875 11.226562 20.664062 11.226562 21.109375 11.667969 C 21.957031 12.558594 21.804688 14.980469 21.410156 16.707031 C 21.308594 17.054688 21.058594 17.351562 20.664062 17.449219 C 20.113281 17.597656 19.320312 17.644531 18.472656 17.695312 C 18.226562 17.695312 17.976562 17.644531 17.726562 17.449219 C 16.335938 16.261719 15.488281 14.730469 15.140625 12.855469 C 15.042969 12.113281 15.789062 11.078125 16.78125 11.125 Z M 6.4375 16.707031 C 6.039062 14.980469 5.941406 12.507812 6.734375 11.667969 C 7.183594 11.226562 9.171875 11.175781 11.0625 11.125 C 11.957031 11.125 12.804688 12.015625 12.65625 12.90625 C 12.207031 15.226562 10.566406 17.746094 9.371094 17.746094 C 8.476562 17.695312 7.730469 17.644531 7.183594 17.496094 C 6.785156 17.398438 6.535156 17.101562 6.4375 16.707031 Z M 6.4375 16.707031 " fill-opacity="1" fill-rule="nonzero"/></g><path fill="#6c757d" d="M 18.921875 9.695312 C 18.820312 9.59375 18.773438 9.546875 18.671875 9.445312 C 14.894531 7.125 10.863281 8.261719 9.125 9.445312 C 8.972656 9.496094 8.875 9.59375 8.726562 9.695312 C 11.410156 9.347656 16.085938 9.347656 18.921875 9.695312 Z M 18.921875 9.695312 " fill-opacity="1" fill-rule="nonzero"/><path fill="#6c757d" d="M 19.417969 18.78125 C 19.367188 18.78125 19.367188 18.78125 19.320312 18.78125 C 18.074219 18.78125 17.527344 18.585938 17.082031 18.289062 C 15.6875 17.449219 14.742188 16.015625 14.246094 14.089844 C 14.046875 14.039062 13.796875 14.039062 13.597656 14.089844 C 13.152344 16.015625 12.207031 17.449219 10.765625 18.289062 C 10.367188 18.535156 9.917969 18.683594 9.472656 18.734375 C 9.125 18.78125 8.824219 18.78125 8.527344 18.78125 C 8.476562 18.78125 8.378906 18.78125 8.328125 18.78125 C 8.675781 19.226562 9.171875 19.621094 9.71875 19.867188 C 9.96875 19.96875 10.21875 20.015625 10.464844 19.96875 C 12.804688 19.621094 14.742188 19.71875 17.628906 19.917969 C 18.273438 19.96875 19.121094 19.277344 19.417969 18.78125 Z M 19.417969 18.78125 " fill-opacity="1" fill-rule="nonzero"/><g clip-path="url(#7c666aaee3)"><path fill="#6c757d" d="M 21.804688 6.1875 L 18.972656 2.382812 C 18.773438 2.085938 18.324219 2.039062 18.027344 2.234375 C 17.726562 2.433594 17.679688 2.878906 17.875 3.175781 L 20.710938 6.976562 C 22.851562 9.84375 23.25 13.84375 22.949219 17.351562 C 22.949219 17.398438 22.503906 20.855469 20.113281 23.03125 L 20.015625 22.683594 C 19.917969 22.238281 19.964844 21.746094 20.113281 21.300781 C 20.214844 21.054688 20.265625 20.558594 20.164062 20.164062 L 19.566406 20.414062 C 19.566406 20.414062 19.617188 21.25 19.46875 21.546875 C 19.171875 21.84375 18.125 22.191406 17.976562 20.558594 L 17.378906 20.609375 C 17.378906 21.25 17.527344 21.648438 17.679688 21.894531 C 17.875 22.191406 18.027344 22.488281 18.074219 22.832031 L 18.324219 24.214844 C 18.027344 24.363281 17.726562 24.460938 17.378906 24.511719 C 17.03125 24.609375 16.78125 24.957031 16.882812 25.300781 C 16.980469 25.648438 17.328125 25.894531 17.679688 25.796875 C 23.449219 24.363281 24.292969 17.792969 24.34375 17.496094 C 24.789062 11.667969 23.398438 8.3125 21.804688 6.1875 Z M 21.804688 6.1875 " fill-opacity="1" fill-rule="nonzero"/></g><path fill="#6c757d" d="M 19.867188 14.1875 L 18.027344 12.707031 L 17.875 12.90625 L 19.71875 14.386719 Z M 19.867188 14.1875 " fill-opacity="1" fill-rule="nonzero"/><path fill="#6c757d" d="M 18.125 13.792969 L 19.964844 15.273438 L 20.113281 15.128906 L 18.273438 13.597656 Z M 18.125 13.792969 " fill-opacity="1" fill-rule="nonzero"/></svg>